<?xml version="1.0" encoding="utf-8"?>
<!-- Generator: Adobe Illustrator 25.4.1, SVG Export Plug-In . SVG Version: 6.00 Build 0)  -->
<svg version="1.1" id="Layer_1" xmlns="http://www.w3.org/2000/svg" xmlns:xlink="http://www.w3.org/1999/xlink" x="0px" y="0px"
	 viewBox="0 0 552.4 191.3" style="enable-background:new 0 0 552.4 191.3;" xml:space="preserve">
<style type="text/css">
	.st0{fill:#FFFFFF;}
</style>
<g>
	<g id="Layer_2_00000180365146328878859120000015501189214067812497_">
		<g id="Layer_1-2">
			<rect x="233.4" class="st0" width="87.1" height="8"/>
			<rect x="146.4" y="16.5" class="st0" width="87" height="8"/>
			<rect x="320.4" y="16.5" class="st0" width="87" height="8"/>
			<path class="st0" d="M152.4,107.8l-9.1,26.8l-0.1,0.2h6.5l1.9-6.6h9.2l2.1,6.6h6.5l-9.4-27.1H152.4z M159.3,123.4h-6.2l3.1-10
				L159.3,123.4z"/>
			<path class="st0" d="M211.2,116.2c0-5.4-3.7-8.4-10.3-8.4h-11.3v27.1h6.5v-9.9h3.4l5.9,9.9h7.3l-6.8-10.6
				C209.5,123.1,211.2,120.4,211.2,116.2z M204.7,116.4c0,2.3-1.5,3.6-4.3,3.6h-4.2v-7h4.1C203.2,113,204.7,114.1,204.7,116.4z"/>
			<polygon class="st0" points="257.6,107.8 249.6,107.8 240.5,118.4 240.5,107.8 233.9,107.8 233.9,134.9 240.5,134.9 240.5,125.5 
				242.4,123.7 250.5,134.8 250.6,134.9 258.5,134.9 247.1,119.6 			"/>
			<rect x="278.2" y="107.8" class="st0" width="6.5" height="27.1"/>
			<path class="st0" d="M323.3,108c-0.6,1.8-5,15.8-5.9,18.8c-1-3.1-6-18.1-6.2-18.8v-0.1h-6.8l9.6,27v0.1h6.7l9.4-27.1h-6.7
				L323.3,108z"/>
			<polygon class="st0" points="356,123.8 367.1,123.8 367.1,118.7 356,118.7 356,112.9 368.3,112.9 368.3,107.8 349.8,107.8 
				349.8,134.9 368.5,134.9 368.5,129.7 356,129.7 			"/>
			<polygon class="st0" points="386.5,107.8 386.5,113.1 394.6,113.1 394.6,134.9 401.1,134.9 401.1,113.1 409.2,113.1 409.2,107.8 
							"/>
		</g>
	</g>
	<g id="Layer_2_00000060734648436678844970000002182604099962825601_">
		<g id="Layer_1-2_00000137112406243279490430000007221272312572555697_">
			<path class="st0" d="M0,175.7h9.9v2.9H3.6v3.7H9v3H3.6v6.1H0V175.7z"/>
			<path class="st0" d="M24.2,191.3l-3-5.7h-1.9v5.7h-3.6v-15.7h5.7c3.3,0,6.1,1.2,6.1,4.9c0.1,2-1,3.8-2.8,4.6l3.5,6.3L24.2,191.3z
				 M19.2,182.9h1.8c1.9,0,2.9-0.8,2.9-2.3c0-1.5-1-2.1-2.9-2.1h-1.8V182.9z"/>
			<path class="st0" d="M33.6,175.7h9.8v2.9h-6.3v3.2h5.3v2.9h-5.3v3.6h6.5v3h-10V175.7z"/>
			<path class="st0" d="M49.8,175.7h4.5c4.8,0,7.9,2.4,7.9,7.8s-3.1,7.9-7.7,7.9h-4.7V175.7z M54,188.5c2.6,0,4.4-1.3,4.4-5
				c0-3.8-1.8-4.9-4.4-4.9h-0.7v9.9H54z"/>
			<path class="st0" d="M69.2,187c1.1,1,2.4,1.5,3.8,1.6c1.5,0,2.2-0.6,2.2-1.5c0-0.9-0.9-1.3-2.3-1.9l-2-0.9
				c-1.9-0.6-3.1-2.3-3.2-4.3c0-2.6,2.3-4.7,5.6-4.7c1.9,0,3.7,0.7,5,2.1l-1.8,2.3c-0.9-0.8-2-1.2-3.2-1.2c-1.2,0-2,0.5-2,1.4
				c0,0.9,1,1.3,2.4,1.9l2,0.8c1.9,0.8,3.1,2,3.1,4.2c0,2.6-2.2,4.9-5.9,4.9c-2.1,0-4.2-0.8-5.8-2.3L69.2,187z"/>
			<path class="st0" d="M83.8,184h5.9v2.5h-5.9V184z"/>
			<path class="st0" d="M103.1,183.4c0-5.1,2.9-8,7.1-8s7.1,3,7.1,8c0,5.1-2.9,8.2-7.1,8.2C105.9,191.6,103.1,188.6,103.1,183.4z
				 M113.7,183.4c0-3.1-1.3-5-3.5-5c-2.1,0-3.5,1.9-3.5,5s1.4,5.1,3.5,5.1C112.3,188.6,113.7,186.6,113.7,183.4z"/>
			<path class="st0" d="M130.3,175.4c1.8,0,3.6,0.7,4.9,2l-1.9,2.2c-0.8-0.8-1.8-1.2-2.9-1.2c-2.4,0-4.1,1.9-4.1,5
				c0,3.1,1.5,5.1,4.4,5.1c0.6,0,1.2-0.2,1.7-0.5v-2.7h-2.6v-2.9h5.7v7.2c-1.5,1.2-3.3,1.9-5.2,1.9c-4.2,0-7.6-2.8-7.6-8
				C122.6,178.3,126.1,175.4,130.3,175.4z"/>
			<path class="st0" d="M149.9,175.7h3.8l2.6,7l0.9,2.8h0.1l1-2.8l2.5-7h3.8v15.7h-3.3v-5.7c0-1.5,0.3-3.8,0.5-5.3h-0.1l-1.3,3.6
				l-2.4,6.1h-1.4l-2.4-6.1l-1.2-3.6h-0.1c0.2,1.5,0.5,3.8,0.5,5.3v5.7h-3.2L149.9,175.7z"/>
			<path class="st0" d="M171.3,175.7h9.8v2.9h-6.3v3.2h5.3v2.9h-5.3v3.6h6.5v3h-10V175.7z"/>
			<path class="st0" d="M187.5,175.7h3.7l4.1,7.8l1.6,3.5h0.1c-0.2-1.6-0.5-3.9-0.5-5.7v-5.5h3.4v15.7h-3.6l-4.1-7.8l-1.5-3.4h-0.1
				c0.2,1.7,0.5,3.8,0.5,5.7v5.5h-3.4L187.5,175.7z"/>
			<path class="st0" d="M206.6,175.7h3.6l4.1,7.8l1.6,3.5h0.1c-0.2-1.6-0.5-3.9-0.5-5.7v-5.5h3.4v15.7h-3.6l-4-7.8l-1.5-3.4h-0.1
				c0.2,1.7,0.5,3.8,0.5,5.7v5.5h-3.4V175.7z"/>
			<path class="st0" d="M225.6,175.7h9.8v2.9h-6.3v3.2h5.3v2.9h-5.3v3.6h6.5v3h-10V175.7z"/>
			<path class="st0" d="M242.9,187c1.1,1,2.4,1.5,3.8,1.6c1.5,0,2.2-0.6,2.2-1.5c0-0.9-0.9-1.3-2.3-1.9l-2-0.9
				c-1.9-0.6-3.1-2.3-3.2-4.3c0-2.6,2.4-4.6,5.6-4.6c1.9,0,3.7,0.7,5,2.1l-1.8,2.2c-0.9-0.8-2-1.2-3.2-1.2c-1.2,0-2,0.5-2,1.4
				c0,0.9,1,1.3,2.4,1.9l2,0.8c1.9,0.8,3.1,2,3.1,4.2c0,2.6-2.2,4.9-5.9,4.9c-2.1,0-4.2-0.8-5.8-2.3L242.9,187z"/>
			<path class="st0" d="M258.3,175.7h3.6v6.4h0.1l4.7-6.4h3.9l-4.7,6.2l5.6,9.4h-3.9l-3.8-6.6l-1.8,2.4v4.2h-3.6L258.3,175.7z"/>
			<path class="st0" d="M276.1,175.7h9.8v2.9h-6.2v3.2h5.3v2.9h-5.3v3.6h6.5v3h-10V175.7z"/>
			<path class="st0" d="M300.9,191.3l-3-5.7h-1.9v5.7h-3.5v-15.7h5.7c3.3,0,6.1,1.2,6.1,4.9c0.1,2-1,3.8-2.8,4.6l3.5,6.3
				L300.9,191.3z M295.9,182.9h1.8c1.9,0,2.9-0.8,2.9-2.3c0-1.5-1-2.1-2.9-2.1h-1.8V182.9z"/>
			<path class="st0" d="M310.3,175.7h9.8v2.9h-6.3v3.2h5.3v2.9h-5.3v3.6h6.5v3h-10V175.7z"/>
			<path class="st0" d="M329.6,178.6h-4.3v-2.9h12.2v2.9h-4.3v12.7h-3.5L329.6,178.6z"/>
			<path class="st0" d="M346,178.6h-4.3v-2.9h12.1v2.9h-4.3v12.7H346V178.6z"/>
			<path class="st0" d="M359.4,175.7h3.6v15.7h-3.6V175.7z"/>
			<path class="st0" d="M376.7,175.4c1.8,0,3.6,0.7,4.9,2l-1.9,2.2c-0.8-0.8-1.8-1.2-2.9-1.2c-2.4,0-4.1,1.9-4.1,5
				c0,3.1,1.5,5.1,4.4,5.1c0.6,0,1.1-0.2,1.6-0.5v-2.7h-2.6v-2.9h5.7v7.2c-1.5,1.2-3.3,1.9-5.3,1.9c-4.2,0-7.6-2.8-7.6-8
				S372.5,175.4,376.7,175.4z"/>
			<path class="st0" d="M388.1,175.7h3.6v6h5.4v-6h3.5v15.7h-3.5v-6.5h-5.4v6.5h-3.6V175.7z"/>
			<path class="st0" d="M407.4,175.7h9.8v2.9H411v3.2h5.3v2.9H411v3.6h6.5v3h-10V175.7z"/>
			<path class="st0" d="M426.7,178.6h-4.3v-2.9h12.1v2.9h-4.3v12.7h-3.5V178.6z"/>
			<path class="st0" d="M440.5,187c1.1,1,2.4,1.5,3.8,1.6c1.5,0,2.2-0.6,2.2-1.5c0-0.9-0.9-1.3-2.3-1.9l-2-0.9
				c-1.9-0.6-3.1-2.3-3.2-4.3c0-2.6,2.4-4.6,5.6-4.6c1.9,0,3.7,0.7,5,2.1l-1.8,2.2c-0.9-0.8-2-1.2-3.2-1.2c-1.2,0-2,0.5-2,1.4
				c0,0.9,1,1.3,2.4,1.9l2,0.8c1.9,0.8,3.1,2,3.1,4.2c0,2.6-2.2,4.9-5.9,4.9c-2.1,0-4.2-0.8-5.8-2.3L440.5,187z"/>
			<path class="st0" d="M456.5,187c1.1,1,2.4,1.5,3.8,1.6c1.5,0,2.2-0.6,2.2-1.5c0-0.9-0.9-1.3-2.3-1.9l-2-0.9
				c-1.9-0.6-3.1-2.3-3.2-4.3c0-2.6,2.3-4.7,5.6-4.7c1.9,0,3.7,0.8,5.1,2.1l-1.8,2.2c-0.9-0.8-2-1.2-3.2-1.2c-1.2,0-2,0.5-2,1.4
				c0,0.9,1,1.3,2.4,1.9l2,0.8c1.9,0.8,3.1,2,3.1,4.2c0,2.6-2.2,4.9-5.9,4.9c-2.1,0-4.2-0.8-5.8-2.3L456.5,187z"/>
			<path class="st0" d="M471.9,175.7h9.8v2.9h-6.3v3.2h5.3v2.9h-5.3v3.6h6.5v3h-10V175.7z"/>
			<path class="st0" d="M488.2,175.7h3.6l4.1,7.8l1.6,3.5h0.1c-0.2-1.6-0.5-3.9-0.5-5.7v-5.5h3.4v15.7h-3.6l-4.1-7.8l-1.5-3.4h-0.1
				c0.2,1.7,0.5,3.8,0.5,5.7v5.5h-3.4L488.2,175.7z"/>
			<path class="st0" d="M510.3,178.6H506v-2.9h12.1v2.9h-4.3v12.7h-3.5V178.6z"/>
			<path class="st0" d="M523.7,175.7h9.8v2.9h-6.3v3.2h5.3v2.9h-5.3v3.6h6.5v3h-10V175.7z"/>
			<path class="st0" d="M548.4,191.3l-3-5.7h-1.9v5.7H540v-15.7h5.7c3.3,0,6.1,1.2,6.1,4.9c0.1,2-1,3.8-2.9,4.6l3.5,6.3L548.4,191.3
				z M543.5,182.9h1.8c1.9,0,2.9-0.8,2.9-2.3c0-1.5-1-2.1-2.9-2.1h-1.8V182.9z"/>
		</g>
	</g>
</g>
</svg>
