<svg width="24" height="24" viewBox="0 0 24 24" fill="none" xmlns="http://www.w3.org/2000/svg">
<circle cx="12" cy="12" r="11.5" fill="#0F243F" stroke="#E8E5C6"/>
<path fill-rule="evenodd" clip-rule="evenodd" d="M11.952 5.41226L11.9012 5.42549L11.8968 5.63067L11.8924 5.83589L11.7638 5.84039C11.5717 5.84706 11.5591 5.88176 11.7019 6.01136C11.7615 6.06538 11.7843 6.07632 11.8375 6.07632H11.9015L11.897 6.2198L11.8924 6.36329L11.6718 6.37104L11.4512 6.3788L11.4465 6.41789C11.436 6.5065 11.5172 6.54842 11.7161 6.55718L11.8924 6.56494V6.69679V6.82864L11.7664 6.8364L11.6403 6.84415L11.6358 6.99539L11.6313 7.14663H10.8075C10.1716 7.14663 9.97758 7.15105 9.9567 7.1661C9.93266 7.18339 9.93014 7.21496 9.934 7.44919L9.93834 7.71281L10.7026 7.72057L11.4669 7.72832V7.85242V7.97651L11.1372 7.9807C10.7627 7.98547 10.7794 7.97957 10.7439 8.11999C10.718 8.22241 10.6947 8.30032 10.6152 8.54955C10.5434 8.77463 10.4952 8.9636 10.5039 8.98598C10.5171 9.01964 13.4472 9.01909 13.4756 8.9854C13.4991 8.95755 13.4889 8.90438 13.4261 8.72883C13.4002 8.65631 13.3721 8.57255 13.3637 8.54269C13.3395 8.45691 13.2382 8.13838 13.2117 8.06489C13.1723 7.95569 13.1634 7.95324 12.8101 7.95324H12.4978L12.5024 7.84078L12.507 7.72832L13.302 7.72429C13.914 7.72119 14.0998 7.71584 14.1094 7.70102C14.1396 7.65421 14.1241 7.17971 14.0918 7.16269C14.0719 7.15218 13.7665 7.14663 13.2093 7.14663H12.3573V7.00893C12.3573 6.84396 12.3535 6.83954 12.2069 6.83329L12.0973 6.82864V6.69679V6.56494L12.2659 6.55718C12.4324 6.54951 12.4352 6.54877 12.4905 6.49599C12.6009 6.39047 12.573 6.37287 12.2864 6.36709L12.0973 6.36329V6.22368V6.08408L12.1873 6.0762C12.2657 6.0693 12.2856 6.06034 12.3422 6.0064C12.476 5.87874 12.4623 5.85423 12.2516 5.84364L12.0973 5.83589L12.0894 5.62757C12.0806 5.39435 12.0721 5.38104 11.952 5.41226ZM9.93089 9.2401C9.90784 9.25445 9.90394 9.4592 9.92604 9.49441C9.93735 9.51249 9.95764 9.6583 9.98455 9.91548C10.0083 10.1426 10.0185 10.1864 10.0537 10.2141C10.0938 10.2456 13.9294 10.2421 13.9753 10.2105C14.0031 10.1913 14.0101 10.1663 14.0177 10.0592C14.0296 9.89027 14.0382 9.81221 14.058 9.69056C14.0671 9.63511 14.077 9.55483 14.08 9.51217C14.083 9.46952 14.091 9.40227 14.0975 9.36272C14.1053 9.31661 14.1032 9.27903 14.0917 9.25801L14.0739 9.22521L12.014 9.22544C10.7709 9.22559 9.94492 9.23141 9.93089 9.2401ZM11.7078 9.48871L11.7596 9.48891L11.7551 9.6479L11.7506 9.8069L11.5816 9.81128C11.3834 9.81644 11.3915 9.82497 11.3992 9.62072L11.4039 9.49666L11.4985 9.48736C11.5505 9.4822 11.6072 9.48038 11.6245 9.48325C11.6419 9.48611 11.6793 9.4886 11.7078 9.48871ZM12.5748 9.50054C12.5824 9.51547 12.5844 9.59051 12.5793 9.66729L12.57 9.8069L12.4227 9.8114C12.2317 9.81717 12.2312 9.81675 12.2312 9.63565C12.2312 9.467 12.2206 9.47626 12.4158 9.47464C12.5392 9.47359 12.5631 9.47751 12.5748 9.50054ZM13.4053 9.64402V9.8069L13.2359 9.81132L13.0664 9.8157V9.64402V9.47235L13.2359 9.47673L13.4053 9.48115V9.64402ZM10.9041 9.65566L10.9086 9.81465H10.7426H10.5766V9.65124V9.48782L10.7381 9.49224L10.8996 9.49666L10.9041 9.65566ZM9.33556 10.3989C9.32473 10.4032 9.31587 10.4202 9.31587 10.4366C9.31587 10.4531 9.3055 10.5066 9.29282 10.5556C9.13838 11.1517 9.13413 11.1193 9.37717 11.2006C9.57407 11.2665 9.57368 11.2662 9.54583 11.3433C9.51848 11.419 9.41983 11.7391 9.39789 11.8234C9.38903 11.8576 9.35936 11.9553 9.33198 12.0406C9.27765 12.2099 9.2418 12.3251 9.22096 12.3974C9.18188 12.533 9.14283 12.6713 9.12014 12.7541C9.10616 12.8053 9.0878 12.8592 9.07941 12.8738C9.03158 12.9571 9.03587 13.0721 9.08681 13.0721C9.09863 13.0721 9.25846 13.0233 9.44194 12.9635C9.62541 12.9038 9.7854 12.855 9.79741 12.855C9.80947 12.855 9.84961 12.8414 9.88669 12.8249C9.92376 12.8084 10.0392 12.7697 10.1432 12.739C10.2472 12.7083 10.3961 12.662 10.4741 12.6363C10.5521 12.6106 10.6372 12.5833 10.6632 12.5756C10.7938 12.5374 11.1649 12.4166 11.2621 12.3808C11.3227 12.3585 11.4185 12.3278 11.4748 12.3126C11.7039 12.2509 11.862 12.1993 11.9157 12.1689L11.9725 12.1367L12.0743 12.1767C12.1303 12.1987 12.1974 12.2211 12.2234 12.2267C12.2852 12.2397 12.5022 12.3043 12.6804 12.3625C12.889 12.4308 12.9383 12.4461 13.0428 12.4751C13.0948 12.4895 13.2083 12.5241 13.2949 12.5518C13.4869 12.6133 13.7063 12.6794 13.8229 12.7108C13.8705 12.7236 13.9474 12.7473 13.9937 12.7635C14.0399 12.7797 14.0912 12.7929 14.1075 12.7929C14.1238 12.7929 14.178 12.8107 14.2279 12.8324C14.2779 12.8542 14.3507 12.8787 14.3899 12.887C14.4291 12.8952 14.4753 12.9084 14.4926 12.9162C14.5099 12.924 14.5809 12.9456 14.6502 12.9642C14.7195 12.9827 14.8067 13.0073 14.8439 13.0188C14.9826 13.0616 14.9889 13.0326 14.8998 12.7586C14.8602 12.6367 14.8183 12.5021 14.8068 12.4594C14.7953 12.4168 14.7538 12.2806 14.7146 12.1569C14.6304 11.8909 14.6026 11.7986 14.5627 11.6528C14.5463 11.5931 14.5146 11.4929 14.4922 11.4302C14.4361 11.2734 14.4407 11.2578 14.5556 11.2177C14.6077 11.1996 14.6679 11.1772 14.6896 11.168C14.7113 11.1587 14.7416 11.1473 14.757 11.1425C14.7913 11.1319 14.8163 11.0716 14.7996 11.0401C14.7928 11.0273 14.7827 10.9819 14.7771 10.9393C14.7619 10.8238 14.723 10.6386 14.6969 10.5571C14.6842 10.5176 14.6738 10.4677 14.6738 10.4463C14.6738 10.4249 14.6626 10.4032 14.6489 10.398C14.6191 10.3867 9.36393 10.3876 9.33556 10.3989ZM11.9547 12.4495C11.9464 12.4568 11.9113 12.4704 11.8767 12.4797C11.7701 12.5081 11.6104 12.5611 11.5776 12.579C11.5482 12.595 11.3791 12.6573 11.2227 12.7097C11.1837 12.7228 11.1411 12.7374 11.1281 12.7422C11.1151 12.747 11.0619 12.7666 11.0099 12.7858C10.9579 12.805 10.8267 12.8517 10.7184 12.8895C10.6101 12.9274 10.4505 12.9866 10.3638 13.021C10.2771 13.0554 10.153 13.1014 10.088 13.1233C10.023 13.1452 9.90958 13.185 9.8359 13.2118C9.76223 13.2386 9.67158 13.2702 9.63443 13.2821C9.59728 13.2939 9.55827 13.3091 9.54776 13.3157C9.53724 13.3223 9.44351 13.3567 9.3395 13.3922C9.2355 13.4277 9.09012 13.4789 9.01645 13.5059C8.94278 13.533 8.81868 13.5763 8.74067 13.6021C8.66267 13.6279 8.56878 13.6623 8.53203 13.6786C8.49531 13.6948 8.45824 13.7081 8.44969 13.7081C8.3876 13.7081 8.38433 13.7799 8.43893 13.9428C8.4686 14.0313 8.50141 14.142 8.51185 14.189C8.53088 14.2746 8.56268 14.3913 8.59845 14.507C8.60897 14.5411 8.62989 14.6109 8.6449 14.6621C8.65987 14.7133 8.68528 14.797 8.70131 14.8482C8.71735 14.8994 8.74906 15.0181 8.77172 15.1119C8.79441 15.2058 8.83018 15.3314 8.85118 15.3911C8.87222 15.4509 8.91425 15.5939 8.94459 15.7091C8.99746 15.9097 9.02981 16.0192 9.06589 16.1202C9.07503 16.1458 9.08839 16.1946 9.0956 16.2288C9.1279 16.3821 9.15521 16.4149 9.66555 16.9152L10.1601 17.3999H11.9883H13.8164L14.3752 16.8499C14.9241 16.3094 14.9343 16.2983 14.959 16.21C15.026 15.9703 15.0513 15.8723 15.0606 15.8177C15.0681 15.7733 15.1132 15.5997 15.1615 15.4299C15.1797 15.3659 15.2094 15.2473 15.2274 15.1662C15.2456 15.0852 15.2659 15.0049 15.2727 14.9878C15.2849 14.9569 15.3465 14.7202 15.3997 14.4992C15.4281 14.3814 15.4964 14.1088 15.5261 13.9951C15.535 13.9609 15.549 13.902 15.5573 13.864C15.5655 13.8261 15.5808 13.7719 15.5912 13.7437C15.6179 13.671 15.6003 13.6588 15.3512 13.5759C15.2343 13.537 15.1174 13.4956 15.0914 13.4839C15.0654 13.4722 15.0016 13.4505 14.9496 13.4356C14.8976 13.4207 14.8338 13.3998 14.8078 13.3891C14.7818 13.3784 14.7321 13.3621 14.6975 13.3529C14.6628 13.3437 14.5777 13.3146 14.5084 13.2882C14.439 13.2618 14.361 13.2344 14.335 13.2272C14.309 13.2201 14.1849 13.1782 14.0592 13.1342C13.9336 13.0902 13.6925 13.0089 13.5235 12.9535C13.3544 12.8982 13.1949 12.8436 13.1689 12.8323C13.0911 12.7985 13.0477 12.7831 12.9483 12.7547C12.8175 12.7172 12.7204 12.6851 12.6646 12.6608C12.6386 12.6495 12.4932 12.6007 12.3415 12.5523C12.1899 12.5039 12.0534 12.458 12.0384 12.4502C12.004 12.4325 11.974 12.4323 11.9547 12.4495Z" fill="#E8E5C6"/>
</svg>
