<?xml version="1.0" encoding="utf-8"?>
<!-- Generator: Adobe Illustrator 25.4.1, SVG Export Plug-In . SVG Version: 6.00 Build 0)  -->
<svg version="1.1" id="Layer_1" focusable="false" xmlns="http://www.w3.org/2000/svg" xmlns:xlink="http://www.w3.org/1999/xlink"
	 x="0px" y="0px" viewBox="0 0 512 512" style="enable-background:new 0 0 512 512;" xml:space="preserve">
<style type="text/css">
	.st0{fill:#354169;}
</style>
<g>
	<path class="st0" d="M448,0H64C28.7,0,0,28.7,0,64v288c0,35.3,28.7,64,64,64h96v84c0,7.1,5.8,12,12,12c2.4,0,4.9-0.7,7.1-2.4
		L304,416h144c35.3,0,64-28.7,64-64V64C512,28.7,483.3,0,448,0z M464,352c0,8.8-7.2,16-16,16H288l-12.8,9.6L208,428v-60H64
		c-8.8,0-16-7.2-16-16V64c0-8.8,7.2-16,16-16h384c8.8,0,16,7.2,16,16V352z"/>
	<g>
		<path class="st0" d="M71.3,242.6v-78.5h32.8c5.9,0,10.8,0.8,14.8,2.5c4,1.7,7,4,9,7c2,3,3,6.5,3,10.4c0,3-0.6,5.7-1.9,8
			s-3,4.3-5.2,5.8s-4.7,2.6-7.6,3.2v0.8c3.2,0.2,6.1,1,8.8,2.6c2.7,1.6,4.9,3.7,6.5,6.5c1.6,2.8,2.5,6.1,2.5,9.8
			c0,4.2-1.1,8-3.2,11.3c-2.1,3.3-5.3,5.9-9.3,7.8c-4.1,1.9-9,2.9-14.8,2.9H71.3z M90.3,196.4h10.5c2.1,0,3.9-0.3,5.5-1
			c1.6-0.7,2.9-1.7,3.8-3c0.9-1.3,1.4-2.9,1.4-4.7c0-2.6-0.9-4.7-2.8-6.2c-1.9-1.5-4.4-2.3-7.6-2.3H90.3V196.4z M90.3,227.3h11.7
			c4.1,0,7.2-0.8,9.1-2.3c2-1.6,2.9-3.7,2.9-6.5c0-2-0.5-3.8-1.4-5.2c-0.9-1.5-2.3-2.6-4-3.4c-1.7-0.8-3.8-1.2-6.3-1.2H90.3V227.3z"
			/>
		<path class="st0" d="M143.9,242.6v-78.5h19v63.1h32.7v15.4H143.9z"/>
		<path class="st0" d="M275.1,203.3c0,8.6-1.7,16-5,22c-3.3,6-7.8,10.6-13.5,13.7c-5.7,3.1-12,4.7-19,4.7c-7.1,0-13.4-1.6-19.1-4.7
			s-10.1-7.7-13.4-13.7c-3.3-6-5-13.3-5-21.9c0-8.6,1.7-16,5-22c3.3-6,7.8-10.6,13.4-13.7c5.7-3.1,12-4.7,19.1-4.7
			c7,0,13.4,1.6,19,4.7c5.7,3.1,10.2,7.7,13.5,13.7C273.5,187.4,275.1,194.7,275.1,203.3z M255.7,203.3c0-5.1-0.7-9.4-2.2-13
			c-1.4-3.5-3.5-6.2-6.2-8c-2.7-1.8-5.9-2.7-9.7-2.7c-3.8,0-7,0.9-9.7,2.7c-2.7,1.8-4.8,4.5-6.2,8c-1.4,3.5-2.2,7.8-2.2,13
			c0,5.1,0.7,9.4,2.2,13c1.4,3.5,3.5,6.2,6.2,8c2.7,1.8,5.9,2.7,9.7,2.7c3.8,0,7-0.9,9.7-2.7s4.8-4.5,6.2-8
			C255,212.8,255.7,208.5,255.7,203.3z"/>
		<path class="st0" d="M338,189.7c-0.4-1.6-1.1-3-1.9-4.3c-0.8-1.2-1.9-2.3-3.1-3.2c-1.2-0.9-2.6-1.5-4.2-2
			c-1.6-0.4-3.3-0.7-5.2-0.7c-3.8,0-7.1,0.9-9.9,2.8c-2.8,1.8-4.9,4.5-6.4,8c-1.5,3.5-2.3,7.8-2.3,12.8c0,5,0.7,9.3,2.2,12.9
			c1.5,3.6,3.6,6.3,6.3,8.1c2.8,1.9,6.1,2.8,10,2.8c3.5,0,6.4-0.6,8.8-1.7c2.4-1.1,4.3-2.8,5.5-4.9c1.3-2.1,1.9-4.6,1.9-7.4l3.5,0.4
			h-19.1v-13.8h33.9v10.4c0,7-1.5,13.1-4.5,18.1c-3,5-7.1,8.9-12.3,11.5c-5.2,2.7-11.2,4-17.9,4c-7.5,0-14.1-1.6-19.8-4.9
			c-5.7-3.2-10.1-7.9-13.3-13.9c-3.2-6-4.8-13.2-4.8-21.5c0-6.4,1-12.2,2.9-17.2c1.9-5,4.6-9.2,8-12.7c3.4-3.5,7.4-6.1,12-7.9
			c4.5-1.8,9.4-2.7,14.7-2.7c4.6,0,8.8,0.7,12.7,2c3.9,1.3,7.4,3.1,10.4,5.5c3,2.4,5.5,5.2,7.4,8.5s3.1,6.9,3.5,10.8H338z"/>
		<path class="st0" d="M421.3,189.7c-0.4-1.6-1.1-3-1.9-4.3c-0.8-1.2-1.9-2.3-3.1-3.2c-1.2-0.9-2.6-1.5-4.2-2
			c-1.6-0.4-3.3-0.7-5.2-0.7c-3.8,0-7.1,0.9-9.9,2.8c-2.8,1.8-4.9,4.5-6.4,8c-1.5,3.5-2.3,7.8-2.3,12.8c0,5,0.7,9.3,2.2,12.9
			c1.5,3.6,3.6,6.3,6.3,8.1c2.8,1.9,6.1,2.8,10,2.8c3.5,0,6.4-0.6,8.8-1.7c2.4-1.1,4.3-2.8,5.5-4.9c1.3-2.1,1.9-4.6,1.9-7.4l3.5,0.4
			h-19.1v-13.8h33.9v10.4c0,7-1.5,13.1-4.5,18.1c-3,5-7.1,8.9-12.3,11.5c-5.2,2.7-11.2,4-17.9,4c-7.5,0-14.1-1.6-19.8-4.9
			c-5.7-3.2-10.1-7.9-13.3-13.9c-3.2-6-4.8-13.2-4.8-21.5c0-6.4,1-12.2,2.9-17.2c1.9-5,4.6-9.2,8-12.7c3.4-3.5,7.4-6.1,12-7.9
			c4.5-1.8,9.4-2.7,14.7-2.7c4.6,0,8.8,0.7,12.7,2c3.9,1.3,7.4,3.1,10.4,5.5c3,2.4,5.5,5.2,7.4,8.5s3.1,6.9,3.5,10.8H421.3z"/>
	</g>
</g>
</svg>
