<svg width="7" height="12" viewBox="0 0 7 12" fill="none" xmlns="http://www.w3.org/2000/svg">
<path d="M6.68998 11.29C6.78268 11.1975 6.85623 11.0876 6.90641 10.9666C6.95659 10.8456 6.98242 10.7159 6.98242 10.585C6.98242 10.454 6.95659 10.3243 6.90641 10.2034C6.85623 10.0824 6.78268 9.97249 6.68998 9.87998L2.80998 5.99998L6.68998 2.11998C6.87696 1.933 6.982 1.67941 6.982 1.41498C6.982 1.15055 6.87696 0.896955 6.68998 0.709977C6.503 0.523 6.2494 0.417958 5.98498 0.417958C5.72055 0.417958 5.46696 0.523 5.27998 0.709977L0.689978 5.29998C0.597274 5.39249 0.523726 5.50238 0.473545 5.62335C0.423364 5.74433 0.397534 5.87401 0.397534 6.00498C0.397534 6.13595 0.423364 6.26563 0.473545 6.3866C0.523726 6.50758 0.597274 6.61746 0.689978 6.70998L5.27998 11.3C5.65998 11.68 6.29998 11.68 6.68998 11.29Z" fill="#6F7C8C"/>
</svg>
