<?xml version="1.0" encoding="utf-8"?>
<!-- Generator: Adobe Illustrator 25.4.1, SVG Export Plug-In . SVG Version: 6.00 Build 0)  -->
<svg version="1.1" id="Layer_1" focusable="false" xmlns="http://www.w3.org/2000/svg" xmlns:xlink="http://www.w3.org/1999/xlink"
	 x="0px" y="0px" viewBox="0 0 512 512" style="enable-background:new 0 0 512 512;" xml:space="preserve">
<style type="text/css">
	.st0{fill:#0F243F;}
</style>
<path class="st0" d="M256,40c118.6,0,216,96.1,216,216c0,119.3-96.6,216-216,216c-119.2,0-216-96.6-216-216
	C40,136.8,136.6,40,256,40 M256,8C119,8,8,119.1,8,256c0,137,111,248,248,248s248-111,248-248C504,119.1,393,8,256,8z M244.5,128h23
	c6.8,0,12.3,5.7,12,12.5l-7,168c-0.3,6.4-5.6,11.5-12,11.5h-9c-6.4,0-11.7-5.1-12-11.5l-7-168C232.2,133.7,237.7,128,244.5,128
	L244.5,128z M256,340c-15.5,0-28,12.5-28,28s12.5,28,28,28s28-12.5,28-28S271.5,340,256,340z"/>
</svg>
