<svg xmlns="http://www.w3.org/2000/svg" width="25" height="24" fill="none"><circle cx="12.799" cy="12" r="11.5" fill="#D7DC93" stroke="#E8E5C6"/><path fill="#434443" fill-rule="evenodd" d="M6.503 8.011c.005.101.013.13.035.126.015-.003.027-.01.027-.015-.024-.234-.072-.32-.062-.11Zm-.049.218c-.006.04-.006.132 0 .207.015.183-.066.21-.12.04-.03-.089-.102-.104-.131-.028-.021.055-.096.063-.082.009.014-.054.012-.068-.007-.078-.011-.005-.023.015-.026.044-.004.03-.014.055-.023.055-.047 0-.063 1.068-.017 1.153.029.055.031.262.002.257-.046-.01.023.12.118.222.036.038.054.077.05.11a.17.17 0 0 0 .029.096c.018.027.03.054.024.063-.005.008.013.004.04-.009.034-.015.046-.033.038-.057-.01-.03-.004-.032.045-.014.039.015.057.015.062 0 .004-.011.03-.02.057-.02.065 0 .05.04-.027.078-.116.058-.193.146-.14.162.037.01.034.013-.02.014-.035.002-.064.01-.064.018 0 .03-.188.081-.346.094-.159.013-.182.02-.346.112-.328.18-.554.333-.554.372 0 .05.183.141.303.15.487.037.53.03.874-.15.141-.074.366-.19.5-.257.221-.111.275-.158.186-.16-.037 0-.103-.044-.103-.068 0-.008.016-.027.035-.041.032-.025.031-.027-.01-.027-.057-.001-.03-.07.035-.09.022-.007.04-.025.04-.04 0-.086.25-.119.446-.06.21.064.423-.017.264-.099-.089-.046-.054-.06.049-.02.19.072.206.059-.448.396-.454.235-.436.218-.345.315.074.079.141.102.242.083.07-.013.094-.033.165-.127l.034-.047.138.044c.075.024.208.073.295.11.087.035.283.11.435.168.153.056.325.124.384.15.134.06.153.059.113-.003a.715.715 0 0 1-.053-.212.751.751 0 0 0-.038-.183c-.01-.013-.01-.033 0-.05.023-.038.004-.16-.031-.199-.033-.036-.038-.097-.009-.097.04 0 .02-.055-.024-.067-.035-.009-.04-.016-.02-.036.038-.037.03-.051-.05-.088a.41.41 0 0 1-.084-.048.18.18 0 0 0-.066-.026 1.053 1.053 0 0 1-.139-.05 2.826 2.826 0 0 0-.355-.12c-.007 0-.013.011-.013.026 0 .02-.027.014-.101-.021-.119-.057-.119-.081 0-.034.144.058.124-.008-.023-.077-.055-.026-.074-.047-.074-.082 0-.036-.021-.057-.09-.09-.087-.042-.18-.142-.16-.174.006-.01-.024-.043-.067-.075a.31.31 0 0 1-.09-.09.158.158 0 0 0-.042-.06c-.024-.02-.021-.005.01.057.06.116.06.116-.108.193-.19.088-.195.087-.245-.01-.047-.093-.043-.105.061-.158.083-.042.09-.058.057-.12-.02-.037-.021-.037-.098.002a.375.375 0 0 1-.105.04c-.033 0-.2-.322-.187-.36.005-.015.046.047.092.137.091.182.084.178.203.125l.086-.039.044.083c.06.113.058.119-.044.168-.083.04-.087.046-.066.093.029.062.031.062.165-.004.127-.062.128-.068.05-.223-.073-.145-.074-.15-.001-.188.084-.043.083-.044.156.119.069.152.082.166.118.123.02-.024-.106-.35-.153-.396-.009-.01-.066.006-.127.033l-.11.049-.039-.063c-.074-.123-.071-.137.042-.2l.11-.062c.014-.011-.039-.088-.06-.088-.035 0-.273.126-.273.144 0 .009.031.077.07.153.083.165.082.148.01.178-.072.03-.159-.053-.159-.15 0-.032.04.003.06.051.014.036.039.06.061.06.048 0 .05.005-.036-.169l-.074-.15.059-.047c.032-.027.047-.049.033-.05-.014 0-.021-.008-.015-.018.007-.01-.006-.024-.027-.03-.022-.008-.044-.039-.051-.073a.12.12 0 0 0-.061-.081c-.026-.012-.048-.037-.048-.055 0-.055.025-.062.048-.015.034.068.21.077.21.01 0-.037.004-.04.021-.015.018.025.02.024.01-.007a.282.282 0 0 1-.012-.044c0-.005-.015-.008-.033-.008-.049 0-.104-.058-.092-.096.007-.02-.002-.014-.022.012-.041.055-.09.057-.104.005-.006-.022-.02-.04-.03-.04-.01 0-.015-.025-.012-.054.004-.031.017-.053.031-.05.036.007.03-.01-.022-.067l-.046-.05-.012.071Zm11.986.35c.01.052.093.136.134.136.015 0 .052.038.081.084.04.062.085.1.171.14.088.042.12.07.13.109.014.052.079.12.116.122.055.001.225-.26.213-.327-.01-.053-.09-.128-.137-.128a.482.482 0 0 1-.12-.046c-.193-.097-.602-.159-.588-.09Zm-11.604.018c0 .01.013.02.03.02.016 0 .03-.01.03-.02 0-.011-.014-.02-.03-.02-.017 0-.03.009-.03.02Zm10.97.06c-.008.012-.009.026-.003.032.014.014.052-.01.052-.034 0-.026-.034-.024-.05.002Zm-.164.042c-.032.032-.03.057.003.044a.045.045 0 0 0 .026-.038c0-.035 0-.035-.03-.006Zm-.122.096c.064.056.114.066.15.03.016-.017.027-.031.024-.032-.055-.013-.076-.01-.076.008 0 .014-.007.012-.018-.005-.01-.015-.042-.03-.07-.033l-.054-.006.044.038Zm-.009.07c-.006.018.003.028.027.028.053 0 .068-.033.022-.045-.022-.005-.043.002-.049.018Zm-.433.128c-.043.05-.042.052.007.065.032.008.036.005.02-.016-.017-.019-.014-.034.01-.058.017-.017.024-.031.014-.031-.009 0-.032.018-.05.04Zm-10.492.01c.008.02-.002.029-.037.029-.026 0-.053.009-.06.02-.017.028-.049.024-.049-.007 0-.054.127-.091.146-.043Zm.354.03c-.048.019-.054.033-.027.075.023.037.089.02.098-.024.01-.05-.019-.07-.071-.05Zm9.97.095c-.081.07-.086.12-.006.063.036-.025.063-.033.07-.021.008.011.022.02.032.02.01 0 .005-.021-.012-.048-.029-.044-.029-.048.005-.057.023-.006.025-.01.006-.01-.017-.001-.059.023-.094.053Zm-8.466.045a.98.98 0 0 0-.321.166.515.515 0 0 1-.164.1c-.145.03-.252.107-.214.152a.934.934 0 0 1 .049.063c.022.032.032.035.056.015.1-.083.47-.084.47-.002 0 .01-.014.011-.03.005-.016-.006-.03-.001-.03.01 0 .013-.014.023-.032.023-.02 0-.027.01-.02.03.006.016.003.029-.008.029-.01 0-.02-.011-.02-.025 0-.015-.01-.011-.026.01a.1.1 0 0 1-.07.035c-.03 0-.039.007-.028.024.028.045.028.09 0 .055a.118.118 0 0 0-.07-.035.287.287 0 0 1-.107-.048l-.06-.043.014.055c.013.052.011.054-.047.041-.069-.015-.075.003-.03.09.017.033.026.068.02.079-.007.01.002.02.02.02.018 0 .095.041.17.093.335.228.54.283.605.163a.922.922 0 0 1 .09-.13c.066-.076.068-.074-.137-.116-.183-.037-.327-.097-.278-.116.017-.006.028-.027.025-.047-.004-.028.012-.038.076-.046.09-.01.128-.073.055-.092-.022-.006-.045-.024-.052-.04-.009-.024-.002-.028.034-.017.024.008.089.022.143.03a.963.963 0 0 1 .129.028c.019.008.158-.08.373-.234.19-.136.354-.251.366-.256.047-.02-.051-.067-.168-.08a.942.942 0 0 1-.172-.034c-.15-.057-.378-.04-.61.045Zm8.615.025c-.018.014-.028.031-.02.039.006.007-.005.013-.026.014-.036.001-.036.002.002.018.053.023.074.024.06.002-.006-.01.004-.028.023-.039.024-.013.029-.026.016-.04-.014-.012-.032-.01-.055.006Zm-.346.118a.528.528 0 0 1-.111.098c-.029.01-.047.053-.024.053.04 0 .11-.053.11-.083 0-.021.009-.033.018-.027.01.006.036-.01.058-.038.021-.027.06-.05.085-.051.044-.001.044-.003.007-.019-.06-.025-.058-.026-.143.067Zm.065.087c-.01.029-.015.03-.031.004-.017-.025-.021-.025-.039 0-.038.06.006.071.153.041.018-.003 0-.035-.033-.054-.03-.02-.04-.018-.05.01Zm-10.605.044c-.01.016-.021.017-.034.004a.037.037 0 0 1-.006-.043c.01-.016.021-.017.035-.004.01.011.013.03.005.043Zm11.858-.01a1.416 1.416 0 0 1-.239.022l-.226.01-.137.13a1.08 1.08 0 0 1-.177.143 2.746 2.746 0 0 1-.501-.028c-.035-.034.045-.05.237-.048.12.002.222-.002.229-.009.007-.007.05-.045.098-.085.108-.093.112-.129.011-.113a2.15 2.15 0 0 1-.38.035.791.791 0 0 0-.193.018c-.013.009-.046.01-.074.003-.029-.007-.063-.003-.079.01a.231.231 0 0 1-.094.034c-.049.006-.058.004-.035-.012.025-.017.024-.02-.005-.02-.02 0-.035.007-.035.017 0 .01-.033.032-.074.05-.04.017-.141.084-.223.15a6.132 6.132 0 0 1-.316.23c-.093.063-.237.17-.32.237a5.08 5.08 0 0 1-.298.222c-.08.054-.158.113-.173.131-.127.153-.196.162-.533.07-.19-.05-.358-.03-.358.044 0 .038-.06.078-.099.065-.022-.007-.04-.02-.04-.027a.54.54 0 0 1 .18-.121c.089 0-.043-.098-.146-.11-.067-.006-.068-.007-.102-.04-.025-.026-.037-.027-.06-.008-.024.02-.2.016-.217-.005-.02-.022-.03-.156-.012-.145.012.007.021.005.021-.006 0-.01-.014-.024-.03-.03-.018-.007-.026-.021-.019-.033.008-.013.039-.001.082.032.038.028.073.048.078.043.017-.017-.178-.148-.24-.161-.047-.01-.078-.002-.135.037-.09.061-.12.064-.092.01.013-.023.014-.04.002-.04a.238.238 0 0 1-.055-.011c-.022-.007-.027-.005-.014.005.023.017.024.136.002.158-.007.007-.02-.004-.027-.025a.223.223 0 0 0-.042-.065.074.074 0 0 1-.018-.063c.011-.043-.006-.05-.135-.055-.139-.006-.284.218-.2.31.03.035.03.04-.009.09-.062.08-.07.067-.086-.13-.015-.206-.03-.233-.12-.233-.05 0-.064-.008-.062-.035.003-.036-.098-.059-.158-.036-.047.018.011.088.08.097.034.004-.017.009-.112.01-.114.002-.174.011-.174.026s.027.018.081.01c.071-.012.083-.009.092.027.007.026.021.037.038.03.095-.038.094-.038.078.001a.625.625 0 0 0-.026.112c-.024.167-.229.12-.516-.118l-.053-.044.079-.003a.808.808 0 0 0 .139-.018l.059-.015-.06-.004a26.134 26.134 0 0 0-1.445-.007l-.675.012.008.052.008.051-.048-.052c-.046-.05-.06-.053-.318-.066l-.27-.015-.079.08c-.158.157-.157.157.584.27.098.015.263.049.366.075.356.093.508.12.593.106.073-.011.088-.007.14.046.035.035.09.065.133.072.12.02.132.026.208.095.04.037.075.063.08.06a.423.423 0 0 1 .112.02c.072.019.122.022.155.01.052-.02.122-.007.122.023 0 .01.01.018.023.018s.04.015.06.034a.18.18 0 0 0 .078.04.396.396 0 0 1 .182.132c.006.018.045.023.129.018.096-.005.124 0 .145.028.02.026.06.037.155.042.171.009.291.036.354.081a.138.138 0 0 0 .107.027.443.443 0 0 1 .162.023c.059.018.117.027.129.02.012-.007.039.002.06.02.02.02.066.038.102.042a.622.622 0 0 1 .153.05.98.98 0 0 0 .197.06c.061.012.146.033.19.048.104.036.23.035.278-.001.055-.042.068-.038.09.029.015.04.035.06.064.06.112.001.16.234.053.262-.028.007-.039.038-.05.155-.033.326-.08.42-.196.394-.064-.015-.071-.013-.062.018.013.039-.147.042-.195.004a.549.549 0 0 0-.2-.046c-.135-.006-.587-.175-.468-.175.055 0 .055-.031 0-.046-.055-.014-.015-.072.05-.072.069 0 .03-.03-.204-.154a.59.59 0 0 0-.16-.064c-.027 0-.039-.013-.039-.045 0-.046-.076-.078-.257-.107a.247.247 0 0 1-.103-.04c-.018-.016-.044-.023-.057-.014-.017.01-.021.002-.013-.028.007-.029.002-.043-.017-.043-.015 0-.028.018-.028.04 0 .025-.008.036-.02.029-.013-.008-.017-.026-.012-.04.006-.016-.017-.049-.052-.077-.076-.06-.063-.078.052-.074.13.005.14-.058.02-.116-.047-.023-.087-.05-.087-.06 0-.037-.094-.019-.104.02-.011.042-.121.053-.168.016-.013-.011-.024-.013-.024-.005s-.015.003-.032-.011a.17.17 0 0 0-.084-.03 9.954 9.954 0 0 1-.087-.006c-.02-.001-.035-.015-.035-.031 0-.055-.139-.042-.182.018-.008.01-.031.003-.056-.02-.024-.021-.046-.036-.05-.034-.03.02-.094-.003-.14-.05-.03-.03-.073-.054-.095-.056a1.566 1.566 0 0 1-.382-.089.451.451 0 0 0-.112-.037.044.044 0 0 1-.038-.025c-.008-.02-.01-.02-.012 0 0 .014-.01.025-.02.025s-.014-.014-.008-.03c.012-.032-.01-.03-.137.003-.043.012-.025.046.024.046.023 0 .04.019.046.051.008.043.003.05-.032.045a.117.117 0 0 0-.064.008c-.012.008-.05.003-.084-.01-.053-.02-.066-.018-.087.011-.02.028-.038.03-.094.016a7.004 7.004 0 0 0-.22-.05l-.15-.032-.012-.113a2.055 2.055 0 0 1 .005-.301c.019-.218.025-.199-.074-.212l-.077-.01-.013.094a3.013 3.013 0 0 0-.013.299c0 .116-.008.204-.019.204-.032 0-.223-.041-.332-.072-.097-.027-.104-.034-.104-.09 0-.067-.01-.066.252-.024l.084.014-.01-.087a1.099 1.099 0 0 1 .006-.22c.017-.134-.001-.186-.026-.074-.007.032-.022.059-.033.059-.011 0-.015.013-.009.03.006.016.003.03-.008.03-.01 0-.019-.014-.019-.03 0-.017-.006-.029-.015-.027a.127.127 0 0 1-.051-.013c-.024-.01-.056-.005-.09.015a.496.496 0 0 1-.145.045c-.07.01-.092.022-.09.046a.494.494 0 0 1-.013.11c-.01.048-.007.2.008.39l.025.312.082.033c.045.018.215.08.378.137.163.057.355.127.427.155.19.077.36.13.576.183.105.026.27.082.366.124.096.043.253.102.348.132.095.03.21.08.254.112.044.032.09.054.103.049.017-.007.017-.01-.001-.011-.014-.001-.025-.016-.025-.032 0-.024.008-.026.038-.01.021.01.052.015.07.008a.064.064 0 0 1 .055.007c.053.041.12.042.197.003.07-.036.082-.037.137-.01.06.03.162.025.21-.012.012-.01.033-.013.045-.005.012.007.063.019.113.026.105.015.142.063.048.063-.033 0-.066-.01-.072-.02-.007-.011-.023-.014-.035-.007a.32.32 0 0 1-.102.018l-.269.014-.242.012c-.081.004-.067.033.053.104.178.106.186.196.025.277a.88.88 0 0 0-.137.087c-.03.025-.123.083-.208.13a4.808 4.808 0 0 0-.292.176c-.249.165-.631.426-.732.5-.055.04-.174.118-.266.175-.314.193-.664.44-.729.514a.349.349 0 0 1-.104.087c-.054.017-.049.036.02.066.063.028.084.102.03.102-.016 0-.03.01-.03.02 0 .012.016.019.035.016.02-.003.033.005.03.019-.007.034.014.03.09-.015.078-.048.085-.049.07-.008-.015.038.025.066.094.067a.31.31 0 0 1 .134.06c.045.032.094.059.11.059s.034.008.04.018c.007.01.06.033.12.05.06.018.109.04.109.05 0 .01.018.024.04.03.114.037.434.29.435.345 0 .045.044.095.089.104.03.005.039.023.039.076 0 .086.037.096.14.038.041-.023.118-.065.17-.092a.506.506 0 0 0 .106-.066.374.374 0 0 1 .103-.051c.05-.02.164-.078.252-.13a.919.919 0 0 1 .189-.095c.016 0 .09-.035.163-.078a1.51 1.51 0 0 1 .174-.09 1.41 1.41 0 0 0 .163-.083c.068-.039.183-.1.256-.138a.44.44 0 0 0 .134-.087c0-.01.015-.019.034-.019.047 0 .361-.156.317-.157-.02 0-.035-.01-.035-.023 0-.012.015-.016.033-.01a.064.064 0 0 0 .058-.009.214.214 0 0 1 .091-.028c.105-.01.107-.012.06-.03-.059-.025-.061-.1-.002-.084.024.006.047.027.052.047.013.05.025.047.121-.023.046-.033.2-.117.344-.187a12.35 12.35 0 0 0 .528-.267c.21-.104.322-.198.155-.13-.026.011-.035.006-.035-.022 0-.052.112-.1.16-.069.046.028.079.03.038.002-.026-.018-.025-.024.008-.044a.57.57 0 0 0 .074-.059.144.144 0 0 1 .051-.035c.009 0 .012-.019.01-.04-.006-.03.004-.039.045-.039.073 0 .128-.034.128-.08 0-.02.01-.038.02-.038.011 0 .02-.013.02-.028 0-.027.135-.071.216-.071.023 0 .041-.01.041-.023s-.005-.018-.012-.011c-.007.007-.026-.001-.042-.017-.026-.027-.023-.035.027-.079.056-.048.056-.048.01-.048-.033 0-.043-.009-.035-.03.006-.016-.01-.044-.038-.066-.054-.043-.063-.082-.019-.082.017 0 .03.01.03.023 0 .018.006.018.022.002.054-.054.45.24.452.336 0 .027-.016.034-.077.034a.425.425 0 0 0-.107.012c-.02.008-.033-.007-.042-.05-.018-.08-.04-.09-.066-.03-.02.04-.017.051.018.07l.041.022-.045.047c-.056.06-.035.06.129-.001.167-.064.21-.064.21-.003 0 .042.012.048.143.068.078.012.205.04.282.062.223.064.711.16 1.177.231.195.03.384.022.476-.019l.051-.023-.087-.082c-.048-.045-.08-.067-.073-.05.043.105.04.11-.053.095-.047-.008-.09-.023-.093-.033-.004-.01-.032-.019-.064-.019-.062 0-.217-.129-.217-.181 0-.026.085-.112.163-.165l.083-.057c.052-.037.053-.037.08 0 .028.036.03.035.03-.007 0-.033.026-.057.102-.096.116-.059.119-.057.154.1.039.175.092.236.216.248.058.006.112.023.12.037.013.02.039 0 .099-.076.084-.106.108-.093.06.033a.558.558 0 0 0-.028.125c-.03.335-.031.397-.013.466.01.043.03.155.043.249.024.18.125.422.177.422.015 0 .03.013.036.028.006.018 0 .024-.018.017-.038-.014-.034.12.004.145.023.014.023.017-.002.018-.02 0-.022.005-.008.015a.13.13 0 0 1 .037.06c.007.024.022.044.033.044.011 0 .033.013.05.03.042.041.086.036.086-.01 0-.022.008-.04.018-.04.01 0 .025-.02.033-.045a.367.367 0 0 1 .059-.098c.105-.126.123-.716.03-.945-.241-.588-.246-.644-.06-.667.227-.027.494-.225.494-.367 0-.098-.16-.314-.294-.394a2.37 2.37 0 0 1-.16-.11c-.058-.044-.108-.065-.154-.065-.176 0-.19-.09-.038-.242.1-.1.137-.165.28-.48a.667.667 0 0 0 .045-.178.372.372 0 0 1 .025-.12c.035-.043.04-.228.01-.29a.292.292 0 0 1-.03-.088c0-.034-.053-.034-.074 0a.295.295 0 0 1-.08.064c-.072.042-.113.139-.077.184.015.02.011.034-.016.054-.036.026-.036.03-.004.065.037.04.018.076-.065.12-.041.023-.08.158-.081.282-.001.226-.044.291-.155.235-.25-.128-.553.276-.613.817l-.013.121-.104.003c-.057.002-.104-.005-.104-.015 0-.036-.041-.016-.063.032-.014.032-.074.075-.172.123-.083.04-.168.09-.189.109-.043.04-.07.045-.07.015a.02.02 0 0 0-.02-.02c-.011 0-.02.014-.02.03 0 .017-.022.04-.05.053-.027.013-.049.038-.049.058 0 .246-1.33-.113-1.416-.383-.014-.043-.015-.043-.033.01-.023.068-.054.052-.054-.026 0-.052.006-.058.064-.059h.064l-.067-.03-.067-.029.013-.174c.032-.417.113-.542.284-.436.035.022.072.035.082.029.01-.006.029.002.042.018.046.055.065.009.051-.123l-.013-.128.095-.086c.176-.159.292-.257.332-.278l.129-.071c.049-.027.133-.066.188-.086a.983.983 0 0 0 .118-.05.575.575 0 0 1 .188-.051c.112-.016.127-.024.1-.055a.444.444 0 0 0-.194-.052.536.536 0 0 1-.071-.027.777.777 0 0 0-.153-.04c-.133-.02-.631-.155-.631-.17 0-.008.046-.02.102-.028a.858.858 0 0 0 .203-.06.839.839 0 0 1 .308-.06c.379-.027.455-.028.455-.01 0 .01.031.012.07.006.08-.013.307.089.356.16.032.045.133-.028.16-.115a.216.216 0 0 1 .04-.071c.053-.057.221-.29.407-.566a3.66 3.66 0 0 1 .288-.381l.102-.104-.112-.108c-.142-.137-.425-.294-.463-.256Zm-.116.088c0 .007-.04.052-.088.1-.109.106-.108.107.082.139.173.028.257.076.184.103a.108.108 0 0 1-.076-.002 2.23 2.23 0 0 0-.374-.073c-.122-.017-.08-.097.139-.26.05-.037.133-.042.133-.007Zm-11.554.32c0 .024-.034.023-.05-.002-.006-.01-.029-.02-.05-.02-.037 0-.05-.021-.027-.044.015-.015.127.043.127.065Zm1.86.003c0 .008-.018.015-.04.015-.022 0-.04.01-.04.02 0 .012-.01.016-.021.008-.016-.01-.014-.019.005-.03.014-.01.018-.018.007-.018s-.003-.014.018-.03c.037-.028.07-.012.07.035Zm8.855.04c.008.008.007.022-.003.032l-.142.128c-.185.167-.304.16-.133-.008l.09-.088-.085-.014a1.545 1.545 0 0 0-.179-.014c-.093-.002-.12-.025-.066-.055.034-.02.497-.002.518.019Zm.65.073c.144.022.191.046.158.079-.012.011-.067.008-.147-.008-.302-.062-.293-.063-.424.059-.085.078-.133.108-.173.108-.079 0-.073-.011.078-.152l.133-.126.119.01c.065.005.18.019.257.03Zm-10.728.163c.08-.004.085.03.008.054a.283.283 0 0 0-.102.061c-.019.022-.043.04-.054.04a.6.6 0 0 0-.115.048c-.108.054-.13.043-.038-.02.08-.052.075-.068-.017-.057-.101.012-.126-.049-.045-.11.046-.035.069-.039.181-.027.07.008.153.013.182.011Zm6.071.06c.035.028.039.114.007.155a.534.534 0 0 0-.05.093c-.033.077-.084.077-.093 0-.005-.046.001-.055.039-.055.034 0 .039-.005.02-.024-.036-.037-.028-.071.021-.08.027-.006.012-.01-.034-.012l-.08-.004.056-.049c.063-.055.071-.057.114-.023Zm.418 0c-.013.012-.024.052-.024.088 0 .077.006.075-.091.033-.05-.021-.066-.036-.047-.043a.2.2 0 0 0 .065-.056c.02-.026.056-.046.079-.046.033 0 .037.005.018.023Zm-.874.198c0 .054-.099.233-.128.233-.032 0-.044-.129-.015-.169.042-.059.143-.104.143-.064Zm.802.095a.51.51 0 0 1 .088.068c0 .022-.104.11-.13.11-.032 0-.037.022-.01.05.012.011-.007.018-.052.018-.095 0-.124-.058-.078-.155a.336.336 0 0 0 .033-.097c0-.071.04-.07.15.006Zm-.5.167a.317.317 0 0 0 .03.083c.037.067.03.111-.014.1-.033-.009-.037-.002-.027.056.014.09-.005.14-.043.109-.023-.02-.026-.015-.018.022l.01.046-.04-.046c-.044-.05-.11-.252-.091-.28.006-.011-.012-.025-.04-.032-.027-.007-.05-.02-.05-.027 0-.033.08-.084.111-.072.022.008.044-.002.063-.03.034-.048.096-.008.109.071Zm-.876-.052c0 .034-.058.065-.098.053-.041-.013-.05-.033-.027-.057.02-.02.125-.016.125.004Zm4.412.043c0 .014-.041.014-.119 0-.005 0 .002-.009.017-.018.03-.02.102-.006.102.018Zm-6.359.064c-.026.126-.037.365-.018.377.031.019.326.076.337.065.022-.022-.02-.049-.109-.07-.065-.016-.1-.037-.114-.067-.01-.024-.032-.043-.048-.044-.025 0-.029-.029-.025-.163.006-.172-.002-.204-.023-.098Zm2.021 0c-.004.013-.029.027-.055.031-.04.006-.043.003-.02-.024.03-.038.087-.043.075-.007Zm.46.104c0 .016-.009.03-.02.03-.01 0-.02-.014-.02-.03 0-.017.01-.03.02-.03.011 0 .02.013.02.03Zm6.489.04c-.035.041-.006.063.032.025.019-.018.024-.036.012-.043-.01-.007-.03.001-.044.018Zm-8.257.102c-.006.006-.007.02 0 .028.013.023.067.022.067 0s-.052-.043-.067-.028Zm2.528.01c-.026.046-.073.095-.092.095-.022 0 .067-.116.09-.118.009 0 .01.01.002.024Zm-2.526.304c-.018.02-.056-.011-.042-.034.008-.014.02-.013.033 0 .012.013.016.027.01.034Zm1.173.038c-.021.025-.017.03.032.03.031 0 .048-.008.037-.016a.205.205 0 0 1-.032-.03c-.006-.008-.023 0-.037.016Zm-2.413.059c.111.027.206.053.21.057.02.02.031.369.013.369-.04 0-.082-.072-.096-.163-.013-.09-.017-.095-.096-.115-.227-.058-.24-.064-.246-.133-.003-.035-.002-.064.004-.064.005 0 .1.022.211.049Zm.662.14.18.037s.01.03.017.066c.016.076-.018.082-.212.037l-.114-.027v.136c0 .239-.09.175-.119-.085-.026-.225-.026-.22.025-.21l.223.046Zm5.58.117c-.018.099-.069.212-.089.2-.018-.012.031-.204.063-.244.033-.04.04-.028.026.044Zm-3.537.04c-.004.052-.013.057-.061.038-.04-.015-.018-.087.028-.087.027 0 .036.013.033.05Zm-.376.035a.04.04 0 0 1-.035.025.04.04 0 0 1-.035-.025c-.005-.015.01-.025.035-.025s.04.01.035.025Zm2.105.138c.007.05.067.068.115.035.026-.018.025-.024-.008-.05-.06-.046-.114-.038-.107.015Zm.212.09c-.017.019-.028.045-.023.059.014.039.083-.008.08-.055-.004-.047-.015-.048-.057-.003Zm-1.461.09c0-.01.008-.003.019.013.025.04.025.1 0 .1-.01 0-.02-.019-.02-.04 0-.027-.013-.04-.04-.04-.022 0-.039-.013-.039-.03 0-.025.008-.026.04-.01.021.012.04.015.04.006Zm2.245.112c.022.037.016.146-.008.155-.014.004-.033.03-.044.058-.01.027-.024.045-.03.039-.006-.006 0-.03.012-.053s.016-.05.01-.062c-.008-.011-.008-.051 0-.089.012-.067.036-.086.06-.048Zm.16.093c-.016.017-.071-.01-.071-.034 0-.014.012-.014.041.001.023.013.037.027.03.033Zm-1.366.28c.01.01.063.024.118.032.063.009.091.007.079-.005a.323.323 0 0 0-.118-.031c-.058-.008-.09-.006-.08.005Zm.187.161c.042.014.037.017-.034.018-.045.001-.088-.007-.095-.018-.014-.023.057-.023.129 0Zm5.134.098c.202.095.24.219.066.219a.387.387 0 0 1-.279-.115c-.128-.12.023-.193.213-.104Zm-5.886.08c0 .011-.029.02-.064.02-.049 0-.057-.005-.035-.02.039-.025.099-.025.099 0Zm-.762.06c.007.01.005.02-.003.022-.106.015-.125.013-.125-.014 0-.032.109-.04.128-.008Zm1 .035c.121.04.14.067.069.1-.042.019-.053.018-.063-.008-.016-.041-.176-.114-.223-.102-.027.007-.035.002-.027-.02.013-.033.074-.025.243.03Zm4.918.02c-.022.02-.037-.014-.021-.05.014-.033.015-.033.024.001.004.02.003.042-.003.048Zm-6.145-.016c0 .011-.03.02-.065.019-.053-.002-.057-.004-.024-.019.055-.023.089-.023.089 0Zm2.81.174a.32.32 0 0 0 .049.016c.046.008.148.058.148.072 0 .024-.029.018-.129-.024a.505.505 0 0 0-.158-.04c-.072 0-.111-.032-.055-.044a.274.274 0 0 1 .144.02Zm1.898.054c.027.032.078.037.176.017.106-.021.068-.047-.07-.047-.113 0-.127.004-.105.03Zm-3.776.075c.03.012.049.032.044.045-.006.014.008.021.037.018.025-.003.08 0 .123.008.088.014.122.062.044.062-.028 0-.056.01-.064.022-.01.016-.001.02.028.012.046-.012.1.105.056.122a.29.29 0 0 0-.056.04.16.16 0 0 1-.052.032.41.41 0 0 0-.062.018l-.049.016.046.037c.05.04.11.048.13.017.014-.022.05-.008.05.02 0 .01-.014.013-.03.007-.016-.006-.03-.001-.03.01 0 .013.01.023.02.023.011 0 .02.012.02.027 0 .02-.031.026-.13.023-.071-.002-.134.004-.14.013-.019.03-.066.015-.066-.022 0-.072-.238-.14-.319-.09-.04.025-.133.03-.146.009-.016-.025-.103-.026-.118-.002-.015.025.03.039.172.052.068.007.135.016.15.02.014.005.02 0 .013-.011-.006-.01.007-.02.03-.02.034 0 .038.007.02.038-.015.03-.011.04.022.048.053.014.033.045-.037.06-.331.069-.638.102-.638.069 0-.01.009-.017.02-.017.01 0 .02-.014.02-.032 0-.022-.011-.027-.035-.018-.028.01-.03.008-.01-.011.013-.014.05-.024.083-.024s.06-.006.06-.012c0-.02-.117-.064-.138-.051-.034.02-.11-.01-.077-.032.022-.014.022-.02.002-.034-.014-.009-.02-.031-.013-.05.017-.044-.003-.041-.056.008-.037.034-.039.043-.015.058.016.01.022.025.014.033-.008.009-.033.005-.054-.008-.059-.038-.097-.03-.118.025-.01.027-.031.05-.047.05a.044.044 0 0 0-.038.024c-.007.016-.011.012-.012-.008 0-.018.01-.038.023-.043.019-.008.019-.01 0-.012-.012 0-.041.018-.063.042-.022.024-.046.037-.053.03-.023-.022.012-.113.044-.113a.18.18 0 0 0 .082-.04.187.187 0 0 1 .094-.039c.024 0 .06-.018.08-.04.02-.022.049-.036.064-.03.016.006.024 0 .02-.014-.005-.014-.059-.034-.12-.044-.17-.03-.156-.049.034-.047.17.001.173 0 .229-.062.03-.035.064-.059.075-.052.01.006.035-.002.055-.018a.206.206 0 0 1 .104-.029c.036 0 .077-.012.092-.027.058-.058.177-.03.184.044.006.058.012.064.05.052a.422.422 0 0 1 .088-.017c.066-.004.053-.032-.015-.032-.04 0-.06-.01-.06-.03a.03.03 0 0 1 .03-.03c.016 0 .03-.008.03-.02 0-.01.028-.014.064-.007.05.008.058.006.035-.011-.08-.06.057-.086.18-.035Zm1.504.094c-.037.022-.07.037-.076.031-.01-.01.092-.07.123-.07.01-.001-.01.017-.047.04Zm-1.447.027c0 .016.009.034.02.041.01.007.02-.006.02-.028 0-.023-.01-.041-.02-.041-.011 0-.02.013-.02.029Zm-.601.063c-.008.021-.002.029.02.024.019-.003.037-.017.042-.03.012-.037-.048-.031-.062.005Zm-.905.02c.058.012.095.087.042.087-.01 0-.02-.014-.02-.032 0-.022-.01-.028-.034-.018-.077.032-.104.033-.132.005-.051-.051.01-.069.144-.042Zm1.946.15c-.024.024-.05.037-.059.028-.008-.008.002-.028.024-.043.06-.044.084-.033.035.015Zm.37-.003c-.046.03-.072.02-.03-.011.021-.016.043-.024.049-.018.006.006-.002.019-.018.029Zm-2.66.02c-.015.024-.069.024-.069 0 0-.02.043-.039.065-.027.008.005.01.017.003.027Zm-.286.018c-.013.023-.033.034-.05.027-.037-.014-.003-.066.043-.066.021 0 .023.009.007.039Zm3.897.002a.329.329 0 0 1-.09.038c-.012 0-.043.023-.068.05-.06.062-.039.062.12-.002.133-.054.176-.08.176-.11 0-.028-.064-.017-.138.024Zm-1.029-.003c0 .022-.06.046-.076.03-.007-.005.001-.019.017-.029.037-.023.06-.024.06-.001Zm-1.661.018c0 .014-.016.023-.035.02-.02-.004-.035.006-.035.022 0 .03.084.045.1.018.006-.01.002-.032-.01-.051-.011-.021-.02-.025-.02-.01Zm1.808.02c-.042.038-.167.104-.166.09.001-.023.12-.102.157-.105.017 0 .02.005.01.015Zm-.266.02c0 .022-.073.072-.133.09-.065.021-.054-.01.02-.06.068-.047.113-.058.113-.03Zm-3.322.305c-.026.025-.04.031-.03.015.027-.053.054-.08.065-.07.006.006-.01.031-.035.055Zm3.48.092c.032.06.027.09-.01.06-.052-.043-.075-.098-.04-.098.016 0 .039.018.05.038Zm-2.562.139c.013.022-.067.085-.253.197-.133.082-.134.082-.257.063a5.327 5.327 0 0 0-.276-.032c-.084-.008-.153-.021-.153-.03 0-.042.075-.048.289-.024l.23.026.17-.109c.168-.106.227-.128.25-.091Zm.44.072c.004.012-.051.06-.122.106-.159.102-.17.085.088.152.207.053.25.075.192.098-.039.015-.595-.101-.603-.126-.011-.034.335-.26.39-.255.026.002.051.014.055.025Zm-1.31.296c.277.023.296.04.155.127-.044.028-.13.085-.19.126-.106.074-.171.087-.187.04-.004-.012.062-.066.146-.118.085-.053.141-.098.125-.1a11.367 11.367 0 0 0-.215-.025 1.088 1.088 0 0 1-.197-.031c-.026-.026.052-.05.136-.04.049.005.15.015.227.021Zm.821.135c.207.043.377.1.37.121-.012.037-.106.033-.224-.01-.266-.094-.29-.093-.484.03-.288.183-.353.138-.077-.053.183-.127.207-.131.415-.088Zm-2.033.245c-.072.006-.083.014-.082.05.002.034.005.036.012.01.01-.04.028-.044.056-.016.012.011.038.004.069-.02.027-.02.045-.037.04-.035a1.22 1.22 0 0 1-.095.01Zm-.015.678c-.006.021-.027.04-.045.041-.019.001-.007.01.025.02.07.02.093.004.077-.057-.014-.054-.04-.056-.057-.004Zm.174.06c.003.039.024.051.04.024.006-.008-.002-.026-.017-.04-.02-.019-.025-.016-.023.016Zm.345-.011c-.02.014-.029.03-.02.037.025.014.072-.018.063-.043-.005-.013-.02-.011-.043.006Zm-1.358.053-.049.039.054-.013c.03-.008.053-.006.053.006 0 .01-.02.025-.045.031-.065.018-.097.015-.084-.007.007-.01 0-.014-.017-.008a.08.08 0 0 0-.04.04c-.007.017-.02.025-.03.019-.023-.015-.067.041-.052.067.007.011-.003.02-.024.02-.036 0-.198.15-.18.167a.485.485 0 0 0 .133-.008.57.57 0 0 1 .15-.008c.014.006.04-.004.056-.02.02-.02.033-.023.038-.01.018.055.135-.002.135-.064 0-.069.047-.13.071-.092.008.013.004.027-.009.031-.042.014-.024.057.022.052a2.09 2.09 0 0 1 .071-.006c.021-.002.022-.008.004-.03s-.016-.032.013-.049c.032-.019.031-.02-.01-.021-.039 0-.053-.02-.046-.065.001-.008-.007-.015-.019-.015s-.016.018-.008.044c.008.032.007.037-.007.018-.01-.015-.029-.021-.04-.014-.013.008-.034.007-.047-.001-.017-.01-.01-.019.02-.026l.046-.011-.055-.053-.056-.053-.048.04Zm.26.037c-.029.046-.03.059-.005.059.026 0 .064-.075.044-.087-.008-.005-.026.007-.04.028Zm.144.02c-.008.024-.027.038-.048.035-.04-.007-.044.003-.028.082.006.033.02.055.028.05.01-.006.012-.024.006-.04-.009-.022.007-.03.065-.032.06-.002.064-.005.022-.011-.062-.01-.068-.029-.025-.072.034-.034.038-.053.011-.053-.01 0-.024.019-.031.041Zm.722.005c0 .019-.01.034-.023.034-.018 0-.018.006-.002.021.04.04.087-.004.053-.05-.024-.033-.028-.034-.028-.005Zm.08.004c0 .016.008.03.02.03.01 0 .019-.014.019-.03s-.009-.03-.02-.03c-.01 0-.02.014-.02.03Zm.184.006c-.015.01-.014.02.005.038.03.028.053.006.031-.03a.026.026 0 0 0-.036-.008Zm-1.411.053c.023-.02.04-.025.049-.01.007.01.003.02-.008.02-.012 0-.021.027-.021.06 0 .072-.03.078-.048.01-.007-.028-.021-.05-.032-.05-.01 0-.019-.016-.019-.035 0-.032.002-.032.022.002.02.033.023.034.057.003Zm.673.01c.014.027.014.04 0 .04-.011 0-.02.01-.02.022 0 .015.009.015.03-.002.023-.02.031-.019.04.007.008.019.035.032.065.032.052 0 .052-.001-.011-.032-.035-.018-.069-.048-.075-.069-.007-.02-.021-.037-.032-.037s-.01.015.003.04Zm-1.256.049c.028.041.04.046.073.028.045-.024.029-.046-.05-.065-.055-.013-.055-.013-.023.037Zm1.642.031c.007.011.002.033-.01.048-.018.022-.015.025.016.017.039-.01.039-.085 0-.085-.01 0-.013.009-.006.02Zm-.09.048c0 .026-.015.057-.034.068-.03.017-.025.02.024.02.033 0 .05-.005.039-.01-.012-.005-.018-.035-.013-.068.005-.032.003-.059-.004-.059-.006 0-.012.022-.012.049Zm-.158-.008c-.044.009-.053.014-.025.016.044.003.066.042.024.042-.012 0-.015.01-.008.02.007.013.029 0 .052-.03.049-.061.046-.065-.043-.048Zm.099.019c0 .037.005.042.024.023.018-.018.018-.029 0-.047-.019-.019-.024-.013-.024.024Zm-.584.356c-.007.01.002.025.02.032.038.015.059-.002.04-.03-.016-.027-.044-.028-.06-.002Z" clip-rule="evenodd"/><path fill="#F1F1F1" fill-rule="evenodd" d="M6.474 7.82c-.023.039-.031.136-.014.163.015.023.02.015.02-.033 0-.115.048-.173.066-.08.007.037.009.036.01-.01.003-.053-.057-.082-.082-.04Zm.087.14a.355.355 0 0 0 .148.288c.162.102.28.264.451.617.065.135.163.288.265.414.067.083.175.273.203.356a.175.175 0 0 0 .082.1c.103.054.097.007-.023-.18a.397.397 0 0 1-.057-.144c-.004-.052-.036-.097-.148-.208-.19-.188-.368-.448-.368-.534 0-.048-.226-.32-.341-.41-.123-.098-.151-.135-.185-.244-.014-.045-.026-.07-.027-.055Zm-.08.1c0 .06-.05.087-.13.072-.087-.016-.137.013-.226.132l-.064.085.066-.072c.107-.116.198-.147.245-.082.022.03.029.028.076-.025.044-.05.072-.147.042-.147-.005 0-.01.016-.01.037Zm-.07.397a.155.155 0 0 0 .008.094c.016.028.02.016.021-.059.001-.107-.01-.12-.029-.035Zm11.456.055c-.052.015-.09.031-.085.036.005.005.037-.001.072-.013.066-.023.753-.015.853.01.027.007.018 0-.02-.015-.103-.04-.698-.054-.82-.018Zm1.127.124c.032.021.068.04.079.04.01 0-.007-.019-.04-.04a.255.255 0 0 0-.079-.04c-.01 0 .007.018.04.04Zm-12.172.19c-.19.104-.183.088-.095.263.077.153.047.256-.043.145-.025-.03-.025-.029-.004.015a.688.688 0 0 0 .028.055c.01.012.109-.042.109-.059a.875.875 0 0 0-.06-.137c-.079-.154-.075-.165.087-.25.13-.069.137-.07.163-.034.044.06.033.082-.067.14-.051.03-.097.056-.1.06a.47.47 0 0 0 .076.186.934.934 0 0 0 .126-.05l.112-.05.09.193c.092.2.1.248.042.26-.027.004-.052-.03-.104-.144l-.07-.15-.063.032a.95.95 0 0 0-.07.038.823.823 0 0 0 .064.145c.09.178.093.164-.063.237-.123.057-.136.06-.158.029-.044-.06-.028-.096.065-.14.083-.041.088-.048.066-.089-.034-.066-.042-.07-.028-.014.011.044.003.054-.069.086-.102.045-.111.068-.06.156l.042.07.153-.07a2.7 2.7 0 0 0 .16-.077.635.635 0 0 0-.056-.146c-.061-.132-.068-.198-.021-.198.011 0 .051.067.088.149a.526.526 0 0 0 .084.147c.046-.002.21-.053.193-.06a1.826 1.826 0 0 1-.143-.26 1.721 1.721 0 0 0-.139-.252.847.847 0 0 0-.12.06.618.618 0 0 1-.112.053.395.395 0 0 1-.049-.11c0-.01.054-.042.119-.071.136-.061.133-.054.074-.165-.054-.103-.047-.103-.247.007Zm10.388.017c-.089.06-.167.117-.175.129-.007.012.029-.008.08-.044a.36.36 0 0 1 .219-.075c.136-.01.18-.045.07-.055-.053-.006-.06-.011-.041-.035.036-.043.021-.036-.153.08Zm.547-.077c0 .02.015.029.043.025.064-.01.07-.056.008-.056-.033 0-.05.01-.05.03Zm1.538.171c-.038.1-.22.274-.273.262-.06-.013-.111.045-.09.101.007.017-.001.028-.02.028-.016 0-.026.011-.021.025.01.026-.057.126-.148.221a.242.242 0 0 0-.056.076c0 .01-.01.01-.023.003-.014-.01-.017-.006-.007.01.009.015.006.032-.006.039-.011.007-.014.024-.006.037.01.016.076-.058.192-.214a4.61 4.61 0 0 1 .276-.341c.122-.126.216-.249.203-.263-.006-.005-.015.002-.02.016Zm-13.33.06c0 .024-.004.093-.01.153-.006.072-.004.095.008.07.019-.044.03-.268.013-.268-.005 0-.01.02-.01.045Zm10.97.06-.058.064.064-.059a.49.49 0 0 0 .065-.064c0-.015-.017-.002-.07.058Zm-9.37.271c.025.033.037.06.028.06-.009 0-.032-.027-.051-.06-.02-.032-.032-.06-.028-.06s.027.028.051.06Zm9.43.021c-.007.012-.008.026-.002.033.016.016.072-.01.072-.033 0-.027-.053-.027-.07 0ZM6.75 9.437c-.053.025-.088.05-.079.056.01.005.055-.008.102-.03.047-.021.098-.034.113-.028.017.006.023 0 .016-.019-.015-.037-.038-.034-.152.02Zm1.052.023c-.024.03-.023.03.023.007.066-.034.071-.04.035-.04-.017 0-.043.015-.058.033Zm-.138.032c.01.01.039.014.064.01.04-.006.037-.009-.018-.018-.039-.006-.057-.003-.046.008Zm9.663.095-.115.1-.198-.003c-.293-.006-.355.012-.106.03l.226.02c.095.011.33-.138.362-.229.017-.049-.065-.009-.169.082Zm.36.05c-.13.117-.128.146.01.146.038 0 .134.015.212.033.08.019.15.028.157.02.023-.022.003-.029-.179-.06-.22-.039-.215-.031-.089-.15.098-.09.102-.098.057-.098-.032 0-.09.038-.168.108ZM7.57 9.618c0 .014-.015.02-.031.013-.016-.006-.03 0-.03.012 0 .013-.009.017-.02.01-.01-.006-.02-.002-.02.01 0 .011.01.02.02.02.011 0 .02.01.02.022 0 .027.08.096.114.096.03.001.033-.09.004-.109a.138.138 0 0 1-.039-.055c-.01-.023-.018-.032-.018-.019Zm-1.58.065c0 .038.004.054.01.035a.163.163 0 0 0 0-.07c-.006-.018-.01-.003-.01.035Zm.02.149c0 .043.005.059.01.034a.216.216 0 0 0 0-.079c-.006-.019-.01.001-.01.045Zm12.5.099a.446.446 0 0 0-.078.089c.005 0 .049-.04.097-.09a.45.45 0 0 0 .078-.088c-.006 0-.05.04-.098.089Zm-1.95-.048c-.005.008.068.02.164.029.226.018.227.02.102.13-.074.067-.096.096-.072.096.047 0 .321-.235.287-.246-.049-.015-.473-.024-.482-.01Zm-8.156.043c-.063.03-.055.043.036.067.073.02.077.019.052-.01a.218.218 0 0 1-.036-.055c-.005-.015-.02-.016-.052-.002Zm8.844.117c-.128.115-.142.135-.094.135a.524.524 0 0 0 .155-.108c.136-.121.116-.119.417-.057.12.024.174.024.148-.002a2.682 2.682 0 0 0-.438-.07c-.061 0-.093.017-.188.102Zm-5.258.002a17.02 17.02 0 0 0-.209.035c-.06.01-.153.019-.206.019-.052 0-.091.005-.085.01.04.04.819-.013.863-.058.037-.037-.144-.04-.363-.006Zm.567.006c.023.023.05.027.103.017.106-.02.088-.048-.031-.048-.094 0-.1.002-.072.03Zm.22-.019c.008.007.1.017.207.02.174.008.342.03.45.06.022.007.035.006.028-.002-.033-.035-.35-.09-.517-.09-.099 0-.174.005-.167.012Zm-4.046.023c.044.014.043.016-.025.07-.122.097-.194.297-.139.382.019.028.023.05.01.057-.012.008-.008.028.01.055.047.066.036.085-.02.034-.047-.045-.049-.045-.049-.006 0 .022.014.052.03.065.018.016.03.06.03.116 0 .152.054.481.082.507.038.034.471.195.486.18a1.74 1.74 0 0 0-.011-.294c-.045-.533-.026-.743.067-.732.032.004.03 0-.008-.018-.087-.044-.003-.25.135-.332.066-.04.067-.04.013-.028-.037.009-.062.004-.073-.013-.011-.02-.075-.027-.23-.029a2.38 2.38 0 0 1-.283-.015c-.038-.008-.05-.007-.025 0Zm.786.064a.679.679 0 0 0 .139.015c.075 0 .076-.001.02-.015a.686.686 0 0 0-.139-.015c-.075 0-.076 0-.02.015Zm.548.014c.138.004.37.004.514 0 .145-.003.032-.006-.25-.006-.284 0-.402.003-.264.006Zm2.93.157c-.019.007-.016.021.009.055l.034.044.025-.048a.33.33 0 0 0 .025-.056c0-.01-.063-.007-.093.005Zm-.65.048c-.015.025.03.06.055.045.008-.005.016-.022.016-.038 0-.034-.051-.038-.071-.007Zm.184.073c-.032.02-.054.05-.054.077a.258.258 0 0 1-.013.076c-.01.025-.003.032.024.026.024-.004.05-.042.073-.103.043-.114.04-.118-.03-.075Zm.429.012c-.017.043.005.066.036.036.018-.018.018-.03 0-.047-.018-.018-.026-.015-.036.01Zm-5.42.017c-.123.044-.575.287-.56.301.01.01.63-.302.63-.317 0-.005-.002-.008-.005-.007-.003 0-.031.011-.064.023Zm7.523.06c-.062.06-.062.061-.005.014l.079-.064c.01-.008.012-.015.005-.015a.316.316 0 0 0-.08.065Zm-9.016-.005c-.038.02-.062.038-.053.038a.353.353 0 0 0 .132-.069c0-.013 0-.012-.079.03Zm7.364.04c.004.015.02.03.034.035.015.005.023-.002.018-.017a.062.062 0 0 0-.035-.035c-.015-.005-.022.002-.017.017Zm5.731.024c-.152.213-.178.252-.17.252a.86.86 0 0 0 .101-.122l.091-.123v.175c0 .226.012.211.026-.034.01-.2.005-.22-.047-.148Zm-9.481.05c-.007.04-.013.141-.013.224a.734.734 0 0 1-.01.16.949.949 0 0 1-.262-.035c-.04-.011-.045-.006-.045.046 0 .058.004.06.168.101.268.068.258.073.258-.13 0-.096.007-.234.015-.307l.015-.134h-.057c-.05 0-.059.008-.07.074Zm-3.903 0c-.181.097-.2.126-.027.041.19-.093.195-.096.156-.096a.514.514 0 0 0-.129.054Zm4.21 0a2.19 2.19 0 0 0-.013.31v.277l.197.044c.258.057.248.058.248-.023 0-.05-.01-.07-.031-.07-.017 0-.094-.014-.17-.031l-.141-.032.012-.2c.007-.111.014-.219.018-.24.007-.052-.1-.083-.12-.034Zm3.262.003c-.014.025-.014.043-.001.05.026.017.06-.005.06-.039 0-.046-.037-.053-.06-.011Zm1.245.001c.068.022.12.022.07 0a.231.231 0 0 0-.08-.016c-.031 0-.03.003.01.016Zm.427.01a.148.148 0 0 1-.073.03c-.02 0-.04.009-.047.02-.024.039.06.018.119-.03.063-.052.064-.067 0-.02Zm-2.223.013c-.018.018-.008.033.039.065l.113.075c.108.073.17.008.076-.078-.09-.082-.182-.107-.228-.062Zm-6.121.319c-.282.148-.353.203-.124.096a.903.903 0 0 1 .155-.062c.012 0 .034-.018.047-.04.03-.048.097-.05.152-.004.04.034.04.034.006-.007-.046-.054-.044-.061.02-.096.03-.016.045-.03.034-.03-.01 0-.141.064-.29.143Zm12.325-.02c-.067.102-.082.147-.029.084.043-.051.081-.129.063-.129a.186.186 0 0 0-.034.045Zm-1.707.193c-.032.032-.049.059-.039.058.021 0 .128-.09.128-.107 0-.026-.037-.006-.09.049Zm.431-.002c-.023.022-.048.033-.056.025-.009-.007-.01.002-.003.021.008.022.003.035-.014.035-.015 0-.033.02-.04.044-.009.034-.016.038-.029.018-.014-.021-.019-.02-.028.003-.013.036.067.063.087.03.009-.014.017-.008.023.016.008.029.01.026.012-.012a.403.403 0 0 1 .051-.134c.055-.095.054-.099-.003-.046Zm-9.136.249c.184.09.493.186.518.161a1.302 1.302 0 0 0-.195-.06 1.012 1.012 0 0 1-.235-.082 1.326 1.326 0 0 0-.295-.127c-.006 0 .087.05.207.108Zm10.258-.02c0 .053.006.09.014.082.014-.015.01-.153-.005-.168-.005-.005-.01.034-.01.086Zm.407.012a.249.249 0 0 0-.004.091c.005.005.015-.028.022-.073.008-.045.01-.086.005-.091-.005-.005-.015.028-.023.073Zm-13.598-.047c.051.004.136.004.188 0 .051-.004.01-.007-.094-.007s-.146.003-.094.007Zm3.813.014c0 .074.045.108.187.141.156.037.156.037.178.17.011.066.059.134.08.113a.915.915 0 0 0-.006-.175l-.014-.166-.178-.045c-.173-.044-.247-.056-.247-.038Zm3.61.121c-.028.022-.032.034-.014.042.014.005.025.031.025.058 0 .054.029.063.055.016.021-.038.103-.021.103.02 0 .015.014.032.032.04.017.006.027.024.02.04-.007.02-.001.025.021.016.018-.007.042.002.055.02.022.03.035.03.128.006l.104-.027.028.067a.22.22 0 0 1 .016.114c-.013.053.044.092.063.042.016-.04.095-.024.104.02.005.024-.002.032-.022.024-.02-.008-.03.005-.03.047-.003.088-.02.103-.106.09-.138-.023-.093.07.047.097.07.013.074.01.074-.04 0-.073.04-.105.127-.105.06 0 .072.006.062.032-.01.028-.007.028.016-.002.015-.019.036-.034.048-.034.03 0 .066-.115.041-.13-.01-.007-.017-.045-.013-.085.005-.061 0-.073-.037-.078a.156.156 0 0 1-.077-.045c-.019-.02-.049-.038-.066-.039a.5.5 0 0 1-.214-.082.246.246 0 0 0-.105-.042 1.21 1.21 0 0 1-.315-.082c-.074-.039-.122-.039-.17 0Zm-2.97.167c.013.173.036.238.086.238.027 0 .03-.019.02-.129-.014-.146-.022-.141.154-.098.162.039.168.038.168-.03 0-.045-.01-.061-.044-.068a40.7 40.7 0 0 1-.187-.04c-.223-.048-.212-.056-.197.127Zm7.876-.143.059.008-.045.034c-.063.048-.038.11.038.094.08-.016.19.024.154.056-.063.055-.131.07-.142.029-.005-.021-.024-.038-.042-.038-.02 0-.027.01-.02.022.01.015.003.015-.026 0-.021-.011-.044-.015-.051-.008-.007.007-.013.003-.013-.01 0-.011.01-.024.024-.029.017-.005.018-.011.002-.021-.032-.02-.164.111-.164.162 0 .023-.01.042-.02.042-.029 0-.024.094.005.106.017.007.015.01-.005.01a.118.118 0 0 1-.058-.016c-.018-.011-.044-.007-.074.013-.042.027-.046.027-.046-.004 0-.023-.01-.03-.031-.022a.236.236 0 0 1-.07.012c-.022 0-.035.008-.03.017.017.026-.045.139-.087.162-.022.011-.033.032-.027.049.007.016.002.03-.01.03s-.02.02-.02.044c.005.136-.03.172-.17.173a.417.417 0 0 0-.156.03c-.053.027-.062.027-.107-.005-.11-.079-.133-.086-.229-.075-.06.008-.106.003-.123-.01-.047-.04-.244-.003-.329.06-.067.049-.116.05-.166.003-.021-.02-.049-.032-.061-.028-.013.004-.029-.011-.036-.033-.007-.023-.023-.041-.036-.041a.36.36 0 0 1-.067-.012c-.052-.014-.075.055-.096.293-.015.175-.002.253.043.253.017 0 .054.018.081.04.048.038.049.04.008.04-.157 0 .128.208.435.318.383.136.91.15.804.021a1.04 1.04 0 0 0-.312-.142.33.33 0 0 1-.101-.03l-.067-.031.09.012.197.022.168.017c.07.007.11-.019.11-.072 0-.02.009-.037.02-.037.012 0 .016-.016.009-.04-.015-.047.004-.05.05-.008.032.029.036.026.049-.05.007-.044.02-.075.03-.07.01.007.035 0 .057-.013.05-.032.064-.017.07.076.004.061.013.077.05.082.05.008.159-.032.159-.058 0-.01.012-.018.027-.018a.19.19 0 0 0 .079-.04c.029-.023.052-.033.052-.023 0 .01.022.014.05.009.028-.006.049 0 .049.012 0 .013.023.023.052.023.05 0 .052-.004.04-.086-.007-.057-.002-.099.016-.124.014-.021.05-.11.08-.196.062-.186.153-.34.274-.467.07-.073.085-.102.078-.143-.014-.073.093-.04.195.06.073.07.12.062.09-.018-.004-.014 0-.043.011-.065.02-.039.02-.039-.021-.003-.055.05-.133.03-.17-.043a.317.317 0 0 0-.064-.084c-.022-.018-.03-.02-.02-.004.008.014.006.025-.006.025-.011 0-.02-.012-.02-.028 0-.054-.373-.232-.474-.226-.047.003-.047.004.007.012Zm-8.793.094c.09.035.126.034.05 0a.283.283 0 0 0-.09-.027c-.016 0 .002.012.04.027Zm6.7.04a.188.188 0 0 0-.011.065c0 .018.01.007.019-.025.019-.063.012-.093-.008-.04Zm-1.498.08c-.021.026-.02.034.003.05.045.028.083.021.07-.014a.178.178 0 0 1-.012-.049c0-.028-.032-.021-.06.013Zm4.77.052a.714.714 0 0 1-.08.164c-.03.043-.078.126-.107.184-.042.083-.064.107-.113.116-.135.027-.116.173.02.161.066-.005.071-.01.066-.062-.008-.072.028-.052.045.025a.198.198 0 0 0 .049.09c.03.027.027.016-.011-.061-.077-.151-.054-.287.08-.462.048-.064.103-.212.085-.23-.005-.005-.02.03-.034.075Zm-1.207-.004c0 .022-.008.04-.018.04-.026 0-.063-.052-.048-.067.027-.027.066-.011.066.027Zm.343.06a.138.138 0 0 0-.056.037c-.007.012-.028.021-.046.021-.026 0-.023-.009.016-.039a.177.177 0 0 1 .089-.038c.037.001.037.002-.003.018Zm-3.878.048a.222.222 0 0 1 .013.042c0 .005.014.008.031.008.044 0 .027-.067-.02-.076-.027-.005-.034.001-.024.026Zm3.726.075c-.039.075-.116.176-.126.166-.014-.014.032-.095.089-.156.062-.066.068-.068.037-.01Zm-7.947.024c.112.058.33.13.384.127.04-.002.04-.003.002-.011a3.643 3.643 0 0 1-.39-.138.242.242 0 0 0-.07-.026c-.008 0 .025.022.074.048Zm3.9.23c-.029.094-.047.098-.072.014-.023-.075-.06-.093-.075-.035-.01.037-.016.039-.055.018-.042-.022-.043-.02-.03.041a.714.714 0 0 1 .012.083c0 .01.008.013.018.007.01-.007.024.005.03.026.014.042.113.07.133.038.007-.012.02-.006.033.016.014.025.039.035.08.032.033-.003.065.003.07.013.007.01.03.014.052.008.023-.006.039 0 .039.013 0 .015.027.021.074.017l.074-.006.024-.129c.044-.234.035-.245-.14-.17a.512.512 0 0 1-.092.032c-.009 0-.02.011-.025.025-.005.013-.015.018-.024.01-.008-.008-.003-.03.012-.047.025-.03.023-.032-.017-.02-.032.011-.044.007-.044-.014 0-.067-.055-.048-.078.028Zm3.411.29c.08.086.086.113.024.097a.38.38 0 0 0-.075-.013c-.066 0-.102-.047-.08-.104.027-.072.05-.068.131.02Zm.318.218c-.022.02-.033-.009-.018-.047.014-.036.015-.036.022-.001.004.02.002.041-.004.048Zm-.927 0c.005.014-.009.024-.033.024s-.041-.012-.041-.03c0-.037.062-.032.074.006Zm2.17.092c-.02.052.063.124.172.15.173.042.21-.015.067-.105-.112-.071-.222-.092-.24-.045Zm-2.857.172c.066.038.067.039.012.027a12.683 12.683 0 0 0-.114-.023c-.031-.006-.057-.019-.057-.028 0-.03.087-.018.159.024Zm-.76.166c.007.016.024.03.04.03.015 0 .027-.014.027-.03s-.017-.03-.039-.03c-.026 0-.035.01-.027.03Zm3.85.123c-.07.038-.122.073-.116.078.01.011.226-.108.242-.134.013-.022.022-.026-.127.056Zm-1.35-.025-.096.054c-.088.047-.017.33.108.429.06.047.168.044.269-.006.08-.04.152-.04.199.002.033.031.036.031.024.001a.089.089 0 0 0-.05-.045c-.022-.006-.038-.022-.036-.035.007-.06-.007-.07-.105-.077-.121-.007-.17-.06-.223-.245a.764.764 0 0 0-.036-.106.513.513 0 0 0-.053.028Zm-6.489.043c-.114.065-.434.307-.336.255.016-.01.065-.045.109-.08.043-.034.13-.092.193-.127a.691.691 0 0 0 .124-.082c.016-.025.011-.023-.09.034Zm4.195-.004c0 .037.094.11.14.11.051 0 .047-.032-.01-.09-.054-.053-.13-.065-.13-.02Zm2.037.15c-.026.037-.037.074-.03.099.009.025.004.04-.013.041-.014.001-.004.008.024.016.027.008.049.027.049.042 0 .018.023.032.056.036.063.007.064-.08.002-.23-.032-.078-.035-.078-.088-.004Zm-2.472.022c-.07.07-.072.123-.004.133.09.013.044.082-.09.138a.466.466 0 0 0-.117.057c.013.013.273-.094.328-.135.031-.023.065-.037.075-.03.01.006.061-.002.114-.018a.906.906 0 0 1 .214-.029c.066 0 .113-.006.106-.013-.008-.007 0-.029.018-.047.063-.07-.003-.07-.18.001l-.125.048-.086.032.007-.072c.005-.064 0-.074-.06-.099-.097-.04-.131-.035-.2.034Zm.716.11c.02.005.05.005.07 0 .019-.005.003-.009-.035-.009-.038 0-.053.004-.035.01Zm-4.96.05a4.05 4.05 0 0 0-.366.267c0 .005.055-.03.123-.079l.203-.141c.107-.073.127-.097.04-.047Zm5.466.066a.6.6 0 0 0 .158.039l.093.009-.109-.026c-.06-.014-.13-.032-.158-.04-.032-.008-.026-.002.016.018Zm2.029.227c0 .081.003.115.007.074a.855.855 0 0 0 0-.149c-.004-.04-.007-.007-.007.075Zm-3.613-.068c-.076.041-.068.056.01.016.075-.038.088-.048.063-.046a.287.287 0 0 0-.073.03Zm-4.51.175a2.665 2.665 0 0 0-.332.26c0 .012.196-.13.21-.152.005-.01.039-.03.073-.045.073-.032.152-.09.123-.09a.24.24 0 0 0-.073.027Zm.984.321c-.076.051-.178.103-.227.116l-.088.023.072.014c.072.013.43-.176.43-.227 0-.037-.053-.016-.187.074Zm7.158.056c0 .066.004.09.008.054a.528.528 0 0 0 0-.118c-.005-.03-.008 0-.008.064Zm-6.763.021c-.198.136-.198.136-.025.166.08.014.196.038.26.053.13.031.22.036.171.01a1.904 1.904 0 0 0-.208-.062c-.231-.06-.231-.059-.08-.16a.643.643 0 0 0 .13-.102c0-.042-.107 0-.248.095Zm2.078-.01c-.098.056-.187.11-.198.122-.011.011.042-.013.119-.055.241-.133.297-.166.277-.166-.011 0-.1.045-.198.1Zm-3.16.022c-.012.007.03.019.095.026.064.007.15.017.191.023.04.006.074.003.074-.008 0-.022-.33-.06-.36-.041Zm-.986.11-.068.075.074-.068c.069-.064.083-.08.068-.08a.683.683 0 0 0-.074.074Zm.71.081c.016.01.112.026.214.033.227.017.231.033.037.148a.644.644 0 0 0-.149.103c0 .035.066.013.172-.058.298-.198.296-.191.051-.21a7.775 7.775 0 0 1-.262-.024c-.06-.007-.08-.005-.062.008Zm.835.156a.762.762 0 0 0-.084.07c-.02.019-.047.035-.06.036-.038 0-.14.091-.12.104.01.007.063-.018.116-.056.054-.037.12-.077.147-.09a.375.375 0 0 0 .083-.052c.023-.02.052-.026.086-.017.034.008.048.006.04-.008-.02-.032-.155-.024-.208.013Zm1.255.32c-.763.39-1.24.637-1.267.658a1.48 1.48 0 0 1-.357.123.496.496 0 0 0-.206.073 1.072 1.072 0 0 1-.24.098.11.11 0 0 0-.055.027.573.573 0 0 1-.143.06c-.11.034-.209.09-.16.09.014.001.025.01.025.021 0 .013-.012.014-.035.002-.172-.094-.943-.15-1.509-.11-.354.025-.388.018-.315-.063l.048-.053-.063.046c-.103.075.06.188.308.215.094.011.154.03.21.07.043.029.096.05.118.047a.077.077 0 0 1 .065.024c.021.026.024.026.025-.005 0-.046.064-.044.107.003.027.03.028.04.008.048-.014.006.003.011.037.012.035 0 .07-.009.077-.02.015-.025.193-.016.507.026.182.024.293-.001.357-.08.02-.026.02-.028-.005-.016-.016.008-.012 0 .01-.017.065-.054.215-.122.25-.114.071.016.387-.155.362-.196-.006-.009-.002-.017.009-.017.01 0 .044-.02.075-.046a.92.92 0 0 1 .36-.14c.13-.019.317-.102.44-.198.062-.048.213-.135.337-.194.123-.059.237-.122.251-.14a.37.37 0 0 1 .129-.065.905.905 0 0 0 .19-.093c.047-.033.162-.09.254-.126.138-.054.284-.142.409-.248.037-.031-.007-.01-.613.299Zm6.628-.053a1.008 1.008 0 0 1-.163.31l-.049.065-.044-.041a.57.57 0 0 1-.09-.14c-.026-.054-.05-.095-.054-.09-.044.043.175.309.227.276.077-.049.234-.399.196-.437-.005-.005-.015.02-.023.057Zm-11.092.599c-.066.045-.108.104-.088.124.004.005.014-.01.021-.032.007-.022.043-.059.081-.082a.289.289 0 0 0 .068-.05c0-.014-.008-.01-.082.04Zm.003.377c.037.038.072.069.077.069.006 0-.02-.031-.057-.07a.433.433 0 0 0-.077-.069c-.006 0 .02.032.057.07Z" clip-rule="evenodd"/><path fill="#747473" fill-rule="evenodd" d="M6.49 7.872a.32.32 0 0 0-.003.104c.007.048.008.045.011-.019.003-.084.042-.083.042 0 0 .03.006.047.012.04.018-.017-.012-.172-.033-.172-.01 0-.023.02-.03.047Zm.076.2c.003.04-.006.06-.028.065-.025.005-.03-.007-.025-.05.005-.042.004-.045-.007-.014-.034.094-.105.16-.133.123-.121-.167-.364.153-.379.499-.004.103-.013.268-.02.366-.018.295-.016.348.018.554.018.109.037.246.043.305.008.085.023.121.07.17.033.034.06.075.06.09 0 .017.016.063.037.103l.037.072-.068.069a.753.753 0 0 1-.23.132 1.5 1.5 0 0 0-.202.093l-.04.028.04-.01c.022-.006.107-.016.188-.023.15-.013.337-.064.337-.093 0-.009.028-.017.064-.018.054-.002.057-.004.02-.015-.053-.015.024-.104.14-.16.077-.04.091-.08.026-.08-.027 0-.052.01-.056.021-.005.015-.024.015-.063 0-.048-.019-.054-.017-.044.014.007.023-.005.041-.038.057-.027.013-.045.016-.04.008.005-.008-.006-.036-.024-.062a.17.17 0 0 1-.029-.097c.003-.032-.015-.071-.05-.11-.105-.112-.131-.167-.104-.218.025-.046.013-.204-.02-.266-.044-.081-.024-1.147.02-1.147.01 0 .02-.023.023-.05.004-.028.015-.048.026-.045.02.006.021.02.007.074-.013.054.061.046.082-.009.03-.076.102-.061.13.028.057.173.137.143.121-.046a.966.966 0 0 1 .003-.206l.013-.066.045.051c.05.058.055.073.02.066-.014-.003-.028.019-.031.05-.004.03.002.054.012.054s.024.017.03.04c.013.052.062.05.104-.006.02-.026.028-.03.022-.011-.013.037.042.095.09.095.017 0 .036.014.042.032.018.047.014.061-.007.028-.016-.024-.02-.021-.02.015 0 .067-.175.058-.209-.01-.024-.048-.048-.04-.048.015 0 .018.021.042.047.054a.12.12 0 0 1 .061.082c.008.034.03.065.052.072.02.006.033.02.027.03-.006.01-.001.019.012.019.016 0 .015.01-.004.033-.015.018.04-.004.124-.05.184-.1.175-.1.23.002.058.11.062.104-.074.165-.129.057-.13.06-.096.136.024.053.046.063.066.03.007-.01 0-.02-.017-.02-.033 0-.061-.058-.038-.08.043-.041.094-.028.094.024v.053l.073-.038a.571.571 0 0 1 .084-.038c.005 0 .066.114.134.253.069.138.133.255.144.26.016.007-.147.058-.193.06a.526.526 0 0 1-.084-.147c-.037-.082-.077-.149-.088-.149-.047 0-.04.066.017.19.074.157.074.155.017.182-.024.012-.035.022-.023.023.078.005.098-.053.051-.15-.031-.064-.036-.086-.015-.069.017.014.035.04.041.059a.31.31 0 0 0 .09.09c.042.032.073.065.067.074-.02.032.072.132.16.175.068.033.09.054.09.09 0 .035.018.056.073.081.148.07.167.136.024.078-.12-.047-.12-.023 0 .034.074.035.1.04.1.02 0-.014.006-.026.014-.026.025 0 .273.084.355.12.045.02.107.043.138.05.031.008.061.02.067.027a.414.414 0 0 0 .084.047c.08.037.088.051.05.089-.02.02-.015.027.02.036.024.006.044.027.044.046s.018.05.04.07c.046.042.051.017.009-.044-.019-.027-.022-.047-.01-.055.012-.008.008-.03-.01-.058-.024-.036-.027-.064-.012-.128.016-.07.014-.08-.01-.06-.076.064-.3-.015-.578-.204a.67.67 0 0 0-.17-.094c-.019 0-.028-.009-.021-.02.006-.01-.002-.045-.019-.078-.045-.087-.04-.105.03-.09.058.013.06.011.046-.042l-.014-.054.06.043a.287.287 0 0 0 .108.048.118.118 0 0 1 .07.034c.028.036.027-.01 0-.054-.011-.017-.003-.025.027-.025a.1.1 0 0 0 .07-.034c.016-.021.027-.025.027-.01 0 .013.01.025.02.025s.014-.014.008-.03c-.008-.019 0-.03.02-.03.017 0 .032-.01.032-.022 0-.012.013-.016.03-.01.016.006.03.004.03-.005 0-.082-.371-.081-.47.001-.024.02-.035.018-.057-.014a.931.931 0 0 0-.048-.064c-.038-.045.068-.12.213-.152a.527.527 0 0 0 .167-.101.542.542 0 0 1 .122-.088c.01 0 .014-.006.007-.013-.007-.007-.06.024-.117.068-.172.13-.428.226-.485.18-.018-.015-.007.013.026.062.079.12.116.195.102.21-.027.027-.132-.055-.153-.121a1.618 1.618 0 0 0-.203-.356 2.24 2.24 0 0 1-.265-.414c-.17-.353-.29-.515-.451-.617-.072-.045-.097-.076-.12-.146-.022-.07-.027-.077-.024-.03Zm-.125.42c0 .075-.005.087-.021.059-.019-.031-.008-.153.013-.153.005 0 .008.043.008.094Zm11.416.037a14.864 14.864 0 0 1-.307.136 1.43 1.43 0 0 0-.168.085l-.05.034.066.01c.106.017.073.049-.061.06-.152.011-.195.038-.51.309-.125.107-.311.259-.415.337-.103.078-.21.166-.237.197-.042.047-.036.045.04-.014a.813.813 0 0 1 .153-.096c.036-.014.065-.034.065-.043 0-.01.015-.018.034-.018.03 0 .03.004.005.021-.022.015-.013.018.036.011a.23.23 0 0 0 .094-.033c.016-.013.05-.018.078-.01.028.007.062.005.075-.003a.79.79 0 0 1 .192-.019 2.15 2.15 0 0 0 .38-.034c.119-.019.048.095-.13.21-.016.01-.016.015 0 .015a.579.579 0 0 0 .134-.098c.103-.09.17-.124.17-.084a.753.753 0 0 1-.127.123.649.649 0 0 0-.12.116c.01.01.263-.212.284-.249.01-.02.055-.028.152-.027.076 0 .195-.008.265-.018.162-.023.348.061.536.241l.116.113-.101.103a3.666 3.666 0 0 0-.289.382c-.185.275-.353.509-.406.566a.216.216 0 0 0-.04.07c-.028.088-.128.16-.16.115-.05-.07-.277-.173-.357-.16-.038.007-.07.004-.07-.006 0-.018-.076-.016-.455.01a.838.838 0 0 0-.308.06.852.852 0 0 1-.202.06c-.057.008-.103.02-.103.028 0 .016.499.15.631.17a.82.82 0 0 1 .158.043c.04.016.076.029.081.028a.357.357 0 0 1 .18.049c.026.03.011.039-.1.055a.575.575 0 0 0-.188.05.983.983 0 0 1-.119.05c-.054.02-.139.06-.188.086l-.129.071c-.04.022-.156.12-.332.279l-.094.086.013.127c.013.132-.006.178-.052.123-.013-.016-.032-.024-.042-.018-.01.006-.046-.006-.082-.027-.085-.052-.188-.038-.213.03-.024.06-.025.105-.002.07.024-.038.138-.009.153.038.006.021.022.035.034.03.013-.003.04.01.062.03.05.046.099.045.166-.004.085-.063.282-.1.329-.06.017.014.063.018.123.01.096-.011.118-.004.229.075.044.032.054.032.106.005a.417.417 0 0 1 .156-.03c.14 0 .176-.037.17-.173 0-.025.009-.045.02-.045.013 0 .017-.013.011-.03-.006-.016.005-.037.026-.049.043-.022.105-.135.088-.16-.005-.01.007-.018.029-.018a.237.237 0 0 0 .07-.012c.021-.008.032 0 .032.022 0 .031.003.031.046.004.03-.02.056-.024.074-.012.015.01.041.017.058.016.02 0 .021-.005.005-.011-.03-.012-.034-.106-.005-.106.01 0 .02-.019.02-.042 0-.05.132-.182.163-.162.016.01.016.016-.001.021-.013.005-.024.018-.024.03s.006.016.012.009c.007-.007.03-.003.052.008.029.015.036.015.026 0-.008-.013 0-.022.02-.022.017 0 .037.017.042.038.01.04.079.026.141-.03.036-.03-.074-.07-.153-.055-.075.015-.102-.046-.04-.092.04-.031.037-.033-.102-.058-.15-.027-.235-.082-.236-.153 0-.025-.005-.028-.015-.012-.022.034-.103.01-.09-.028.01-.024.015-.024.03-.003.012.02.02.016.028-.018.007-.024.025-.044.04-.044.016 0 .021-.013.014-.035-.007-.019-.006-.028.003-.02.026.023.223-.182.337-.35.316-.467.565-.81.66-.91.075-.08.103-.123.095-.15-.005-.021 0-.039.01-.039.011 0 .015-.014.009-.03-.007-.018-.004-.026.007-.02.011.008.02.005.02-.004a.24.24 0 0 1 .056-.076c.09-.095.157-.195.148-.221-.005-.014.004-.025.021-.025.019 0 .027-.011.02-.028-.021-.056.03-.114.09-.1.086.018.311-.257.287-.352-.014-.056-.078-.133-.111-.133-.012 0 0 .018.028.04.068.053.078.123.027.203-.063.101-.158.212-.18.211-.038 0-.103-.07-.116-.122-.01-.039-.042-.066-.13-.108a.362.362 0 0 1-.171-.14c-.03-.046-.066-.084-.082-.084-.04 0-.124-.084-.134-.136-.01-.048.103-.048.287 0 .113.028.136.016.03-.016-.102-.03-.838-.058-.901-.034Zm-10.96.067c0 .011-.014.02-.03.02s-.03-.009-.03-.02c0-.01.014-.02.03-.02s.03.01.03.02Zm12.012.02a.615.615 0 0 1 .08.03c.014.007.008-.001-.013-.019a.14.14 0 0 0-.08-.029c-.032.001-.03.005.013.018Zm-1.052.038c0 .024-.038.049-.053.035-.014-.015.011-.053.034-.053.01 0 .019.008.019.018Zm-.185.05a.045.045 0 0 1-.026.04c-.033.012-.034-.013-.003-.045.03-.03.03-.03.03.005Zm.18.056c-.012.038-.094.043-.094.006 0-.02.018-.031.051-.031.032 0 .048.009.043.025Zm-.25.036c.01.017.017.019.017.005 0-.02.021-.021.076-.008.004 0-.007.015-.024.032-.036.036-.085.025-.15-.03l-.043-.038.053.006c.029.003.06.018.07.033Zm-.013.08c-.019.03-.088.02-.076-.01.006-.016.026-.024.048-.018.021.005.034.018.028.027ZM6.647 8.92c-.014.036.127.313.151.298.01-.006.02-.016.02-.022 0-.005-.011-.003-.024.005-.015.01-.019.003-.01-.02s.006-.03-.01-.02c-.015.01-.018.003-.01-.02.01-.022.006-.029-.01-.02-.015.01-.018.004-.01-.019.01-.023.006-.03-.01-.02-.015.01-.018.003-.01-.02.01-.022.006-.029-.01-.02-.014.01-.018.004-.009-.02.007-.018.005-.028-.005-.022-.022.014-.048-.06-.031-.088.007-.011.007-.02 0-.02-.006 0-.016.012-.022.028Zm10.469.063c-.024.024-.026.039-.01.058.017.02.012.024-.02.015-.022-.005-.04-.014-.04-.018 0-.016.07-.087.085-.087.01 0 .002.015-.015.032Zm-10.63.012c-.024.012-.044.034-.044.048 0 .032.031.036.049.007.007-.01.034-.02.06-.02.034 0 .044-.008.036-.03-.013-.033-.038-.035-.1-.005Zm2.164.088c-.052.016-.092.033-.087.038.005.005.038-.001.073-.014a.706.706 0 0 1 .226-.011c.168.011.156-.012-.017-.032a.498.498 0 0 0-.195.019Zm8.35.001c-.033.009-.033.013-.004.057.017.026.022.048.012.048-.01 0-.025-.01-.032-.02-.007-.013-.034-.005-.07.02-.08.058-.076.008.006-.062.036-.03.078-.055.094-.054.02.001.018.005-.006.011Zm-7.933.044a.83.83 0 0 0 .166.033c.078.009.136.027.16.05.02.02.036.028.036.018 0-.035-.087-.075-.188-.088a7.758 7.758 0 0 1-.158-.022c-.051-.008-.054-.007-.016.01ZM6.5 9.16c0 .016.01.03.02.03.012 0 .017.008.01.018-.022.037.11.259.155.258.034 0 .036-.004.014-.018-.016-.01-.038-.013-.048-.006-.011.006-.014-.002-.007-.02a.059.059 0 0 0-.013-.058c-.026-.027-.032-.041-.032-.076 0-.012-.01-.015-.023-.008-.013.009-.018.004-.012-.013.01-.026-.035-.137-.055-.137-.005 0-.01.014-.01.03Zm.119-.01c0 .011.01.02.02.02.012 0 .016.009.01.02-.007.01-.004.02.007.02.012 0 .016.012.01.027-.014.038.013.05.061.03.037-.017.036-.018-.005-.01-.027.005-.043 0-.04-.015.006-.035-.024-.112-.045-.112-.01 0-.018.01-.018.02Zm1.774.024c-.063.022-.112.043-.107.047.009.01.252-.07.252-.082 0-.013-.023-.008-.145.035Zm8.706.058c-.02.01-.03.028-.024.038.014.022-.006.022-.06-.001-.038-.016-.038-.017-.001-.018.02-.001.032-.008.025-.015-.008-.007.002-.024.021-.038.023-.017.041-.019.054-.006.013.013.008.027-.015.04Zm-.242.017c.037.016.037.017-.007.019-.026 0-.064.023-.086.05-.021.028-.047.045-.057.039-.01-.006-.018.006-.018.026 0 .03-.07.084-.11.084-.023 0-.005-.043.023-.053a.525.525 0 0 0 .111-.099c.085-.092.084-.091.144-.066Zm-9.315.08c.02.032.042.059.05.059.01 0-.003-.027-.027-.06a.295.295 0 0 0-.051-.059c-.004 0 .008.027.028.06Zm9.523.02c0 .023-.056.049-.072.033-.018-.018.012-.054.043-.054.016 0 .029.01.029.02Zm-.198.083c0 .008-.002.015-.005.016-.147.03-.192.018-.153-.04.017-.027.022-.027.038-.001.016.025.02.024.031-.004.013-.034.089-.009.089.029ZM6.135 9.407a.037.037 0 0 0 .005.043c.014.014.025.012.034-.003a.037.037 0 0 0-.005-.043c-.013-.013-.024-.012-.034.003Zm2.869.111-.06.051.065-.043a.268.268 0 0 0 .064-.05c0-.015-.008-.01-.07.042Zm-2.101.018c-.041.048-.039.064.005.034.018-.012.055-.084.042-.083a.43.43 0 0 0-.047.05Zm10.88-.005c-.174.13-.265.253-.188.252.03 0 .03-.003.005-.02-.042-.026.186-.235.257-.235.045 0 .04.008-.057.099-.118.11-.118.115-.01.127.043.005.06.004.037-.002-.097-.026-.097-.028-.003-.123.05-.052.092-.1.092-.106 0-.033-.084-.028-.133.008Zm-11.008.092c-.026.021-.042.042-.037.046.006.004.032-.013.058-.038.058-.055.044-.06-.02-.008Zm.852.07c.03.019.027.11-.003.11-.033-.001-.114-.07-.114-.097 0-.012-.009-.022-.02-.022-.01 0-.02-.009-.02-.02 0-.012.01-.016.02-.01.011.007.02.003.02-.01 0-.013.013-.018.03-.012.016.006.03 0 .03-.013.001-.013.01-.004.019.019.01.023.027.048.038.055Zm.725-.003c.006.017.03.035.051.04.073.02.036.082-.054.093-.065.008-.08.017-.076.046.003.02-.008.04-.025.047-.04.016.092.08.19.093l.071.01-.074-.022c-.082-.025-.094-.046-.037-.065a.157.157 0 0 0 .068-.057.358.358 0 0 1 .147-.088.483.483 0 0 0 .155-.086c.037-.042.036-.042-.025.002-.034.025-.072.04-.085.031a.568.568 0 0 0-.125-.03 1.412 1.412 0 0 1-.148-.03c-.035-.011-.042-.008-.033.016Zm8.41-.012c-.026.026-.012.046.032.044.037-.002.038-.004.007-.012-.03-.008-.032-.013-.01-.027.015-.01.018-.018.006-.018a.055.055 0 0 0-.035.013Zm.18.001a.988.988 0 0 0 .159 0c.04-.004.002-.008-.085-.008-.087 0-.12.004-.073.008Zm-10.144.023c0 .013-.01.018-.022.011-.011-.007-.007.015.01.048.034.066.059.084.037.029-.009-.023-.005-.028.013-.017.02.012.02.006 0-.032-.031-.061-.038-.068-.038-.039Zm.138.071c-.049.027-.08.048-.07.048.012 0 .06-.021.11-.048.049-.026.08-.047.069-.047-.01 0-.06.021-.109.047Zm10.046-.035a.528.528 0 0 0 .119 0c.03-.004 0-.008-.065-.008s-.09.004-.054.008Zm-.992.097a.862.862 0 0 0-.111.1c0 .006.036-.02.08-.056l.125-.1c.023-.019.036-.035.03-.035a.793.793 0 0 0-.124.091ZM6.235 9.78c-.023.023-.01.044.027.044.021 0 .044.009.051.02.015.025.05.026.05.001 0-.023-.113-.08-.128-.065Zm1.917.033c-.021.016-.03.03-.019.03s.008.009-.007.018c-.019.012-.02.021-.005.03.012.008.022.005.022-.007 0-.011.018-.02.04-.02.042 0 .048-.015.023-.055-.012-.02-.024-.018-.054.004Zm9.576-.009c.279.043.266.042.159.01a.705.705 0 0 0-.178-.027c-.078.002-.078.003.02.017Zm.302-.006c.025.005.045.017.045.027 0 .01-.02.019-.045.02-.037 0-.039.003-.013.018.017.01.05.013.075.007.057-.015 0-.087-.065-.083-.039.003-.039.003.003.011Zm-1.485.079c-.033.032-.007.046.08.042l.094-.003-.084-.008c-.047-.004-.08-.016-.073-.026.013-.021.002-.025-.017-.005Zm.283 0c.104.004.2.011.214.016.034.012-.24.248-.287.247-.025 0-.004-.028.068-.091.118-.103.117-.127 0-.123l-.084.002.075.012.076.012-.09.089c-.172.168-.053.175.132.008l.143-.13c.041-.037-.043-.055-.237-.051l-.198.004.188.006Zm.391.172c-.15.139-.156.15-.078.15.04 0 .087-.029.163-.1a.918.918 0 0 1 .148-.117c.026-.011.03-.017.01-.018a.527.527 0 0 0-.152.107.526.526 0 0 1-.155.109c-.106 0 .17-.224.293-.24l.102-.012-.099-.001c-.095-.002-.104.003-.232.122Zm.549-.063c.114.022.128.03.088.058-.025.018-.025.02.001.012.09-.025-.003-.09-.129-.09-.039 0-.025.007.04.02Zm-.242.01c.019.005.05.005.069 0 .019-.005.003-.01-.035-.01-.038 0-.053.005-.034.01Zm-5.173.058c-.043.043-.368.065-1.025.07l-.504.003.465.017c.255.009.507.012.559.006.127-.015.329.012.242.032a.934.934 0 0 1-.139.016l-.079.003.053.044c.288.238.493.285.517.118a.625.625 0 0 1 .025-.112c.016-.04.016-.04-.083.001-.012.005-.027-.01-.033-.032-.009-.036-.02-.04-.091-.028-.055.009-.081.006-.081-.01 0-.014.06-.023.173-.025.095-.002.146-.007.113-.01-.07-.01-.128-.08-.08-.097.06-.023.16 0 .157.036-.002.026.013.035.062.035.091 0 .105.027.12.233.016.197.024.21.087.13.039-.05.04-.055.008-.09-.084-.092.062-.316.2-.31.13.005.147.012.136.055a.074.074 0 0 0 .018.063.221.221 0 0 1 .041.065c.008.02.02.032.027.025.022-.023.021-.141-.001-.158-.014-.01-.008-.012.014-.005.02.006.045.011.055.011.011 0 .01.017-.002.04-.03.054.001.05.092-.01.052-.036.09-.048.125-.04.043.01.045.008.014-.01-.02-.013-.047-.018-.061-.013a.531.531 0 0 1-.152-.016c-.177-.036-.545-.051-.647-.026-.07.018-.09.016-.12-.011-.046-.042-.163-.042-.205 0Zm-3.715 0 .057.02c.02.006.013.024-.03.07l-.057.063.083-.068c.078-.064.08-.069.04-.08-.052-.016-.139-.02-.093-.005Zm-2.002.086c-.08.062-.056.123.045.11.092-.01.097.005.018.059-.092.061-.07.072.037.019a.604.604 0 0 1 .116-.05c.01 0 .035-.016.054-.038a.28.28 0 0 1 .102-.06c.077-.026.072-.059-.008-.055a1.623 1.623 0 0 1-.183-.011c-.111-.012-.135-.009-.18.026Zm2.693.003a.332.332 0 0 0-.097.083c-.019.03-.005.023.046-.021.063-.056.089-.065.186-.067.094-.002.103-.005.054-.017-.094-.024-.114-.022-.19.022Zm.423.012c.117.006.142.014.185.06l.049.054-.009-.054-.008-.054.378-.006c.24-.004.177-.006-.176-.006-.305 0-.493.002-.419.006Zm3.205.054-.056.049h.07c.1.002.133.027.098.074-.024.031-.024.033.001.01.039-.034.039-.127 0-.156-.043-.034-.05-.032-.113.023Zm.435-.002a.198.198 0 0 1-.066.056c-.019.007-.002.022.047.043.098.041.092.043.092-.033 0-.036.01-.076.024-.089.018-.018.014-.024-.019-.024-.023 0-.058.021-.078.046Zm.288-.002c.03.037.004.048-.03.013-.016-.016-.026-.016-.036 0-.007.012 0 .027.018.034.017.006.03.02.03.03 0 .01-.009.013-.02.006-.018-.01-.008.122.011.145.017.021.193.025.217.004.023-.019.036-.017.06.008.034.034.036.034.103.041.103.011.234.11.146.11-.03 0-.18.104-.18.124 0 .01.014.013.03.006.018-.006.026-.003.02.008-.007.011-.003.02.01.02.027 0 .079-.05.079-.076 0-.025.122-.082.18-.084l.047-.002-.05-.015a2.23 2.23 0 0 1-.484-.267c-.15-.124-.185-.149-.15-.105Zm-6.15.044c0 .005.026.023.06.04.156.081-.06.161-.266.099-.197-.06-.447-.027-.447.059 0 .015-.018.033-.04.04-.064.02-.091.089-.035.09.042 0 .043.002.01.026-.055.042-.013.109.069.11.065.002.057.042-.013.071-.058.024-.082.069-.038.069.005 0 .004-.01-.003-.021-.008-.012-.002-.019.013-.016.042.01.154-.044.145-.069-.005-.013.103-.08.253-.157.29-.148.381-.186.36-.15-.008.012.013.006.047-.014.035-.02.063-.053.063-.073 0-.02.009-.031.02-.024.01.006.014.022.007.034-.008.012-.004.015.01.007.034-.022.007-.051-.084-.093-.08-.036-.131-.047-.131-.028Zm6.232.02c.013.017.016.03.005.03s-.031-.014-.045-.03c-.014-.017-.016-.03-.005-.03s.031.014.045.03Zm-4.577.025c-.04.063-.034.157.01.179.038.019.04.022.008.018-.07-.008-.09.074-.088.342.003.225.035.183.04-.053.001-.035.017-.044.093-.056a.49.49 0 0 0 .144-.044c.033-.02.066-.025.09-.015.02.009.043.014.05.013.009-.002.016.01.016.026 0 .017.008.03.019.03.01 0 .014-.013.008-.03-.007-.016-.003-.03.008-.03.01 0 .026-.024.033-.054.02-.076.151-.126.172-.065.004.01.07.025.145.03.175.015.178.02.178.214 0 .13.006.162.03.162.017 0 .038.02.049.043.012.029.051.052.118.07l.1.027-.007.088c-.004.05-.017.096-.03.104-.016.01-.016.014.002.014.013 0 .032-.015.043-.034.017-.03.027-.031.083-.01.035.013.073.018.085.01a.117.117 0 0 1 .064-.008c.035.004.04-.003.032-.045-.006-.032-.022-.05-.045-.05-.06 0-.064-.038-.005-.052.03-.006.072-.016.093-.022.028-.008.034-.003.025.021-.006.018-.004.032.006.032s.021-.01.027-.024c.008-.02.01-.02.011 0 .001.013.015.024.032.024.016 0 .068.017.114.038.079.035.29.085.381.09.022 0 .065.026.095.055.03.03.072.055.093.055.063 0 .067.001.104.035.022.02.042.025.05.014.043-.06.182-.074.182-.018 0 .015.015.03.034.03l.087.007a.171.171 0 0 1 .084.03c.018.014.032.019.032.01 0-.007.011-.005.025.005.046.037.156.027.168-.016.01-.038.104-.056.104-.02 0 .01.039.037.087.06.12.059.11.122-.02.117-.115-.004-.129.015-.053.074.036.028.059.061.053.076-.006.015-.001.033.01.04.013.008.022-.004.022-.027s.012-.041.028-.041c.018 0 .024.014.016.042-.008.03-.004.039.013.028.014-.008.04-.002.058.015a.247.247 0 0 0 .102.04c.181.029.258.06.258.107 0 .031.011.045.038.045a.59.59 0 0 1 .16.064c.234.124.273.153.204.153-.065 0-.104.059-.05.073.056.014.056.046 0 .046-.119 0 .333.169.469.175.07.003.177.027.2.046.047.037.207.034.195-.004-.01-.031-.003-.033.062-.019.078.018.11 0 .134-.07.01-.036.004-.04-.067-.032-.053.005-.08 0-.08-.017 0-.014-.015-.02-.039-.014-.021.006-.044.002-.05-.008-.007-.01-.039-.016-.072-.013-.04.003-.066-.007-.08-.032-.012-.022-.025-.028-.033-.016-.02.032-.118.004-.132-.038-.006-.02-.019-.033-.027-.028-.01.006-.022-.018-.029-.051-.018-.093-.016-.1.029-.076.035.019.043.016.052-.02.015-.058.051-.04.074.035.025.084.044.08.072-.014.023-.076.078-.095.078-.028 0 .02.012.025.044.015.04-.013.041-.01.017.019-.015.018-.02.04-.012.047.008.008.02.003.024-.01.005-.014.016-.025.025-.025.008 0 .05-.015.092-.033.109-.046.162-.05.172-.01.005.018.01-.001.011-.043.002-.057.012-.079.04-.086.109-.028.064-.26-.05-.263-.03 0-.05-.019-.064-.06-.023-.066-.036-.07-.09-.029-.049.037-.174.038-.278.002a1.627 1.627 0 0 0-.19-.048.988.988 0 0 1-.198-.061.618.618 0 0 0-.152-.049.216.216 0 0 1-.103-.041c-.02-.02-.048-.029-.06-.021-.012.007-.07-.002-.129-.02a.44.44 0 0 0-.162-.024.138.138 0 0 1-.106-.026c-.063-.045-.183-.073-.355-.082-.094-.004-.135-.016-.155-.041-.02-.028-.049-.034-.145-.028-.084.005-.122 0-.129-.018a.396.396 0 0 0-.182-.133.18.18 0 0 1-.077-.04c-.02-.018-.048-.033-.06-.033-.013 0-.024-.008-.024-.018 0-.03-.07-.044-.122-.024-.032.012-.082.01-.154-.01a.43.43 0 0 0-.113-.02c-.004.004-.04-.023-.08-.06-.075-.069-.088-.075-.207-.095a.273.273 0 0 1-.133-.071c-.053-.053-.067-.058-.14-.046-.086.014-.238-.013-.594-.106a4.408 4.408 0 0 0-.366-.076c-.644-.097-.673-.105-.656-.168.01-.039.003-.05-.013-.023Zm3.231.053c0 .016-.007.033-.015.038-.026.016-.07-.02-.055-.045.02-.031.07-.027.07.007Zm.582.005c.012.019.005.026-.027.026-.035 0-.042.01-.037.054.006.051.076.094.076.047 0-.011-.013-.016-.03-.01-.018.008-.03 0-.03-.017 0-.042.023-.057.051-.033.04.033.052-.013.014-.055-.02-.02-.027-.026-.018-.012Zm-.435.029c-.01.015-.006.017.01.007.02-.011.022-.003.011.032-.03.093-.03.105 0 .047.043-.089.025-.161-.021-.086Zm2.613.05c-.043.029-.124.09-.18.138a1.184 1.184 0 0 1-.157.115c-.032.016-.045.03-.029.03a.416.416 0 0 0 .129-.079 8.374 8.374 0 0 1 .304-.232c.061-.045.012-.025-.067.028Zm-1.896 0c-.007.007-.013.027-.013.044a.26.26 0 0 1-.03.088c-.037.072-.038.091-.001.041.026-.035.03-.035.041-.005.017.044-.006.081-.042.067-.022-.008-.024-.003-.01.024.013.022.044.034.089.034.044 0 .063-.007.051-.019-.027-.027-.023-.05.01-.05.025 0 .13-.088.13-.109a.833.833 0 0 0-.194-.129.051.051 0 0 0-.03.014Zm.181.124c.005.014-.002.022-.017.017a.062.062 0 0 1-.035-.035c-.005-.014.003-.022.018-.017.014.005.03.02.034.035Zm-.645.005c-.028.028-.032.075-.006.075.01 0 .048.024.084.054.036.03.056.041.046.025a.222.222 0 0 1-.024-.07c-.01-.062-.07-.114-.1-.084Zm-.9.029c-.024.024-.015.043.027.056.04.013.098-.018.098-.052 0-.02-.106-.024-.126-.004Zm7.124.144c-.062.084-.12.17-.127.19a.542.542 0 0 1-.062.102.616.616 0 0 0-.103.322.465.465 0 0 1-.028.149.437.437 0 0 0-.03.118c0 .022.011.007.024-.034a.234.234 0 0 1 .073-.108c.072-.049.08-.07.045-.11-.03-.033-.03-.037.005-.062.028-.02.032-.034.016-.054-.035-.046.005-.143.077-.184a.293.293 0 0 0 .08-.064c.021-.035.074-.034.074 0 0 .015.013.054.03.088.031.062.025.247-.01.29a.372.372 0 0 0-.024.12.667.667 0 0 1-.045.178c-.127.279-.175.367-.248.45-.046.052-.074.094-.063.094.053 0 .089-.033.136-.126a1.98 1.98 0 0 1 .105-.18c.13-.194.202-.563.194-1.012l-.006-.32-.113.153Zm-11.871-.077a.545.545 0 0 0-.114.069.45.45 0 0 0 .119-.05.589.589 0 0 0 .118-.07c0-.013.004-.015-.123.051Zm5.498-.024c-.044.048-.042.056.017.07.028.008.045.022.04.032-.019.03.047.231.09.281l.04.045-.01-.045c-.007-.035-.003-.041.016-.025.058.048.075-.116.016-.168a.991.991 0 0 0-.206-.147c-.03 0 .005-.041.05-.06.03-.012.033-.017.011-.018-.017-.001-.046.015-.064.035Zm3.684-.015c-.015.01-.023.018-.017.02.077.012.118.012.118-.001 0-.025-.071-.038-.101-.019Zm-7.85.03a.091.091 0 0 0 .028.067c.016.014.03.044.032.067.002.036.004.036.011.006.006-.02-.003-.051-.02-.07a.204.204 0 0 1-.039-.072c-.009-.038-.01-.037-.012.002Zm-2.895.068c-.08.043-.096.06-.04.046.033-.009.145-.086.124-.085a.604.604 0 0 0-.084.04Zm6.433-.009c-.023.028-.02.03.02.025.027-.004.051-.018.056-.032.011-.035-.045-.03-.076.007Zm-2.407.137c0 .054.004.074.009.044a.354.354 0 0 0 0-.099c-.005-.024-.009 0-.009.055Zm3.319-.061a.044.044 0 0 1-.025.038c-.015.006-.01.01.01.011.022.001.034-.013.034-.038 0-.021-.004-.04-.01-.04-.005 0-.01.013-.01.029Zm-7.543.049c-.12.07-.148.098-.045.045.077-.039.169-.102.149-.1a.85.85 0 0 0-.104.055Zm4.344.13c0 .087.004.12.008.074a.985.985 0 0 0 0-.158c-.004-.04-.008-.003-.008.085Zm9.344-.092c-.017.017-.037.025-.044.018-.02-.02.032-.076.056-.061.011.007.006.024-.012.043Zm-12.332.003a.083.083 0 0 0 .03.063c.03.024.03.023.007-.007-.015-.019-.021-.043-.015-.053.007-.01.005-.024-.004-.03-.008-.005-.017.007-.018.027Zm.494.045c-.038.049-.048.083-.012.042a.213.213 0 0 1 .066-.053c.025-.009.024-.01-.002-.012-.018-.001-.041.01-.052.023Zm1.295 0c-.007.018-.004.039.006.045.01.006.02.036.022.065 0 .03.006.039.01.02.014-.05-.022-.172-.038-.13ZM5.131 11c-.163.108-.17.144-.044.218.05.03.094.05.098.045.004-.004-.032-.029-.08-.055-.12-.063-.113-.098.04-.198.11-.07.147-.1.124-.1-.003 0-.065.04-.138.09Zm4.798-.02c0 .043.004.058.009.034a.217.217 0 0 0 0-.08c-.006-.018-.01.002-.01.045Zm.944-.008c0 .022-.053.023-.067 0-.006-.01-.006-.022 0-.028.016-.016.067.006.067.027Zm2.398.018c-.026.032-.038.059-.028.059.018 0 .066-.05.091-.095.027-.047-.018-.022-.063.036Zm-3.956.019c0 .038.004.054.009.035a.164.164 0 0 0 0-.07c-.005-.019-.01-.003-.01.035Zm-2.938.021a.545.545 0 0 0-.113.069.45.45 0 0 0 .118-.05.59.59 0 0 0 .119-.07c0-.013.004-.015-.124.051Zm.46-.032c.041.05.136.094.185.084.037-.007.036-.009-.009-.011a.33.33 0 0 1-.128-.054c-.042-.03-.064-.037-.049-.019Zm10.427.081a.362.362 0 0 1-.128.107c-.01 0 .007-.026.038-.058.053-.055.09-.075.09-.049Zm-8.661.108c0 .038.004.054.009.035a.163.163 0 0 0 0-.07c-.005-.019-.01-.003-.01.035Zm-2.577.03c-.049.026-.082.048-.073.048a.591.591 0 0 0 .172-.088c0-.013 0-.014-.099.04Zm3.11.01c0 .038.005.053.01.034a.163.163 0 0 0 0-.069c-.005-.02-.01-.003-.01.035Zm1.63-.003c-.007.01-.002.026.01.033.03.019.05-.007.024-.032-.014-.015-.025-.015-.034-.002Zm-5.434.063c-.03.008-.006.014.066.015.063.001.114 0 .114-.005 0-.014-.134-.022-.18-.01Zm3.286-.005c0 .014.014.047.032.074.038.057.009.065-.072.019-.072-.041-.092-.036-.035.01.028.02.169.07.314.11.145.04.29.085.321.1.031.017.061.026.066.02.006-.005-.009-.015-.031-.022-.034-.01-.042-.03-.045-.115-.002-.086-.004-.09-.01-.029-.01.091.01.092-.263-.013-.167-.063-.234-.099-.252-.133-.014-.026-.025-.035-.025-.021Zm3.432.028c.011.008-.005.015-.037.015-.048 0-.053-.004-.031-.03.013-.016.03-.023.037-.015.006.009.02.022.031.03Zm1.08.145c.057.03.177.06.315.082a.245.245 0 0 1 .105.042.499.499 0 0 0 .214.082c.017 0 .047.018.066.04.02.02.054.04.077.044.036.005.042.017.036.078-.003.04.003.078.014.085.025.015-.012.13-.042.13-.011 0-.032.015-.047.034-.023.03-.026.03-.016.002.01-.026-.002-.032-.063-.032-.087 0-.126.032-.126.105 0 .05-.004.053-.074.04-.14-.027-.185-.12-.047-.098.085.014.103-.001.105-.09.002-.04.01-.054.03-.046.02.008.027 0 .022-.024-.008-.044-.088-.06-.103-.02-.019.05-.076.011-.063-.042a.22.22 0 0 0-.016-.114l-.028-.067-.104.027c-.093.024-.107.024-.128-.005-.014-.019-.037-.028-.055-.02-.022.008-.028.003-.02-.017.005-.016-.004-.034-.022-.04-.017-.008-.031-.025-.031-.04 0-.041-.082-.058-.103-.02-.027.047-.056.038-.056-.016 0-.027-.01-.053-.024-.058-.018-.008-.014-.02.013-.042.049-.039.096-.039.17 0Zm-3.164.053c.003.059.004.06.011.012.005-.03.023-.058.042-.062.024-.007.02-.01-.011-.011-.038-.002-.044.006-.042.061Zm-.176.085c0 .043.004.059.01.034a.216.216 0 0 0-.001-.08c-.005-.018-.01.002-.009.046Zm5.995-.027c-.013.012-.019.05-.014.084.006.041.004.05-.006.026-.013-.029-.02-.02-.038.045-.027.102.002.124.041.03.031-.073.062-.208.048-.208-.005 0-.019.01-.031.023Zm-3.592.075c-.006.023.002.043.02.05.048.018.056.012.06-.04.005-.06-.064-.07-.08-.01Zm-2.486.04c0 .014.014.043.032.063.026.03.027.037.005.037-.023 0-.023.004.002.02.016.01.038.018.049.018.01 0 .006-.008-.01-.019-.026-.017-.026-.019 0-.02.023 0 .021-.006-.006-.022a.15.15 0 0 1-.053-.063c-.01-.024-.018-.03-.019-.015Zm2.12.006c.005.013.02.024.035.024a.04.04 0 0 0 .035-.024c.005-.015-.009-.025-.035-.025-.025 0-.04.01-.034.025Zm2.508-.007c0 .01.006.032.012.05.014.034-.024.041-.07.012-.023-.015-.024-.023-.002-.049.028-.034.06-.041.06-.013Zm3.997.01c0 .02.06.077.07.066.005-.005-.009-.025-.03-.045-.022-.02-.04-.029-.04-.021Zm.318.081a.5.5 0 0 0-.023.125c.013.083-.02.088-.094.016-.102-.1-.21-.132-.196-.059.008.04-.008.07-.078.143a1.23 1.23 0 0 0-.274.467c-.029.086-.065.175-.08.196-.018.025-.023.067-.015.124.011.082.01.086-.04.086-.029 0-.052-.01-.052-.022 0-.013-.02-.019-.05-.013-.027.005-.05.001-.05-.01 0-.01-.023 0-.051.023a.19.19 0 0 1-.08.041c-.014 0-.026.008-.026.018 0 .026-.11.066-.16.058-.036-.005-.045-.02-.05-.082-.005-.093-.019-.108-.07-.076-.02.013-.046.02-.056.014-.01-.006-.023.025-.03.07-.013.075-.017.078-.049.05-.046-.043-.066-.04-.05.008.007.023.003.04-.009.04s-.021.016-.021.036c0 .053-.04.08-.109.072a6.861 6.861 0 0 1-.366-.04l-.089-.011.067.03a.33.33 0 0 0 .1.031c.046 0 .285.109.313.142.107.13-.421.115-.804-.021-.307-.11-.593-.319-.435-.319.04 0 .04-.001-.008-.04-.028-.021-.062-.038-.077-.037-.014 0-.009.008.013.018.033.014.03.017-.025.018-.057.002-.064.008-.064.06 0 .078.032.093.055.026.017-.053.018-.054.032-.01.087.27 1.417.629 1.417.382 0-.019.022-.045.05-.057.026-.012.049-.036.049-.053 0-.016.009-.03.02-.03.01 0 .02.01.02.02 0 .03.027.024.07-.015.02-.02.106-.069.188-.11.098-.048.158-.09.173-.122.021-.048.063-.069.063-.032 0 .01.046.016.104.015l.104-.003.013-.12c.06-.544.362-.946.614-.818.1.052.125.03.145-.13.02-.162.005-.217-.029-.099Zm-.878-.057c-.015.015.022.066.048.066.01 0 .017-.017.017-.039 0-.038-.038-.054-.066-.027Zm-3.663.096c.033.025.034.032.009.05-.048.032-.108.014-.115-.035-.008-.053.046-.06.106-.015Zm3.985.01c-.038.03-.042.039-.016.04.019 0 .04-.01.047-.022a.138.138 0 0 1 .056-.038c.04-.016.04-.017.002-.018a.177.177 0 0 0-.089.038Zm-8.09-.007c-.002.032.053.072.082.06.016-.007.014-.01-.008-.012-.019 0-.043-.017-.054-.036-.011-.019-.02-.024-.02-.012Zm4.367.052c.004.02-.005.034-.024.034-.017 0-.031-.004-.031-.008a.222.222 0 0 0-.013-.042c-.01-.025-.004-.031.024-.026.02.004.04.023.044.042Zm-.1.054c.003.046-.066.093-.08.054-.008-.022.04-.09.066-.092.006-.001.012.016.014.038Zm3.72.015c-.056.061-.102.142-.088.156.01.01.087-.091.126-.166.03-.058.024-.056-.037.01Zm-7.91-.005a.22.22 0 0 0 .07.028c.011 0-.002-.013-.03-.028a.22.22 0 0 0-.069-.028c-.01 0 .003.012.03.028Zm.16.057c0 .009.187.072.21.07.024 0-.093-.049-.157-.065-.03-.007-.054-.01-.054-.005Zm2.433.021c0 .018.017.03.04.03.025 0 .039.014.039.04 0 .022.009.04.02.04.025 0 .025-.06 0-.1-.011-.015-.02-.022-.02-.013 0 .008-.018.006-.04-.006-.031-.017-.04-.015-.04.01Zm2.264.158c-.007.037-.007.077 0 .089.007.011.003.04-.01.062-.012.023-.017.047-.011.053.006.006.02-.012.03-.04.01-.027.03-.053.043-.058.014-.004.024-.036.023-.07-.004-.12-.055-.144-.075-.036Zm.15.011c0 .024.055.05.071.034.006-.006-.008-.02-.03-.033-.03-.015-.042-.016-.042 0Zm-4.116.04c.038.02.078.038.09.038.01 0-.012-.017-.05-.038a.342.342 0 0 0-.09-.038c-.01 0 .012.017.05.038Zm7.858.092c.006.05-.001.057-.063.068l-.07.013.081.002c.061.002.107.022.187.082.058.043.11.08.116.08.013 0-.005-.016-.11-.097-.051-.04-.087-.085-.095-.122-.017-.078-.053-.099-.046-.026Zm-7.334.108c.065.033.132.07.148.083.027.02.027.019.004-.01a.81.81 0 0 0-.254-.134c-.01 0 .037.028.102.06Zm5.766.032c-.022.057.013.104.08.104a.37.37 0 0 1 .075.013c.062.016.055-.01-.024-.097-.081-.088-.104-.092-.131-.02Zm-5.578.014c0 .017.01.03.021.03.012 0 .016.01.01.02-.008.011.005.02.026.02.022 0 .046.01.052.02a.023.023 0 0 0 .032.009c.016-.01.175-.02.563-.038a.317.317 0 0 0 .103-.017c.012-.008.027-.005.034.006.007.011.04.02.072.02.094 0 .058-.047-.048-.062a.48.48 0 0 1-.113-.027c-.012-.007-.032-.005-.045.006-.047.037-.149.043-.21.012-.054-.027-.066-.026-.137.01-.076.039-.144.038-.196-.003a.064.064 0 0 0-.056-.007.098.098 0 0 1-.07-.009c-.03-.016-.038-.013-.038.01Zm3.903.04c0 .044.004.06.009.035a.218.218 0 0 0 0-.08c-.005-.018-.01.002-.01.046Zm-1.598.015c.013.012-.016.014-.079.005a.348.348 0 0 1-.118-.032c-.011-.01.021-.012.08-.005a.325.325 0 0 1 .117.032Zm5.2.113a.922.922 0 0 1 .153.187c.032.056.058.09.058.078 0-.047-.17-.268-.237-.309-.06-.035-.056-.03.026.044Zm-3.625.064c-.001.062.006.118.015.123.01.006.013-.036.008-.092-.012-.149-.022-.16-.023-.03Zm2.129-.055c-.008.02-.01.042-.005.048.018.018.034-.012.027-.05-.007-.034-.008-.034-.022.002Zm-3.842.012c.006.01.05.019.095.018.07-.002.076-.004.033-.018-.072-.023-.143-.023-.128 0Zm2.859.028c0 .019.017.031.04.031.049 0 .042-.046-.008-.055-.019-.004-.032.006-.032.024Zm2.16.055c-.049.049.014.134.148.202.069.034.264.044.264.012 0-.01-.014-.014-.03-.007-.05.019-.221-.034-.268-.083-.106-.113.046-.144.197-.04.094.065.121.065.044.001-.115-.097-.299-.14-.355-.085Zm-5.741.095c-.023.015-.014.02.034.02.036 0 .064-.009.064-.02 0-.025-.06-.025-.098 0Zm-.792.068c0 .026.02.028.125.014.009-.002.01-.012.004-.023-.02-.031-.129-.024-.129.01Zm.885-.003c-.008.021 0 .027.027.02.047-.013.207.06.223.102.014.036.118 0 .106-.037-.017-.051-.34-.128-.356-.085Zm5.14 0c-.008.02-.01.041-.003.048.02.02.036-.008.027-.047-.008-.035-.01-.035-.024 0Zm-6.213.034c-.033.014-.029.017.025.018.035.001.064-.007.064-.018 0-.024-.034-.024-.089 0Zm3.789-.002c0 .01.026.022.057.028l.114.024c.054.01.054.01-.013-.028-.072-.042-.158-.055-.158-.024Zm-.752.083c0 .012.022.04.049.06.028.022.044.05.037.067-.008.02.003.03.036.03.046 0 .046 0-.01.048-.05.043-.053.052-.027.078.016.017.035.024.041.018.007-.007.013-.002.013.01 0 .013-.03.024-.065.025-.064 0-.064 0 .025.037.085.034.088.039.082.108l-.006.072.086-.032.125-.048c.125-.05.168-.062.187-.05.011.007.02.003.02-.008 0-.034-.068-.025-.209.028-.164.062-.185.062-.128.002l.045-.048-.041-.022c-.035-.018-.038-.028-.019-.07.027-.06.049-.049.066.031.01.043.022.057.043.05a.475.475 0 0 1 .112-.014c.077-.001.079-.002.026-.018-.117-.035-.188-.154-.08-.133.047.01.044.003-.034-.066-.12-.104-.264-.18-.293-.15-.015.015-.021.014-.021-.003 0-.013-.014-.024-.03-.024s-.03.01-.03.022Zm4.185.037a.408.408 0 0 1-.084.113c-.044.044-.055.062-.028.047.048-.025.153-.174.136-.19-.006-.007-.017.007-.024.03Zm-4.467.036c-.057.012-.018.044.054.044.037 0 .108.018.159.04.1.042.128.048.128.024 0-.015-.101-.064-.148-.073a.323.323 0 0 1-.05-.015.275.275 0 0 0-.143-.02Zm.5.034c0 .016-.013.03-.028.03-.015 0-.032-.014-.039-.03-.007-.02.001-.03.028-.03.021 0 .039.014.039.03Zm-3.881.06a.463.463 0 0 0-.104.066c-.007.01.037-.008.097-.04a.593.593 0 0 0 .109-.068c0-.011 0-.012-.102.042Zm5.661-.033c0 .044-.202.054-.237.012-.021-.025-.008-.03.106-.03.072 0 .131.009.131.018Zm.589.034c-.069.035-.094.06-.095.093 0 .042-.001.042-.029.006-.027-.036-.029-.036-.08 0l-.083.058c-.078.052-.163.138-.163.165 0 .052.154.18.217.18.031 0 .06.01.063.02.004.01.046.025.094.032.093.015.095.01.052-.093-.007-.018.026.004.074.049.104.1.097.106-.142.143l-.17.027.154-.01a.564.564 0 0 0 .33-.108c.024-.017.017-.02-.03-.01-.181.035-.36-.382-.204-.474.102-.06.136-.071.136-.046 0 .012.005.017.011.01.015-.014-.01-.094-.028-.092a.782.782 0 0 0-.107.05Zm-4.777.04c-.031.024-.032.03-.006.049.023.017.015.019-.034.01-.037-.006-.065-.002-.065.009 0 .01-.013.019-.03.019a.03.03 0 0 0-.03.03c0 .02.02.03.06.03.069 0 .082.028.015.032a.42.42 0 0 0-.088.016c-.037.013-.043.006-.05-.052-.006-.073-.125-.102-.183-.043-.015.014-.057.027-.093.027a.206.206 0 0 0-.103.03c-.02.015-.046.023-.056.016-.01-.006-.044.018-.075.053-.056.062-.06.063-.229.062-.19-.002-.203.016-.033.046.06.011.114.031.119.045.005.014-.003.02-.02.014-.015-.006-.044.007-.064.03a.128.128 0 0 1-.08.04.188.188 0 0 0-.094.04.182.182 0 0 1-.081.039c-.032 0-.067.09-.044.113.007.007.03-.007.052-.03.022-.024.051-.043.064-.042.018.001.018.004 0 .012-.014.005-.024.024-.024.043.001.02.006.023.012.008a.044.044 0 0 1 .038-.025c.016 0 .037-.022.048-.05.02-.054.059-.062.118-.025.021.013.045.017.053.009.009-.008.003-.023-.013-.033-.024-.015-.022-.024.014-.058.053-.05.074-.052.057-.008-.007.019-.002.04.013.05.02.013.02.02-.002.034-.034.021.043.052.077.031.02-.012.138.03.138.052 0 .006-.027.011-.06.011s-.071.011-.084.024c-.02.02-.017.022.01.012.024-.01.035-.004.035.018 0 .018-.009.032-.02.032-.01 0-.02.007-.02.017 0 .033.308 0 .639-.07.07-.014.09-.046.037-.06-.034-.008-.038-.017-.022-.047.017-.032.014-.038-.021-.038-.023 0-.036.009-.03.02.007.01.001.015-.013.011a1.307 1.307 0 0 0-.15-.02c-.142-.014-.187-.027-.171-.053.014-.023.102-.022.117.002.013.022.106.017.147-.008.08-.05.318.017.318.09 0 .037.048.052.067.021.005-.008.068-.014.14-.012.098.003.13-.003.13-.024 0-.015-.01-.027-.02-.027-.011 0-.02-.01-.02-.022 0-.012.013-.017.03-.01.016.006.03.003.03-.007 0-.028-.036-.043-.05-.02-.02.031-.08.023-.13-.017l-.046-.037.048-.017a.413.413 0 0 1 .063-.017.16.16 0 0 0 .051-.033.29.29 0 0 1 .057-.04c.043-.017-.011-.133-.056-.121-.03.008-.038.004-.029-.012.008-.012.037-.023.064-.023.079 0 .045-.047-.044-.062a.591.591 0 0 0-.123-.007c-.028.003-.042-.004-.037-.018.01-.023-.053-.057-.139-.077a.108.108 0 0 0-.079.018Zm-1.708.102c-.05.03-.125.08-.167.113a3.453 3.453 0 0 1-.2.139c-.067.043-.259.17-.425.282a3.015 3.015 0 0 1-.326.203c-.013 0-.036.014-.05.031-.014.017-.109.09-.21.16-.101.07-.184.132-.184.137 0 .005.095-.056.212-.136.117-.08.289-.192.381-.249.093-.057.213-.136.267-.176.055-.04.206-.144.337-.233.35-.238.454-.309.463-.318.02-.02-.016-.003-.098.047Zm3.357-.003c-.03.017-.052.035-.046.04.005.005.039-.009.075-.031.078-.047.055-.054-.029-.009Zm4.34 0-.07.029.07-.011a.214.214 0 0 0 .087-.03c.026-.026-.001-.022-.087.013Zm-5.718.049c0 .022-.009.035-.02.028-.01-.007-.02-.025-.02-.04 0-.016.01-.03.02-.03.011 0 .02.02.02.042Zm4.4.043c.063.15.062.236 0 .229-.034-.004-.057-.018-.057-.035 0-.016-.023-.035-.05-.043-.027-.008-.037-.015-.023-.016.017-.001.021-.016.013-.041-.01-.035.053-.159.082-.159.005 0 .021.03.036.065Zm-2.565-.031c-.019.005-.034.022-.034.037 0 .016-.01.028-.02.028-.011 0-.02.018-.02.04 0 .045-.055.08-.129.08-.038 0-.05.008-.046.034.004.019 0 .037-.008.04a.237.237 0 0 0-.051.039.57.57 0 0 1-.075.058c-.032.02-.033.027-.008.044.041.028.009.027-.037-.001-.049-.031-.16.017-.16.069 0 .027.009.033.034.023.233-.096-.018.07-.318.21a.479.479 0 0 0-.104.06c-.018.028.259-.11.447-.222.103-.062.228-.132.277-.155.049-.023.071-.037.05-.03-.121.038-.123.038-.071-.019.026-.028.057-.052.07-.052a.369.369 0 0 0 .095-.04c.11-.058.171-.048.108.019-.02.02-.019.024.005.017.051-.015.049-.09-.003-.098-.068-.01-.066-.063.004-.133.061-.061.06-.065-.006-.048Zm-2.414.03c-.004.014-.023.028-.04.032-.024.004-.03-.003-.022-.025.014-.036.075-.043.062-.006Zm5.676.08c-.052.068-.081.091-.091.075-.01-.016-.015-.005-.015.026s.013.055.035.062c.038.012.072.085.085.178.005.041.009.03.013-.04.01-.177.012-.196.038-.271.04-.123.017-.134-.065-.03Zm.408-.025c0 .038.004.054.009.035a.165.165 0 0 0 0-.07c-.005-.019-.01-.003-.01.035Zm-7.212-.027c-.007.007.001.025.017.042.028.028.055.027.132-.005.025-.01.035-.005.035.018 0 .017.009.032.02.032.01 0 .02-.017.02-.038 0-.047-.185-.088-.224-.05Zm4.18.056c-.021.027-.013.03.072.028.067-.002.079-.006.037-.012-.033-.005-.065-.017-.071-.028-.007-.01-.023-.005-.037.012Zm2.283.006c.03.035.056.044.129.04l.09-.003-.088-.007a.282.282 0 0 1-.129-.042c-.04-.033-.04-.032-.002.012Zm-2.046.043c.039.008.137.035.218.058.215.061.432.106.46.095.014-.006.007-.01-.015-.012-.021 0-.164-.034-.316-.073a4.052 4.052 0 0 0-.347-.078l-.069-.007.07.017Zm-2.345.03c-.021.015-.031.034-.023.043.008.008.035-.004.059-.028.048-.049.024-.06-.036-.016Zm.376 0c-.021.016-.03.03-.019.03.03 0 .08-.035.067-.048-.005-.005-.027.003-.048.019Zm-2.675.005c-.034.012-.031.045.004.045.033 0 .059-.032.036-.045-.008-.005-.026-.005-.04 0Zm-.3.033c-.017.021-.015.03.008.04.018.006.038-.005.05-.028.025-.047-.02-.056-.058-.012Zm7.821.102c.027.076.073.196.103.267.103.244.09.831-.02.964a.367.367 0 0 0-.06.099c-.007.024-.022.044-.032.044-.01 0-.018.018-.018.04 0 .047-.045.052-.087.01-.016-.016-.038-.03-.05-.03-.01 0-.025-.02-.033-.044a.13.13 0 0 0-.036-.06c-.014-.009-.012-.014.008-.014.024 0 .025-.004.002-.018-.038-.024-.042-.16-.005-.145.018.007.024 0 .018-.017-.005-.016-.02-.028-.035-.028-.052 0-.154-.242-.178-.423a1.939 1.939 0 0 0-.05-.26l-.029-.089.01.09c.006.048.015.155.02.237.021.284.229.909.337 1.01l.044.041.049-.066c.263-.353.332-.974.153-1.381a1.515 1.515 0 0 1-.077-.217.298.298 0 0 0-.05-.117c-.024-.024-.02.002.016.107Zm-4.953-.09c-.016.01-.024.023-.018.03.016.015.077-.01.077-.032s-.022-.022-.06.002Zm-1.572.076c-.017.028-.1.012-.1-.018 0-.015.015-.025.034-.022.02.003.035-.006.035-.02 0-.015.009-.011.021.01.011.018.016.041.01.05Zm1.676-.01c-.089.06-.081.086.009.032.097-.058.119-.078.083-.076a.289.289 0 0 0-.092.045Zm-.278.02c-.074.05-.084.082-.02.061.06-.019.134-.068.134-.09 0-.028-.046-.017-.114.029Zm3.002.013a.382.382 0 0 0 .1.016c.044 0 .043-.002-.01-.016-.084-.02-.156-.02-.09 0Zm.297.05c.168.035.244.034.09-.001a.999.999 0 0 0-.169-.026c-.027 0 .008.013.08.028Zm.262.043c.02.005.05.005.07 0 .018-.005.003-.009-.035-.009-.038 0-.054.004-.035.01Zm-6.765.13c-.045.057-.048.08-.005.04.026-.024.041-.049.035-.055-.006-.006-.02 0-.03.014Zm3.415.13c.028.052.08.094.08.064 0-.043-.04-.1-.07-.1-.022 0-.025.008-.01.036Zm-.107.21c-.15.073-.262.116-.27.105-.007-.011-.024-.013-.038-.004-.02.012-.017.019.01.029.032.01.027.019-.033.056-.084.052-.087.052-.1.006-.005-.02-.028-.041-.051-.047-.06-.016-.058.06.002.083.047.019.045.02-.06.03a.213.213 0 0 0-.092.029.065.065 0 0 1-.058.01c-.018-.008-.032-.003-.032.009s.015.022.034.022c.045.001-.27.158-.316.158-.02 0-.035.008-.035.018 0 .01-.06.05-.133.087a8.26 8.26 0 0 0-.256.138 1.399 1.399 0 0 1-.164.083 1.51 1.51 0 0 0-.174.09.7.7 0 0 1-.163.079.922.922 0 0 0-.189.094c-.087.052-.2.11-.252.13a.376.376 0 0 0-.103.052.58.58 0 0 1-.114.07.808.808 0 0 0-.123.074c-.011.011.113-.05.277-.134.163-.085.706-.361 1.206-.614.5-.252.968-.492 1.039-.532.07-.041.202-.109.292-.15a.892.892 0 0 0 .163-.087c0-.015.023-.025-.267.116Zm-2.641.021a.683.683 0 0 0-.149.108c.011 0 .087-.045.169-.099.144-.095.197-.117.197-.08 0 .055-.361.242-.432.223-.07-.019-.07-.02-.014-.021.11-.004.036-.023-.184-.048a.971.971 0 0 0-.25-.008c-.05.028-.033.054.035.05l.064-.002-.058-.009c-.132-.02 0-.035.151-.018.177.02.197.026.157.05-.015.01.014.02.076.028.122.015.522-.204.484-.264-.023-.037-.082-.016-.246.09Zm.41.071c-.177.12-.204.164-.107.169.051.002.051.002.004-.006-.028-.005-.05-.016-.05-.025 0-.026.334-.239.376-.239.036 0 .06.04.025.04a.213.213 0 0 0-.065.042l-.05.041.07-.04c.081-.048.09-.09.02-.097-.033-.003-.109.036-.224.115Zm-2.009.104a2.345 2.345 0 0 1-.3.211 4.698 4.698 0 0 0-.337.222c-.07.054-.23.164-.354.246a4.796 4.796 0 0 0-.317.224c-.05.041-.139.1-.198.13-.33.164-.372.277-.175.479.086.086.122.106.102.054-.007-.016-.001-.03.011-.03.013 0 .018.01.011.02-.02.031.013.023.058-.015.032-.026.03-.022-.005.019-.05.055-.044.095.013.095.028 0 .029-.003.004-.02-.037-.023.104-.178.163-.178.02 0 .031-.009.024-.02-.016-.026.028-.082.052-.067.01.006.023-.003.03-.019a.08.08 0 0 1 .04-.04c.016-.007.024-.003.017.008-.014.022.018.025.084.007.024-.006.044-.02.044-.031 0-.012-.022-.015-.053-.007l-.053.014.048-.04.049-.04.055.054.056.053-.046.01c-.03.008-.038.016-.02.026.013.009.034.01.046.002.012-.008.03-.002.04.014.014.019.016.014.007-.018-.007-.026-.004-.044.009-.044.011 0 .02.006.018.015-.007.044.008.064.047.064.04.001.042.003.01.022-.03.016-.032.027-.013.049.018.022.017.028-.004.03-.015 0-.047.003-.072.006-.046.005-.063-.038-.021-.052.013-.005.017-.019.009-.032-.024-.038-.072.024-.072.093 0 .065-.107.113-.139.062-.011-.02-.016-.02-.023 0-.005.015-.06.028-.145.033a.645.645 0 0 0-.148.02c-.005.005.12.003.277-.006.58-.034 1.322.022 1.489.113.022.012.034.011.034-.002 0-.01-.01-.02-.024-.02-.049-.002.05-.057.16-.09a.578.578 0 0 0 .143-.061.11.11 0 0 1 .056-.027c.027 0 .224-.08.24-.098a.484.484 0 0 1 .194-.071c.135-.02.395-.118.372-.14-.006-.007-.025-.002-.041.011-.054.045-.1.018-.1-.058 0-.052-.01-.07-.04-.076-.045-.009-.088-.058-.088-.103-.002-.055-.322-.309-.435-.345-.022-.007-.04-.02-.04-.03 0-.01-.05-.033-.11-.05a.373.373 0 0 1-.12-.05c-.005-.01-.024-.018-.04-.018a.334.334 0 0 1-.11-.06.31.31 0 0 0-.133-.06c-.07 0-.11-.028-.095-.066.016-.041.008-.04-.07.008-.075.045-.096.049-.09.014.003-.013-.01-.022-.03-.018-.018.003-.034-.004-.034-.015 0-.012.013-.021.03-.021.054 0 .032-.075-.03-.102-.059-.026-.079-.056-.037-.056.012 0 .07-.05.13-.11.13-.129.123-.144-.01-.022Zm1.1-.032a.283.283 0 0 0 .088 0c.025-.005.005-.009-.044-.009-.05 0-.07.004-.045.009Zm1.122.104c.022.01.053.017.07.017.018 0 .014-.006-.01-.017a.219.219 0 0 0-.07-.017c-.019 0-.015.007.01.017Zm-1.592.019c-.047.03-.017.041.18.062.102.01.199.021.215.024.016.002-.04.048-.125.1-.085.053-.15.106-.146.119.015.047.08.033.186-.04a6.16 6.16 0 0 1 .19-.126c.142-.088.122-.104-.154-.127a10.471 10.471 0 0 1-.228-.022c-.049-.005-.102 0-.118.01Zm.361.033c.245.019.247.012-.05.21-.107.071-.173.093-.173.058 0-.009.067-.055.148-.103.195-.115.19-.13-.037-.148a.877.877 0 0 1-.212-.033c-.019-.012.001-.015.061-.008.05.006.167.017.263.024Zm1.2 0c.07.015.13.024.134.02.01-.01-.183-.053-.228-.05-.018.001.024.015.094.03Zm.237.006c.022.014.016.02-.025.027l-.053.01.053-.003c.06-.003.091-.052.033-.052-.029 0-.03.004-.008.018Zm-1.046.196c-.158.109-.21.162-.16.162.013 0 .018-.008.013-.017-.011-.018.092-.102.126-.102.01 0 .036-.016.056-.036.095-.095.255-.14.291-.082.008.014-.005.016-.04.008-.034-.009-.063-.003-.085.017a.372.372 0 0 1-.083.053c-.063.028-.253.159-.23.159.01 0 .094-.05.189-.11.193-.122.218-.123.484-.028.118.042.211.045.223.009.011-.034-.42-.148-.558-.148-.041 0-.113.036-.226.115Zm-1.564.18c-.03.025-.056.032-.068.02-.028-.028-.047-.023-.057.016-.007.027-.01.025-.011-.009-.002-.037.01-.044.082-.05l.094-.011c.005-.002-.013.014-.04.035Zm-.013.659c.016.06-.006.077-.076.056-.033-.01-.044-.018-.026-.02.018 0 .039-.019.046-.04.017-.053.042-.05.056.004Zm.158.08c-.016.027-.037.015-.04-.025-.003-.031.002-.034.023-.015.014.014.022.031.017.04Zm.328-.004c-.042.025-.063-.003-.024-.032.023-.017.039-.019.043-.005.004.011-.004.028-.019.037Zm-1.087.079c-.011.021-.029.038-.04.038-.024 0-.023-.012.005-.058.03-.049.062-.03.035.02Zm.16-.03c0 .007-.014.025-.03.041-.044.044-.037.063.024.072.043.007.038.01-.022.012-.058.002-.073.01-.065.032.006.016.004.033-.005.039-.01.005-.022-.017-.029-.049-.015-.08-.012-.09.029-.083.02.004.04-.01.047-.034.012-.036.05-.059.05-.03Zm.698.095c-.018.01-.039.008-.052-.005-.016-.016-.015-.022.002-.022.013 0 .024-.015.024-.033 0-.03.003-.029.028.005.024.033.024.04-.002.055Zm.093-.056c0 .016-.01.03-.02.03-.011 0-.02-.014-.02-.03 0-.017.009-.03.02-.03.01 0 .02.013.02.03Zm.185.053c-.005.008-.021.004-.036-.01-.019-.017-.02-.028-.004-.037.024-.015.056.022.04.047Zm-1.53.001c0 .02.008.035.019.035.01 0 .025.022.031.05.018.068.048.061.048-.01 0-.033.01-.06.021-.06.012 0 .015-.01.008-.021-.009-.014-.025-.01-.049.011-.033.03-.037.03-.057-.004-.02-.033-.02-.033-.021-.001Zm.78.013c.007.02.04.051.076.069.063.03.063.03.01.031-.03 0-.057-.013-.064-.031-.01-.026-.018-.027-.041-.008-.02.017-.03.018-.03.003 0-.013.01-.023.02-.023.015 0 .014-.012 0-.04-.013-.023-.014-.039-.002-.039.01 0 .024.017.031.038Zm-1.19.042c.01.009 0 .025-.022.037-.033.018-.045.013-.072-.029-.033-.05.041-.056.095-.008Zm1.582.057c.007.026-.002.041-.029.048-.03.008-.034.005-.016-.017.013-.015.017-.037.01-.048-.007-.012-.004-.02.006-.02s.023.016.029.037Zm-.109.04c-.004.033.001.064.013.069.012.004-.005.009-.038.01-.05 0-.054-.003-.025-.02.02-.011.035-.042.035-.069 0-.026.005-.048.012-.048s.008.027.003.059Zm-.13.03c-.024.03-.046.043-.053.031-.007-.01-.003-.02.008-.02.042 0 .02-.04-.023-.042-.029-.002-.02-.008.024-.016.09-.017.092-.014.044.048Zm.08-.005c-.02.018-.025.013-.025-.024s.006-.042.024-.023c.019.018.019.029 0 .047Zm-.547.335c.007.012 0 .03-.014.039-.02.012-.01.017.03.017.056 0 .057 0 .022-.039-.04-.043-.06-.052-.038-.017Z" clip-rule="evenodd"/></svg>