<svg width="33" height="34" viewBox="0 0 33 34" fill="none" xmlns="http://www.w3.org/2000/svg">
<path d="M14.5652 18.4484L14.9795 18.8682C15.3228 19.2159 15.3228 19.7799 14.9795 20.1277L4.00169 31.25H8.49756C8.98302 31.25 9.37662 31.6488 9.37662 32.1406V32.7344C9.37662 33.2262 8.98302 33.625 8.49756 33.625H0.879058C0.393598 33.625 0 33.2262 0 32.7344V25.0156C0 24.5238 0.393598 24.125 0.879058 24.125H1.4651C1.95056 24.125 2.34416 24.5238 2.34416 25.0156V29.5707L13.322 18.4484C13.6653 18.1005 14.2219 18.1005 14.5652 18.4484ZM31.9391 0.375H24.3206C23.8352 0.375 23.4416 0.773777 23.4416 1.26562V1.85938C23.4416 2.35122 23.8352 2.75 24.3206 2.75H28.8165L17.8387 13.8723C17.4954 14.2201 17.4954 14.784 17.8387 15.1318L18.253 15.5516C18.5963 15.8994 19.1529 15.8994 19.4962 15.5516L30.474 4.42935V8.98438C30.474 9.47622 30.8676 9.875 31.3531 9.875H31.9391C32.4246 9.875 32.8182 9.47622 32.8182 8.98438V1.26562C32.8182 0.773777 32.4246 0.375 31.9391 0.375Z" fill="white"/>
</svg>
