<?xml version="1.0" encoding="utf-8"?>
<!-- Generator: Adobe Illustrator 25.4.1, SVG Export Plug-In . SVG Version: 6.00 Build 0)  -->
<svg version="1.1" id="Layer_1" focusable="false" xmlns="http://www.w3.org/2000/svg" xmlns:xlink="http://www.w3.org/1999/xlink"
	 x="0px" y="0px" viewBox="0 0 512 512" style="enable-background:new 0 0 512 512;" xml:space="preserve">
<style type="text/css">
	.st0{fill:#354169;}
</style>
<path class="st0" d="M464,64H48C21.5,64,0,85.5,0,112v288c0,26.5,21.5,48,48,48h416c26.5,0,48-21.5,48-48V112
	C512,85.5,490.5,64,464,64z M480,400c0,8.8-7.2,16-16,16H48c-8.8,0-16-7.2-16-16V112c0-8.8,7.2-16,16-16h416c8.8,0,16,7.2,16,16V400
	z M112,232c30.9,0,56-25.1,56-56s-25.1-56-56-56s-56,25.1-56,56S81.1,232,112,232z M112,152c13.2,0,24,10.8,24,24s-10.8,24-24,24
	s-24-10.8-24-24S98.8,152,112,152z M319,175l-95,95l-31-31c-9.4-9.4-24.6-9.4-33.9,0l-88,88c-4.5,4.5-7,10.6-7,17v28
	c0,6.6,5.4,12,12,12h360c6.6,0,12-5.4,12-12v-92c0-6.4-2.5-12.5-7-17l-88-88C343.6,165.7,328.4,165.7,319,175z M416,352H96v-4.7
	l80-80l48,48l112-112l80,80V352z"/>
</svg>
