<svg width="28" height="29" viewBox="0 0 28 29" fill="none" xmlns="http://www.w3.org/2000/svg">
<path d="M14.0053 7.81233C10.0303 7.81233 6.82408 11.0186 6.82408 14.9936C6.82408 18.9686 10.0303 22.1748 14.0053 22.1748C17.9803 22.1748 21.1866 18.9686 21.1866 14.9936C21.1866 11.0186 17.9803 7.81233 14.0053 7.81233ZM14.0053 19.6623C11.4366 19.6623 9.33658 17.5686 9.33658 14.9936C9.33658 12.4186 11.4303 10.3248 14.0053 10.3248C16.5803 10.3248 18.6741 12.4186 18.6741 14.9936C18.6741 17.5686 16.5741 19.6623 14.0053 19.6623ZM23.1553 7.51858C23.1553 8.44983 22.4053 9.19358 21.4803 9.19358C20.5491 9.19358 19.8053 8.44358 19.8053 7.51858C19.8053 6.59358 20.5553 5.84358 21.4803 5.84358C22.4053 5.84358 23.1553 6.59358 23.1553 7.51858ZM27.9116 9.21858C27.8054 6.97483 27.2929 4.98733 25.6491 3.34983C24.0116 1.71233 22.0241 1.19983 19.7803 1.08733C17.4678 0.956079 10.5366 0.956079 8.22408 1.08733C5.98658 1.19358 3.99908 1.70608 2.35533 3.34358C0.711573 4.98108 0.205323 6.96858 0.0928224 9.21233C-0.0384278 11.5248 -0.0384278 18.4561 0.0928224 20.7686C0.199073 23.0123 0.711573 24.9998 2.35533 26.6373C3.99908 28.2748 5.98033 28.7873 8.22408 28.8998C10.5366 29.0311 17.4678 29.0311 19.7803 28.8998C22.0241 28.7936 24.0116 28.2811 25.6491 26.6373C27.2866 24.9998 27.7991 23.0123 27.9116 20.7686C28.0429 18.4561 28.0429 11.5311 27.9116 9.21858ZM24.9241 23.2498C24.4366 24.4748 23.4929 25.4186 22.2616 25.9123C20.4178 26.6436 16.0428 26.4748 14.0053 26.4748C11.9678 26.4748 7.58658 26.6373 5.74908 25.9123C4.52408 25.4248 3.58033 24.4811 3.08658 23.2498C2.35533 21.4061 2.52408 17.0311 2.52408 14.9936C2.52408 12.9561 2.36158 8.57483 3.08658 6.73733C3.57408 5.51233 4.51783 4.56858 5.74908 4.07483C7.59283 3.34358 11.9678 3.51233 14.0053 3.51233C16.0428 3.51233 20.4241 3.34983 22.2616 4.07483C23.4866 4.56233 24.4304 5.50608 24.9241 6.73733C25.6554 8.58108 25.4866 12.9561 25.4866 14.9936C25.4866 17.0311 25.6554 21.4123 24.9241 23.2498Z" fill="#354169"/>
</svg>
