<svg width="24" height="24" viewBox="0 0 24 24" fill="none" xmlns="http://www.w3.org/2000/svg">
<circle cx="12" cy="12" r="11.5" fill="#3E4C7A" stroke="#E8E5C6"/>
<path fill-rule="evenodd" clip-rule="evenodd" d="M7.25453 5.44009C6.83074 5.53006 6.49198 5.84104 6.39234 6.23149C6.36195 6.35066 6.35246 6.36294 6.27869 6.37861C5.41263 6.56235 5.09697 7.76033 5.74468 8.40549C6.07305 8.73262 6.6089 8.84075 7.04047 8.66704L7.1943 8.60514L7.89056 9.3014L8.58682 9.9976L8.50427 10.186C8.40071 10.4223 8.32634 10.6431 8.29756 10.7994C8.13163 11.7014 8.18907 12.1171 8.56658 12.7483L8.66599 12.9145L8.6813 13.2502C8.68967 13.4348 8.70581 13.6003 8.71721 13.6181C8.72854 13.6359 8.7505 13.6865 8.76593 13.7305L8.794 13.8107L7.98818 14.6169L7.18237 15.4231L7.09952 15.3742C6.73958 15.1618 6.00539 15.2976 5.70462 15.6321C5.11964 16.2828 5.43815 17.465 6.23887 17.6151C6.34255 17.6346 6.36474 17.6575 6.38806 17.7691C6.59898 18.7802 8.15382 18.9004 8.61465 17.9413L8.71447 17.7335V17.413C8.71447 17.112 8.71044 17.084 8.64824 16.9512L8.58207 16.8098L9.34848 16.0431C10.0993 15.292 10.1538 15.2453 10.171 15.3378C10.1757 15.3629 10.1997 15.4282 10.2244 15.4829C10.2491 15.5377 10.2694 15.5918 10.2694 15.6031C10.2694 15.6376 10.3957 15.7467 10.4668 15.7736C10.5114 15.7904 11.0252 15.7988 12.0122 15.7988H13.4909L13.5715 15.7446C13.6643 15.6823 13.7754 15.4957 13.7975 15.365C13.8059 15.3158 13.82 15.271 13.8289 15.2655C13.8377 15.26 14.1946 15.6052 14.6219 16.0326L15.3987 16.8097L15.3337 16.9511C15.162 17.3249 15.2769 17.9459 15.575 18.2549C16.0246 18.7209 16.9098 18.7153 17.3369 18.2439C17.4381 18.1322 17.5338 17.9662 17.5904 17.8042L17.6471 17.6422L17.7719 17.6103C18.7809 17.3521 18.8704 15.7953 17.9005 15.3721C17.6384 15.2578 17.1583 15.2473 16.9371 15.351L16.8037 15.4135L15.9963 14.6032L15.1889 13.7929L15.2367 13.6868C15.2737 13.6048 15.2882 13.5051 15.3008 13.2476C15.3173 12.9077 15.363 12.7603 15.503 12.594C15.7254 12.3301 15.8401 11.5502 15.7335 11.0273C15.6642 10.6875 15.6504 10.6301 15.605 10.4931C15.5791 10.4148 15.5206 10.2717 15.475 10.1752L15.3919 9.99974L16.0893 9.30247L16.7866 8.60514L16.9404 8.66894C17.1411 8.75214 17.5589 8.76395 17.7709 8.69238C18.8777 8.31879 18.8545 6.71588 17.7375 6.38603C17.6515 6.36063 17.6389 6.34591 17.589 6.21267C17.1979 5.16692 15.7738 5.11843 15.3406 6.13618C15.2271 6.40282 15.2443 6.91701 15.3751 7.16128C15.3929 7.19469 15.2687 7.329 14.6828 7.90989C13.8932 8.69262 13.9544 8.65196 13.7179 8.54983C13.2757 8.35891 12.9438 8.29778 12.3465 8.2973C12.0985 8.29707 11.7993 8.28579 11.6818 8.2722C11.5316 8.25487 11.4259 8.25505 11.3258 8.27297C11.2474 8.28698 11.0979 8.31351 10.9934 8.33184C10.8121 8.36377 10.4639 8.47018 10.1667 8.58448L10.0284 8.63766L9.3089 7.91843L8.58937 7.1992L8.65192 7.06573C8.75566 6.84443 8.7451 6.36359 8.63074 6.10496C8.40041 5.58407 7.84344 5.31499 7.25453 5.44009ZM7.71744 5.96454C8.20338 6.1338 8.34902 6.69695 7.99946 7.05499C7.81085 7.24816 7.77044 7.1868 8.69602 8.11267C9.18676 8.60354 9.51091 8.9452 9.49721 8.95689C9.48451 8.96775 9.4054 9.03475 9.32136 9.10579C9.15928 9.24288 9.03542 9.36395 8.95999 9.45926L8.91394 9.5173L8.09008 8.69368C7.63691 8.24063 7.24795 7.87 7.22569 7.87C7.20344 7.87 7.13732 7.92122 7.07875 7.98383C6.82634 8.25362 6.51501 8.29535 6.23809 8.09641C5.60088 7.63861 6.03619 6.7379 6.81263 6.90757L6.90492 6.92769L6.89026 6.84692C6.8413 6.57707 6.84332 6.52603 6.90854 6.38318C7.06824 6.03345 7.40901 5.85707 7.71744 5.96454ZM16.6907 5.99184C17.0307 6.15505 17.1713 6.44336 17.096 6.82276L17.0753 6.92686L17.156 6.91137C17.5752 6.83078 17.8514 6.96259 18.0116 7.31956C18.3017 7.96627 17.425 8.5119 16.9253 7.99558C16.8584 7.9265 16.7837 7.87 16.7592 7.87C16.7324 7.87 16.388 8.19659 15.8931 8.69137L15.0715 9.51273L14.9697 9.39208C14.9138 9.32567 14.7867 9.20526 14.6874 9.12448C14.588 9.04365 14.4964 8.96846 14.4837 8.95736C14.4698 8.9452 14.788 8.60971 15.2849 8.11267C16.1705 7.2268 16.1846 7.2084 16.0498 7.12009C15.4336 6.71629 16.0264 5.67285 16.6907 5.99184ZM12.4652 8.77291C12.6834 8.7976 13.2516 8.92591 13.2955 8.96045C13.3089 8.97095 13.3625 8.99273 13.4148 9.00888C14.7947 9.43558 15.6758 11.2603 15.0188 12.3302C14.8382 12.6245 14.801 12.7445 14.7831 13.0926L14.7679 13.3893L14.4237 13.4013C13.7438 13.425 13.5931 13.6205 13.3897 14.7424C13.3589 14.9121 13.3187 15.0991 13.3004 15.1578L13.2671 15.2647H13.1154H12.9637L12.9493 14.9561C12.9414 14.7863 12.9334 14.6451 12.9315 14.6421C12.9116 14.6109 12.7674 14.5644 12.6904 14.5644C12.4851 14.5644 12.4453 14.6295 12.4296 14.9917L12.4177 15.2647H11.9904H11.5631L11.5513 14.9717C11.537 14.6196 11.5016 14.5644 11.2901 14.5644C11.0787 14.5644 11.0433 14.6196 11.029 14.9717L11.0171 15.2647H10.8643H10.7116L10.6914 15.1816C10.6804 15.1359 10.6614 15.0771 10.6493 15.051C10.6371 15.0249 10.6102 14.8807 10.5893 14.7305C10.5685 14.5804 10.5406 14.4202 10.5275 14.3745C10.5143 14.3288 10.4881 14.2291 10.4694 14.153C10.3329 13.5997 10.1183 13.4206 9.56955 13.4016L9.21299 13.3893L9.19893 13.0807C9.18991 12.8831 9.17169 12.7422 9.14836 12.689C9.04409 12.4517 9.03928 12.4428 8.91097 12.2469C8.6867 11.9044 8.67721 11.1524 8.89091 10.6593C9.23359 9.8687 9.89596 9.21612 10.5661 9.00888C10.6183 8.99273 10.672 8.97095 10.6854 8.96045C10.8615 8.82205 11.9167 8.71084 12.4652 8.77291ZM10.3036 11.0733C9.56065 11.2511 9.37258 12.3534 10.0093 12.7986C10.5114 13.1498 11.243 12.9561 11.47 12.4118C11.7929 11.6374 11.1291 10.8756 10.3036 11.0733ZM13.0891 11.0829C12.0399 11.3788 12.3042 12.9598 13.4029 12.9598C13.765 12.9598 14.21 12.7391 14.21 12.5594C14.21 12.5425 14.225 12.5162 14.2433 12.501C14.3722 12.394 14.3878 11.8127 14.2685 11.5614C14.0787 11.1613 13.5589 10.9504 13.0891 11.0829ZM10.7271 11.6054C11.0433 11.7383 11.1113 12.0863 10.8659 12.3159C10.6296 12.5369 10.3189 12.4577 10.1752 12.1397C10.0366 11.8329 10.4094 11.4718 10.7271 11.6054ZM13.552 11.6053C13.8544 11.7318 13.9219 12.0686 13.6938 12.3118C13.4625 12.5583 13.0147 12.4088 12.9638 12.0682C12.9189 11.7676 13.2734 11.4886 13.552 11.6053ZM11.8186 12.476C11.5726 12.5749 11.2864 13.1606 11.2808 13.5765L11.2783 13.7637L11.3672 13.8102C11.6152 13.9401 12.4484 13.9233 12.6643 13.7841C12.8115 13.6891 12.6157 12.939 12.363 12.6304C12.2353 12.4745 11.9931 12.4058 11.8186 12.476ZM12.145 13.2162C12.1595 13.2723 12.1768 13.337 12.1835 13.3601C12.211 13.4547 11.9376 13.4998 11.8287 13.4187C11.7758 13.3792 11.8273 13.1753 11.9214 13.052L11.9865 12.9666L12.0526 13.0405C12.089 13.0812 12.1305 13.1603 12.145 13.2162ZM9.75721 13.9756C9.85804 14.0587 9.97323 14.2826 10.0063 14.4599L10.026 14.5653L8.9489 15.645C7.74047 16.8562 7.80955 16.7588 8.00824 16.9715C8.27881 17.2612 8.27246 17.5821 7.99044 17.8641C7.49436 18.3602 6.7318 17.8948 6.88563 17.1898L6.90581 17.0972L6.80124 17.1181C6.10266 17.2576 5.64622 16.5005 6.13174 16.0076C6.40213 15.733 6.7464 15.7279 7.03097 15.994C7.13542 16.0918 7.19673 16.1323 7.23192 16.127C7.26106 16.1225 7.75204 15.6492 8.39115 15.0095C9.63815 13.7611 9.56456 13.8168 9.75721 13.9756ZM15.5987 15.0154C16.2777 15.6945 16.7317 16.1311 16.7588 16.1311C16.7833 16.1311 16.8691 16.0697 16.9495 15.9946C17.3083 15.6595 17.7993 15.7745 18.0123 16.2434C18.2297 16.7221 17.7452 17.231 17.1796 17.1181L17.0751 17.0972L17.0952 17.1898C17.2658 17.9714 16.3417 18.4058 15.8936 17.7546C15.7174 17.4984 15.7447 17.2218 15.9707 16.9752C16.1775 16.7495 16.251 16.8543 15.0325 15.6361C14.0402 14.644 13.9571 14.5547 13.9715 14.4967C14.0442 14.2044 14.0815 14.1219 14.1904 14.0124C14.406 13.7959 14.3141 13.7305 15.5987 15.0154Z" fill="#E8E5C6"/>
</svg>
