<?xml version="1.0" encoding="utf-8"?>
<!-- Generator: Adobe Illustrator 25.4.1, SVG Export Plug-In . SVG Version: 6.00 Build 0)  -->
<svg version="1.1" id="Layer_1" focusable="false" xmlns="http://www.w3.org/2000/svg" xmlns:xlink="http://www.w3.org/1999/xlink"
	 x="0px" y="0px" viewBox="0 0 448 512" style="enable-background:new 0 0 448 512;" xml:space="preserve">
<style type="text/css">
	.st0{fill:#868DA5;}
</style>
<path class="st0" d="M65.7,106.1l0,28c0,6.6,5.4,12,12,12l219.3,0L55.7,387.5c-4.7,4.7-4.7,12.3,0,17l19.8,19.8
	c4.7,4.7,12.3,4.7,17,0l241.4-241.4v219.3c0,6.6,5.4,12,12,12h28c6.6,0,12-5.4,12-12V106.1c0-6.6-5.4-12-12-12H77.8
	C71.1,94.1,65.7,99.5,65.7,106.1z"/>
</svg>
