<svg width="25" height="24" viewBox="0 0 25 24" fill="none" xmlns="http://www.w3.org/2000/svg">
<circle cx="12.4004" cy="12" r="11.5" fill="#9B2E27" stroke="#E8E5C6"/>
<path fill-rule="evenodd" clip-rule="evenodd" d="M12.6398 4.87646C12.6331 4.91863 12.609 4.98716 12.5863 5.02871C12.5635 5.07031 12.5449 5.12561 12.5449 5.15167C12.5449 5.17774 12.5271 5.23114 12.5055 5.27039C12.4839 5.30964 12.4595 5.38027 12.4513 5.42734C12.4431 5.47441 12.4237 5.52321 12.4081 5.53573C12.3926 5.54826 12.3732 5.59706 12.365 5.64413C12.3568 5.6912 12.3324 5.76183 12.3107 5.80108C12.2891 5.84033 12.2714 5.89363 12.2714 5.91954C12.2714 5.94545 12.2537 6.0008 12.2322 6.0425C12.2106 6.08421 12.1863 6.15402 12.1782 6.19756C12.1592 6.2989 12.068 6.43337 12.0107 6.44451C11.9863 6.44921 11.8875 6.45856 11.7912 6.4652C11.6887 6.47231 11.5955 6.49035 11.5666 6.5087C11.5396 6.52592 11.4622 6.54549 11.3948 6.55214C11.3274 6.55878 11.2533 6.5759 11.2302 6.59021C11.207 6.60447 11.1502 6.62266 11.104 6.63064C11.0577 6.63866 10.9847 6.66232 10.9418 6.68328C10.8989 6.70423 10.8503 6.7214 10.8339 6.7214C10.8031 6.7214 10.6013 6.80307 10.499 6.85693C10.4411 6.88739 10.3572 6.87896 10.3572 6.84268C10.3572 6.8322 10.3474 6.82361 10.3355 6.82361C10.3091 6.82361 9.93285 6.52393 9.90918 6.48401C9.89993 6.46842 9.88179 6.45565 9.8689 6.45565C9.85597 6.45565 9.83041 6.4418 9.81211 6.42488C9.79376 6.40791 9.66991 6.30974 9.53687 6.20666C9.40382 6.10358 9.22786 5.96564 9.14588 5.90012C8.9604 5.75197 8.90692 5.76878 9.00105 5.94571C9.01872 5.97893 9.04133 6.06913 9.05133 6.1462C9.06127 6.22322 9.08104 6.30739 9.09524 6.33315C9.10944 6.3589 9.12989 6.44957 9.14078 6.53461C9.15166 6.61965 9.17012 6.7005 9.1819 6.71425C9.19368 6.72804 9.21608 6.81114 9.2317 6.89899C9.24732 6.98685 9.27467 7.0955 9.29239 7.14047C9.31016 7.18545 9.3251 7.25735 9.32557 7.30023C9.3261 7.34316 9.33467 7.39375 9.34461 7.41266C9.37311 7.46689 9.31931 7.56026 9.20115 7.66176C8.98002 7.85162 8.69189 8.13991 8.56337 8.29997C8.52577 8.34678 8.3506 8.57037 8.28066 8.66078C8.17895 8.79223 8.11801 8.81359 7.9869 8.76345C7.95435 8.75103 7.81074 8.73264 7.6678 8.72257C7.52487 8.71255 7.35449 8.6915 7.28917 8.67581C7.22386 8.66012 7.06384 8.64192 6.93353 8.63538C6.80321 8.62884 6.63047 8.60794 6.54959 8.58898C6.30874 8.5325 6.29338 8.51252 7.07798 9.27477C7.37421 9.56255 7.62237 9.81405 7.62947 9.83367C7.64593 9.87941 7.60659 10.0921 7.57173 10.1455C7.55711 10.168 7.53949 10.24 7.53265 10.3055C7.52582 10.3711 7.50589 10.4459 7.48838 10.4719C7.46892 10.5007 7.44846 10.6097 7.43574 10.7518C7.42432 10.8798 7.40492 11.0102 7.39261 11.0416C7.38031 11.073 7.37026 11.1533 7.37026 11.2201V11.3414H12.7026H18.035V11.2339C18.035 11.1749 18.0252 11.0944 18.0132 11.0551C18.0013 11.0158 17.9819 10.8792 17.9701 10.7514C17.9583 10.6236 17.936 10.4994 17.9205 10.4754C17.9049 10.4514 17.8857 10.3765 17.8778 10.3091C17.8698 10.2416 17.8506 10.1671 17.8352 10.1436C17.7989 10.0885 17.759 9.88007 17.7759 9.83367C17.783 9.81405 18.0312 9.56255 18.3274 9.27482C19.1142 8.51043 19.096 8.53419 18.8504 8.58918C18.7664 8.60799 18.5745 8.63196 18.4241 8.64238C18.2737 8.65286 18.1176 8.67121 18.0771 8.68317C18.0366 8.69512 17.904 8.71015 17.7826 8.71664C17.6611 8.72308 17.5129 8.74132 17.4533 8.75722C17.2706 8.80587 17.2295 8.79775 17.1435 8.69579C17.1017 8.64611 17.0674 8.59756 17.0674 8.5879C17.0674 8.57819 17.0508 8.55535 17.0306 8.5371C17.0103 8.51881 16.9701 8.47005 16.9412 8.42876C16.8131 8.24595 16.4701 7.88872 16.2046 7.66176C16.086 7.56041 16.0321 7.46704 16.0606 7.41266C16.0706 7.39375 16.0792 7.34316 16.0797 7.30023C16.0802 7.25735 16.0951 7.18545 16.1129 7.14047C16.1306 7.0955 16.1581 6.98971 16.174 6.90538C16.1899 6.82106 16.2172 6.71527 16.2346 6.67029C16.252 6.62532 16.2666 6.55372 16.2671 6.5112C16.2676 6.46868 16.2831 6.39969 16.3016 6.35788C16.32 6.31608 16.3434 6.21984 16.3536 6.144C16.3637 6.06816 16.3865 5.97893 16.4042 5.94571C16.4361 5.88581 16.4483 5.78105 16.4234 5.78105C16.4129 5.78105 16.0492 6.05753 15.9325 6.15433C15.9157 6.16828 15.8399 6.22797 15.7642 6.28705C15.6884 6.34608 15.6115 6.40817 15.5931 6.42503C15.5748 6.44185 15.5493 6.45565 15.5364 6.45565C15.5235 6.45565 15.5053 6.46858 15.4961 6.48442C15.4868 6.50026 15.413 6.56466 15.332 6.62757C15.251 6.69048 15.1655 6.76034 15.1419 6.78278C15.1184 6.80521 15.0876 6.82361 15.0736 6.82361C15.0595 6.82361 15.048 6.8322 15.048 6.84268C15.048 6.87906 14.9641 6.88739 14.9063 6.85673C14.8475 6.82555 14.6527 6.74706 14.5274 6.70402C14.2292 6.60156 14.1404 6.57626 14.008 6.55602C13.9392 6.54549 13.8619 6.52352 13.8361 6.50711C13.8101 6.4905 13.7117 6.47195 13.6141 6.4652C13.5177 6.45856 13.4189 6.44921 13.3946 6.44451C13.3373 6.43337 13.2461 6.2989 13.2271 6.19756C13.219 6.15402 13.1946 6.08421 13.1731 6.0425C13.1515 6.0008 13.1338 5.94561 13.1337 5.91985C13.1336 5.89409 13.1182 5.84544 13.0995 5.81171C13.0807 5.77798 13.0571 5.7097 13.047 5.65992C13.0368 5.6102 13.0152 5.555 12.9989 5.53727C12.9825 5.51959 12.9622 5.46827 12.9537 5.4233C12.9453 5.37833 12.9208 5.30949 12.8994 5.27029C12.878 5.23109 12.8604 5.17774 12.8604 5.15167C12.8604 5.12561 12.8418 5.07031 12.819 5.02871C12.7962 4.98716 12.7721 4.91863 12.7655 4.87646C12.7553 4.81238 12.745 4.7998 12.7026 4.7998C12.6602 4.7998 12.6499 4.81238 12.6398 4.87646ZM13.1496 7.0472C13.2147 7.09463 13.218 7.10352 13.2176 7.23119C13.217 7.45488 13.2098 7.45805 12.6773 7.46822C12.4367 7.47282 12.202 7.48682 12.1557 7.49934C12.1094 7.51181 11.9864 7.53409 11.8823 7.54881C11.7781 7.56353 11.6646 7.59031 11.6298 7.60835C11.5951 7.62634 11.5403 7.64111 11.5081 7.64121C11.4758 7.64126 11.4142 7.65849 11.3713 7.67944C11.3284 7.70039 11.2587 7.72365 11.2165 7.73111C11.1743 7.73852 11.129 7.75722 11.1159 7.77261C11.1027 7.78799 11.0601 7.80639 11.0212 7.81349C10.9823 7.82059 10.9394 7.83935 10.9259 7.85519C10.9123 7.87104 10.8711 7.8902 10.8343 7.89782C10.7975 7.90538 10.7516 7.92516 10.7323 7.94172C10.687 7.98045 10.5732 8.04454 10.4992 8.07285C10.4674 8.08507 10.4414 8.10291 10.4414 8.11251C10.4414 8.12217 10.4082 8.14527 10.3677 8.16398C10.3273 8.18263 10.2941 8.20517 10.2941 8.21401C10.2941 8.2229 10.2657 8.23977 10.231 8.25152C10.1963 8.26328 10.1679 8.28198 10.1679 8.29302C10.1679 8.30411 10.1495 8.31883 10.1269 8.32583C10.1044 8.33278 10.0801 8.35639 10.0729 8.37827C10.0657 8.40019 10.0498 8.41813 10.0373 8.41813C10.0249 8.41813 9.96482 8.45952 9.90387 8.51012C9.77719 8.6153 9.53276 8.64938 9.50069 8.56634C9.49311 8.54666 9.47381 8.52106 9.45788 8.5094C9.33851 8.42227 9.41507 8.27227 9.69747 8.03994C9.75216 7.99497 9.81926 7.93747 9.84661 7.91218C9.874 7.88688 9.90303 7.86613 9.91118 7.86608C9.91933 7.86598 9.98754 7.82463 10.0627 7.77419C10.1379 7.72375 10.2101 7.6824 10.2232 7.6823C10.2362 7.68225 10.2592 7.66789 10.2741 7.65036C10.2891 7.63283 10.3305 7.60487 10.3661 7.58821C10.5188 7.51682 10.5886 7.47629 10.5886 7.45897C10.5886 7.4488 10.626 7.43433 10.6715 7.42687C10.7171 7.41936 10.7654 7.4004 10.7788 7.38471C10.7922 7.36902 10.8377 7.35052 10.8799 7.34352C10.9222 7.33657 10.9804 7.31485 11.0093 7.29527C11.0382 7.27565 11.0986 7.25393 11.1434 7.24693C11.1882 7.23992 11.2403 7.22112 11.2591 7.20512C11.2779 7.18912 11.3501 7.1696 11.4195 7.16173C11.4889 7.15386 11.5676 7.13378 11.5943 7.11706C11.6211 7.1004 11.711 7.08211 11.7942 7.07644C11.8773 7.07076 11.9832 7.05359 12.0295 7.03826C12.1705 6.99165 12.1837 6.99068 12.6395 6.9941C13.0725 6.99732 13.0826 6.99835 13.1496 7.0472ZM8.39882 10.2523C8.54139 10.3739 8.42517 10.6668 8.23433 10.6668C8.17911 10.6668 8.01199 10.5598 7.99332 10.5125C7.90029 10.2769 8.2012 10.0838 8.39882 10.2523ZM10.1868 10.2523C10.3874 10.4234 10.1263 10.7698 9.90824 10.6218C9.79702 10.5463 9.7682 10.5032 9.76893 10.4133C9.77046 10.2172 10.0289 10.1177 10.1868 10.2523ZM11.9243 10.2085C12.0744 10.2491 12.091 10.4739 11.9525 10.5901C11.829 10.6937 11.7545 10.6854 11.6047 10.5513C11.5216 10.4768 11.5759 10.238 11.6824 10.2098C11.7316 10.1967 11.8777 10.196 11.9243 10.2085ZM13.7947 10.2693C13.8573 10.3369 13.8628 10.4947 13.8044 10.5476C13.6038 10.7291 13.3636 10.6564 13.36 10.4131C13.3568 10.2045 13.6459 10.1089 13.7947 10.2693ZM15.5816 10.2672C15.6876 10.3783 15.6551 10.5146 15.497 10.6218C15.2768 10.7712 15.0182 10.4231 15.221 10.2501C15.3155 10.1695 15.4966 10.1781 15.5816 10.2672ZM17.3671 10.2614C17.5059 10.387 17.3704 10.6668 17.1709 10.6668C16.9779 10.6668 16.864 10.3738 17.009 10.2501C17.0993 10.1731 17.2757 10.1786 17.3671 10.2614ZM7.37026 11.9329C7.37026 11.9997 7.38026 12.0798 7.39251 12.1111C7.40476 12.1424 7.4238 12.2679 7.43484 12.3899C7.44583 12.5119 7.46876 12.6379 7.4858 12.6699C7.50279 12.7018 7.52308 12.7817 7.53092 12.8473C7.5387 12.9129 7.55711 12.985 7.57178 13.0075C7.61243 13.0698 7.64551 13.2766 7.62337 13.3298C7.61285 13.3549 7.38362 13.5882 7.1139 13.8482C6.27718 14.6549 6.29753 14.6285 6.56457 14.5609C6.63167 14.5439 6.79538 14.5247 6.92848 14.5182C7.06158 14.5117 7.21939 14.4934 7.27918 14.4774C7.33898 14.4615 7.49043 14.4431 7.61574 14.4366C7.74106 14.43 7.89235 14.4117 7.95199 14.3958C8.13468 14.3471 8.17575 14.3552 8.26173 14.4572C8.30359 14.5069 8.33787 14.5554 8.33787 14.5651C8.33787 14.5748 8.35444 14.5976 8.37468 14.6159C8.39493 14.6342 8.43516 14.6829 8.46408 14.7242C8.49301 14.7655 8.53797 14.823 8.564 14.8518C8.59003 14.8807 8.61133 14.912 8.61133 14.9215C8.61133 14.9308 8.63736 14.9445 8.66917 14.9518C8.70099 14.959 8.76015 14.9821 8.80064 15.0029C8.84113 15.0237 8.89793 15.0505 8.92685 15.0625C8.95578 15.0744 9.0031 15.0974 9.03203 15.1136C9.06095 15.1299 9.10828 15.1432 9.1372 15.1434C9.16612 15.1435 9.22765 15.1609 9.27393 15.182C9.3781 15.2296 9.53829 15.2829 9.66276 15.3114C9.71466 15.3234 9.77619 15.3446 9.79949 15.3586C9.82278 15.3727 9.89714 15.39 9.96461 15.3972C10.0321 15.4044 10.1173 15.4258 10.1539 15.4449C10.1906 15.4639 10.2962 15.4862 10.3888 15.4944C10.4813 15.5025 10.5997 15.5198 10.6517 15.5329C11.0072 15.6219 12.609 15.6222 12.9656 15.5333C13.0176 15.5203 13.1359 15.5025 13.2285 15.4937C13.3211 15.485 13.4267 15.4626 13.4634 15.444C13.5 15.4254 13.5851 15.4044 13.6527 15.3972C13.7201 15.39 13.7945 15.3727 13.8178 15.3586C13.8411 15.3446 13.9026 15.3234 13.9545 15.3114C14.057 15.288 14.2048 15.2405 14.3539 15.183C14.4059 15.163 14.4801 15.1414 14.5186 15.1351C14.5571 15.1288 14.6129 15.1051 14.6424 15.0826C14.6719 15.06 14.7088 15.0415 14.7243 15.0415C14.7398 15.0415 14.7835 15.0232 14.8214 15.0007C14.8593 14.9782 14.9148 14.9598 14.9448 14.9598C14.9749 14.9598 15.0166 14.9413 15.0375 14.9188C15.0584 14.8964 15.0963 14.878 15.1216 14.878C15.147 14.878 15.1839 14.8606 15.2037 14.8393C15.2235 14.8181 15.3011 14.7698 15.3761 14.732C15.5916 14.6235 15.6374 14.5977 15.6769 14.563C15.6973 14.5451 15.734 14.5304 15.7584 14.5304C15.7829 14.5304 15.8153 14.514 15.8304 14.4938C15.8455 14.4737 15.9052 14.4309 15.963 14.3988C16.0209 14.3667 16.0836 14.3257 16.1025 14.3077C16.1652 14.2476 16.3501 14.1119 16.3865 14.0992C16.4907 14.0629 17.7195 12.8704 17.7195 12.8056C17.7195 12.7888 17.8446 12.6128 17.8619 12.6053C17.8949 12.591 17.9719 12.4065 17.9722 12.3408C17.9724 12.3027 17.9862 12.2163 18.003 12.1489C18.0198 12.0814 18.0338 11.9779 18.0343 11.9189L18.035 11.8116H12.7026H7.37026V11.9329ZM8.37253 12.5591C8.56931 12.7158 8.46555 12.9704 8.21224 12.9523C7.95041 12.9336 7.88241 12.6781 8.10212 12.5383C8.20972 12.4697 8.26572 12.4741 8.37253 12.5591ZM10.1605 12.5591C10.3584 12.7167 10.2535 12.9703 9.99779 12.9523C9.73591 12.9339 9.6747 12.6896 9.89446 12.5398C9.99695 12.47 10.0538 12.4741 10.1605 12.5591ZM11.9525 12.5629C12.1415 12.7215 12.0556 12.9558 11.8086 12.9558C11.5529 12.9558 11.461 12.6909 11.6679 12.5499C11.7876 12.4682 11.8427 12.4707 11.9525 12.5629ZM13.7073 12.5322C13.8208 12.6102 13.8343 12.6296 13.8425 12.7281C13.8647 12.9941 13.4214 13.0544 13.3646 12.7931C13.3194 12.5855 13.5402 12.4174 13.7073 12.5322ZM15.4958 12.5322C15.6102 12.6101 15.637 12.65 15.637 12.7419C15.637 12.9333 15.3754 13.0345 15.221 12.9029C15.013 12.7255 15.2704 12.3785 15.4958 12.5322ZM17.3082 12.5468C17.4112 12.6157 17.425 12.6404 17.425 12.7564C17.425 12.8761 17.3478 12.9412 17.193 12.9523C16.9304 12.9711 16.8306 12.6893 17.0469 12.5401C17.1443 12.4729 17.1998 12.4743 17.3082 12.5468Z" fill="#E8E5C6"/>
<path fill-rule="evenodd" clip-rule="evenodd" d="M17.9061 12.3937C17.8834 12.4453 17.8585 12.4876 17.8508 12.4877C17.8366 12.4879 17.7099 12.6658 17.7099 12.6855C17.7099 12.7506 16.5032 13.9486 16.4008 13.9851C16.3651 13.9979 16.1835 14.1342 16.1219 14.1946C16.1034 14.2127 16.0418 14.2539 15.985 14.2862C15.9282 14.3184 15.8695 14.3613 15.8547 14.3816C15.8398 14.4018 15.808 14.4184 15.784 14.4184C15.76 14.4184 15.724 14.4331 15.704 14.4511C15.6652 14.486 15.6202 14.5119 15.4085 14.6209C15.3349 14.6588 15.2586 14.7073 15.2392 14.7287C15.2198 14.75 15.1836 14.7675 15.1587 14.7675C15.1338 14.7675 15.0966 14.786 15.076 14.8086C15.0555 14.8312 15.0145 14.8497 14.985 14.8497C14.9555 14.8497 14.901 14.8682 14.8638 14.8908C14.8266 14.9134 14.7837 14.9318 14.7684 14.9318C14.7532 14.9318 14.717 14.9504 14.688 14.9731C14.659 14.9957 14.6043 15.0195 14.5664 15.0258C14.5286 15.0322 14.4558 15.0538 14.4047 15.074C14.2583 15.1317 14.1131 15.1794 14.0125 15.203C13.9615 15.2149 13.9011 15.2362 13.8782 15.2504C13.8553 15.2645 13.7823 15.2819 13.716 15.2891C13.6497 15.2963 13.5661 15.3175 13.5301 15.3362C13.4941 15.3548 13.3904 15.3773 13.2995 15.3861C13.2086 15.3949 13.0924 15.4128 13.0412 15.4258C12.691 15.5151 11.118 15.5149 10.7689 15.4254C10.7178 15.4123 10.6016 15.3949 10.5107 15.3867C10.4198 15.3786 10.316 15.3562 10.28 15.337C10.2441 15.3179 10.1604 15.2963 10.0941 15.2891C10.0279 15.2819 9.95483 15.2645 9.93196 15.2504C9.90908 15.2362 9.84865 15.2149 9.79768 15.203C9.67544 15.1743 9.51813 15.1208 9.41582 15.073C9.37038 15.0517 9.30995 15.0343 9.28155 15.0341C9.25314 15.034 9.20666 15.0206 9.17826 15.0042C9.14986 14.988 9.10338 14.9649 9.07497 14.953C9.04657 14.9412 8.99735 14.9169 8.96564 14.8991C8.82424 14.8199 8.73314 14.8658 8.86411 14.9503C8.87459 14.957 8.92283 15.0083 8.97127 15.0643C9.05111 15.1565 9.17635 15.2739 9.39408 15.461L9.47222 15.528L9.45827 15.6663C9.45058 15.7424 9.42631 15.8578 9.40425 15.9228C9.3822 15.9877 9.36387 16.0663 9.36351 16.0973C9.36315 16.1284 9.34486 16.2046 9.32286 16.2667C9.30086 16.3288 9.28258 16.3984 9.28222 16.4214C9.28186 16.4443 9.2674 16.5136 9.2501 16.5754C9.2328 16.6372 9.20511 16.7592 9.18864 16.8466C9.17211 16.934 9.14361 17.051 9.12527 17.1068C9.0776 17.2517 9.10735 17.3381 9.18105 17.2688C9.19654 17.2541 9.26373 17.201 9.3303 17.1506C9.39687 17.1003 9.47589 17.0333 9.50584 17.0017C9.53579 16.9702 9.56828 16.9444 9.57799 16.9444C9.5956 16.9444 9.89343 16.7062 9.97513 16.6267C9.99873 16.6037 10.0444 16.5665 10.0767 16.5439C10.1089 16.5213 10.1454 16.4936 10.1577 16.4822C10.1701 16.4709 10.229 16.4251 10.2886 16.3804C10.3483 16.3358 10.3971 16.2937 10.3971 16.2868C10.3971 16.2046 10.6693 16.2147 10.7705 16.3006C10.7885 16.3158 10.8211 16.3283 10.8431 16.3283C10.8651 16.3283 10.9166 16.3461 10.9575 16.3679C10.9984 16.3897 11.068 16.4138 11.1121 16.4216C11.1563 16.4293 11.2139 16.449 11.2402 16.4654C11.2665 16.4818 11.3453 16.5044 11.4151 16.5156C11.485 16.5268 11.5533 16.5452 11.567 16.5564C11.5806 16.5677 11.6705 16.585 11.7668 16.5948C12.1798 16.6372 12.1865 16.6439 12.3503 17.1703C12.3961 17.3172 12.4625 17.5055 12.4845 17.5502C12.4955 17.5728 12.5177 17.6375 12.5337 17.694C12.5747 17.8387 12.6272 17.9914 12.6608 18.0636C12.6765 18.0975 12.6992 18.1645 12.7112 18.2125C12.7293 18.2852 12.7414 18.2998 12.783 18.2998C12.8247 18.2998 12.8367 18.2852 12.8549 18.2125C12.8668 18.1645 12.8895 18.0975 12.9053 18.0636C12.9374 17.9945 12.9895 17.8443 13.0308 17.7016C13.0459 17.6493 13.0718 17.5799 13.0883 17.5475C13.1048 17.5152 13.1251 17.4516 13.1333 17.4065C13.1415 17.3613 13.1569 17.3138 13.1676 17.301C13.1783 17.2882 13.1999 17.2328 13.2157 17.1778C13.3619 16.6702 13.4356 16.5953 13.7885 16.5953C13.8425 16.5953 13.9339 16.5768 13.9915 16.5542C14.0491 16.5316 14.1263 16.5131 14.163 16.5131C14.1997 16.5131 14.2621 16.496 14.3017 16.4751C14.3413 16.4541 14.4098 16.4304 14.4539 16.4222C14.4981 16.4142 14.5676 16.3897 14.6085 16.3679C14.6494 16.3461 14.7009 16.3283 14.7229 16.3283C14.7449 16.3283 14.7776 16.3158 14.7956 16.3006C14.9081 16.205 15.1012 16.2037 15.1793 16.2979C15.1907 16.3116 15.265 16.3722 15.3446 16.4325C15.5309 16.5737 15.5356 16.5774 15.5885 16.6261C15.6131 16.6487 15.6938 16.7155 15.7678 16.7746C15.8418 16.8337 15.9171 16.8961 15.9351 16.9132C15.9531 16.9304 15.9763 16.9444 15.9868 16.9444C15.9972 16.9444 16.0303 16.9702 16.0602 17.0017C16.0902 17.0333 16.1692 17.1003 16.2358 17.1506C16.3023 17.201 16.3695 17.2541 16.385 17.2688C16.4647 17.3438 16.4887 17.2415 16.4302 17.076C16.4069 17.01 16.3878 16.9324 16.3878 16.9034C16.3878 16.8744 16.3736 16.8001 16.3563 16.7383C16.339 16.6766 16.3117 16.5614 16.2958 16.4823C16.2798 16.4032 16.2521 16.2932 16.2343 16.2377C16.2165 16.1823 16.2019 16.111 16.2019 16.0793C16.2019 16.0476 16.1844 15.9775 16.163 15.9235C16.1417 15.8694 16.1175 15.7582 16.1093 15.6763L16.0944 15.5275L16.1734 15.4607C16.3203 15.3364 16.7125 14.9429 16.8234 14.8086C16.884 14.7351 16.944 14.6658 16.9567 14.6545C16.9695 14.6432 17.0135 14.5832 17.0546 14.5211C17.0956 14.4589 17.1514 14.3813 17.1785 14.3484L17.2277 14.2888L17.4946 14.3135C17.6414 14.3271 17.822 14.3475 17.8958 14.3589C17.9697 14.3703 18.0998 14.3879 18.185 14.398C18.2702 14.4082 18.4236 14.4263 18.5259 14.4384C18.6281 14.4505 18.7707 14.4694 18.8428 14.4804C19.0984 14.5195 19.0992 14.5206 18.4257 13.8531C17.7089 13.1425 17.7342 13.1824 17.8419 12.9353C17.8602 12.8933 17.8751 12.8359 17.8751 12.8077C17.8751 12.7795 17.8942 12.7085 17.9174 12.6499C17.9471 12.5749 17.9578 12.5075 17.9535 12.4216L17.9475 12.2998L17.9061 12.3937Z" fill="#E8E5C6"/>
</svg>
