<?xml version="1.0" encoding="utf-8"?>
<!-- Generator: Adobe Illustrator 25.4.1, SVG Export Plug-In . SVG Version: 6.00 Build 0)  -->
<svg version="1.1" id="Layer_1" xmlns="http://www.w3.org/2000/svg" xmlns:xlink="http://www.w3.org/1999/xlink" x="0px" y="0px"
	 viewBox="0 0 416.1 280.4" style="enable-background:new 0 0 416.1 280.4;" xml:space="preserve">
<style type="text/css">
	.st0{fill:#354169;}
</style>
<g id="Layer_2_00000128455786256975390860000015842647032834101392_">
	<g id="Layer_1-2">
		<path class="st0" d="M74.6,55.6C44.9,62.4,18.4,75.8,8.4,83.9c-4.9,4.2-5.9,6.4-5.9,6.6c5.6,4.9,26.7,17.6,33.2,21.7
			c2.9-7.3,8.6-17.2,13.1-24.2C56,76.7,63.6,65.4,74.6,55.6z"/>
		<path class="st0" d="M341.1,55.6c23.3,1.3,47,13.3,57,21.4c4.9,4.2,15.1,13.3,15.1,13.4c-5.6,4.9-26.6,17.6-33.2,21.7
			c-2.9-7.3-8.6-17.2-13.1-24.2C359.8,76.7,352.1,65.4,341.1,55.6z"/>
		<path class="st0" d="M208.6,0C121.9,0,63,64.5,43.2,117.2c30.9,17.4,56.3,19.1,87.1,23.5c26.1,3.7,52.4,5.5,78.8,5.3h0.2
			c26.4,0.2,52.8-1.6,78.9-5.4c30.4-4.4,54.6-5.8,85.3-22.8C354,64.9,295.5,0,208.6,0z"/>
		<path class="st0" d="M404.3,162.4c6.1-24.8,10-52.9,11.8-65.3c-13.8,10.5-37.5,28.3-58.3,35.5c-19.9,6.9-43,12.3-68.6,15.9
			c-26.5,3.8-53.2,5.6-80,5.4c-26.8,0.2-53.5-1.7-80-5.4c-25.6-3.7-48.7-9-68.6-15.9c-20.9-7.2-46.8-25-60.6-35.5
			c1.8,12.3,5.6,33.1,13.3,65.3s20.2,70.9,21,72l0.2,0.1l0.6,0.5c0.1,0.1,13.8,11.5,41.8,22.7c25.9,10.4,69.8,22.7,131.6,22.7h1.2
			c62,0,106-12.5,132-22.9c27.9-11.2,41.2-22.4,41.4-22.5l0.6-0.5l0.2-0.1C384.8,233.3,398.3,187.2,404.3,162.4z"/>
	</g>
</g>
</svg>
