<svg width="17" height="17" viewBox="0 0 17 17" fill="none" xmlns="http://www.w3.org/2000/svg">
<path d="M16.105 14.4462L12.5809 10.922C13.4293 9.79248 13.8874 8.41762 13.8858 7.00491C13.8858 3.39645 10.95 0.460693 7.34158 0.460693C3.73312 0.460693 0.797363 3.39645 0.797363 7.00491C0.797363 10.6134 3.73312 13.5491 7.34158 13.5491C8.75429 13.5507 10.1292 13.0927 11.2587 12.2442L14.7829 15.7684C14.9613 15.9278 15.1939 16.013 15.4331 16.0063C15.6723 15.9996 15.8999 15.9016 16.069 15.7324C16.2382 15.5632 16.3362 15.3356 16.3429 15.0964C16.3496 14.8573 16.2645 14.6246 16.105 14.4462V14.4462ZM2.66714 7.00491C2.66714 6.0804 2.94129 5.17664 3.45493 4.40793C3.96856 3.63922 4.69861 3.04009 5.55275 2.68629C6.4069 2.33249 7.34677 2.23992 8.25352 2.42029C9.16028 2.60065 9.99318 3.04585 10.6469 3.69958C11.3006 4.35332 11.7458 5.18622 11.9262 6.09298C12.1066 6.99973 12.014 7.9396 11.6602 8.79375C11.3064 9.64789 10.7073 10.3779 9.93857 10.8916C9.16986 11.4052 8.2661 11.6794 7.34158 11.6794C6.1023 11.6779 4.9142 11.1849 4.0379 10.3086C3.16159 9.4323 2.66863 8.2442 2.66714 7.00491V7.00491Z" fill="#0F243F"/>
</svg>
