<?xml version="1.0" encoding="utf-8"?>
<!-- Generator: Adobe Illustrator 25.4.1, SVG Export Plug-In . SVG Version: 6.00 Build 0)  -->
<svg version="1.1" id="Layer_1" xmlns="http://www.w3.org/2000/svg" xmlns:xlink="http://www.w3.org/1999/xlink" x="0px" y="0px"
	 viewBox="0 0 409.9 287.3" style="enable-background:new 0 0 409.9 287.3;" xml:space="preserve">
<style type="text/css">
	.st0{fill:#868DA5;}
</style>
<g id="Layer_2_00000129192709160139238000000009108618223640744335_">
	<g id="Layer_1-2">
		<path class="st0" d="M359.4,92.7c0.5,65,0.9,129.7,1.4,194.6c-3.8-0.2-7.2-0.3-10.7-0.5c-32.8-1.9-65.6-3.8-98.4-5.9
			c-24.6-1.5-49.2-3.1-73.7-5.2c-29.1-2.5-58.2-5.2-87.2-8.4c-17.8-1.9-35.4-4.8-53.1-7.6c-4.5-0.9-8.9-2.2-13.1-3.9
			c-3.5-1.3-3.3-2.2-3.6-5.9c-0.5-6.6-1.5-13.2-3-19.6c-4.4-17.7-10-35-16.8-51.9c-0.3-0.8-0.6-1.6-1.1-2.9c4,0.7,7.6,1.4,11.1,2
			c12.8,1.9,25.5,1.3,38.3-0.8c23.6-3.6,46-13.1,65-27.6c15.3-11.6,33-18.6,51.2-24c21.1-6.4,42.7-11.3,64.4-15.6
			c25.9-5.2,52.1-9.3,78.3-12.3c16-1.9,32.1-3.1,48.2-4.7C357.4,92.7,358.2,92.7,359.4,92.7z"/>
		<path class="st0" d="M359.4,47.7v34.9c-5.6,0.8-11.3,1.6-16.9,2.5c-25.9,4-51.8,7.8-77.6,12.2c-33.2,5.6-66.1,12.6-98.8,20.8
			c-13.4,3.4-26.7,7-39.2,13c-4.2,1.9-8.2,4.3-11.9,7.2c-16.2,12.6-34.8,20-54.2,25.8c-14.7,4.3-29.5,7.3-45,6.5
			c-2.2-0.2-4.5-0.5-6.7-0.9c-6.4-1-9.1-6.6-8.8-12.5c0.4-7.1,1.4-14.1,1.9-21.1c0.2-2,0.9-3,3-3.4c6.6-1.2,13.2-2.7,19.8-3.9
			c1.7-0.3,2.3-1,2.3-2.8c-0.1-15.1,0-30.3,0-45.4v-3.1l21.2-2.6c0.5-0.1,1-0.1,1.5-0.2c2.2-0.3,5,0,6.5-1.2s1-4,1.6-6.1
			c0.3-1,1-1.8,1.8-2.3c4.8-2.9,9.6-5.7,14.5-8.4c1.3-0.6,2-1.9,1.9-3.3c-0.1-16.7,0-33.4,0-50.2V0h25.4c0,1,0,2,0,2.9
			c-0.2,17.4-0.3,34.8-0.5,52.2c0,2.3,0.6,3,2.9,2.9c11.7-0.1,23.5,0,35.2,0h3.2v16.7c2.9,0,5.6,0,8.2,0c3.7,0,7.3,0.2,11,0
			c2.3-0.1,3.2,0.8,3.9,2.8c1.9,5.1,3.9,10.1,6,15c0.7,1.4,1.5,2.6,2.4,3.9l1.1-0.1c0.6-2.2,1.1-4.3,1.5-6.6c0.4-3,0.6-6,0.5-9
			c-0.3-2.1,1.1-4,3.1-4.4c5.7-1.6,11.3-3.6,17.1-4.6c26.4-4.5,52.8-9.1,79.2-13c26.6-4,53.4-7.3,80.1-10.9
			C357.3,47.8,358.1,47.8,359.4,47.7z"/>
		<path class="st0" d="M365.4,91.7c13.5,3.5,24.7,11,36.7,15.9c-11.9,59.5-23.7,118.7-35.6,178C366.1,221,365.7,156.5,365.4,91.7z"
			/>
		<path class="st0" d="M402.1,99.5c-0.3-0.1-0.5,0-0.6-0.1c-9.4-8.9-21.5-12.7-33.2-17c-2.2-0.8-3-1.8-3-4.2
			c0.2-8.9,0.1-17.8,0.1-26.8c0.3-0.1,0.7-0.1,1-0.1c13.3,4,26.5,8.1,38.4,15.5c0.9,0.6,1.8,1.2,2.6,1.9c2.6,2.2,3.1,4.4,1.8,7.8
			c-2.6,6.7-4.3,13.7-6.4,20.6C402.5,98,402.3,98.7,402.1,99.5z"/>
	</g>
</g>
</svg>
