<svg width="24" height="24" viewBox="0 0 24 24" fill="none" xmlns="http://www.w3.org/2000/svg">
<circle cx="12" cy="12" r="11.5" fill="#979472" stroke="#E8E5C6"/>
<path fill-rule="evenodd" clip-rule="evenodd" d="M14.8973 9.01833C14.8599 9.02658 14.8101 9.04179 14.7867 9.05216C14.7633 9.06253 14.7173 9.08301 14.6845 9.09769C14.5952 9.13774 14.3909 9.34356 14.3453 9.4395C14.2597 9.61941 14.2593 9.62385 14.2591 10.4305L14.2589 11.1892H14.4966H14.7343L14.7392 10.4388L14.7441 9.68828L14.7845 9.62501C14.8698 9.49133 14.924 9.47375 15.2804 9.46438L15.5953 9.45609L15.6 9.22804L15.6048 9L15.2851 9.00166C15.1093 9.00257 14.9348 9.01008 14.8973 9.01833ZM12.9353 9.95633C12.9189 9.9628 12.9141 10.1027 12.9141 10.5769V11.1892H12.9907H13.0673V10.5994C13.0673 9.9281 13.0628 9.90625 12.9353 9.95633ZM13.5646 10.7333C13.4845 10.7671 13.4588 10.8395 13.4588 11.0311V11.1892H13.6801H13.9014V11.0175C13.9014 10.7451 13.7796 10.6423 13.5646 10.7333ZM12.497 11.4716C12.3662 11.4973 12.2779 11.5582 12.1534 11.709C12.0994 11.7743 12.0346 11.8501 12.0093 11.8775C11.9841 11.9049 11.9136 11.987 11.8525 12.0599L11.7416 12.1926L13.6088 12.1969C14.6358 12.1993 15.4857 12.1976 15.4974 12.1933C15.5256 12.1828 15.5247 11.9372 15.4961 11.836C15.4388 11.6335 15.3011 11.5082 15.095 11.4711C14.9849 11.4513 12.5982 11.4517 12.497 11.4716ZM5.39809 11.9135C4.93615 11.9492 4.76821 11.9794 4.76821 12.0271C4.76821 12.0678 4.79821 12.0759 5.07413 12.1099C5.19555 12.1249 5.30088 12.1407 5.3082 12.1451C5.31552 12.1495 5.32148 12.3978 5.32148 12.6969C5.32148 13.2805 5.31923 13.2955 5.23215 13.2955C5.21725 13.2955 5.15656 13.3067 5.09728 13.3204C5.03804 13.334 4.95122 13.3531 4.9044 13.3627C4.85758 13.3722 4.78864 13.3867 4.75119 13.3949C4.6124 13.4252 4.4431 13.4595 4.38943 13.4682L4.33411 13.4771V13.281C4.33411 13.0811 4.31419 12.9804 4.27469 12.9804C4.24928 12.9804 4.23196 13.0166 4.23196 13.0697C4.23196 13.0899 4.22371 13.1145 4.21358 13.1244C4.18068 13.1564 4.20873 13.4511 4.25316 13.5402C4.26661 13.5671 4.26661 13.5878 4.25316 13.6148C4.1914 13.7385 4.19408 14.1233 4.25703 14.1742C4.30495 14.2129 4.32534 14.1432 4.33411 13.9108C4.34126 13.7216 4.34675 13.6862 4.36815 13.691C4.3822 13.6941 4.42816 13.7028 4.4703 13.7103C4.59682 13.733 4.88325 13.792 4.94696 13.8085C4.97973 13.817 5.06783 13.8366 5.14273 13.852C5.33153 13.8909 5.32148 13.8628 5.32148 14.3527C5.32148 14.8518 5.33748 14.8999 5.52947 14.978C5.70443 15.0492 5.95536 14.9384 5.99149 14.7741C5.99681 14.7499 6.01354 14.6779 6.02873 14.614C6.05627 14.4981 6.06312 14.4674 6.11057 14.2492C6.15684 14.0365 6.08606 14.047 6.65784 14.1681C6.7702 14.1919 6.89277 14.2174 6.93022 14.2249C6.96768 14.2323 7.09025 14.2581 7.2026 14.2822C7.31496 14.3063 7.43753 14.3321 7.47498 14.3396C7.51244 14.3471 7.60436 14.366 7.67927 14.3816C7.75417 14.3972 7.8461 14.4161 7.88355 14.4236C7.95429 14.4377 8.30949 14.5147 8.42831 14.5417C8.61638 14.5843 8.83892 14.6217 9.12629 14.6587C9.21787 14.6705 10.72 14.6786 13.7142 14.6833C18.1266 14.6902 18.276 14.6888 18.4042 14.6394C18.6245 14.5545 18.7337 14.4906 18.8528 14.3769C19.4587 13.7987 19.238 12.8182 18.4383 12.5344C18.2424 12.4649 18.3351 12.4663 13.8756 12.4663C9.23983 12.4663 9.1794 12.4674 8.70069 12.5657C8.66324 12.5734 8.56748 12.5922 8.4879 12.6075C8.40831 12.6228 8.32562 12.6421 8.30408 12.6503C8.28259 12.6585 8.24867 12.6653 8.22871 12.6653C8.20875 12.6653 8.16887 12.6725 8.1401 12.6813C8.11137 12.69 8.02655 12.7092 7.95165 12.7239C7.87674 12.7385 7.78865 12.7569 7.75587 12.7648C7.7231 12.7727 7.63501 12.7913 7.5601 12.8061C7.42902 12.8321 7.36288 12.8459 7.20686 12.8802C7.16707 12.8889 7.07322 12.9082 6.99832 12.9231C6.92341 12.938 6.83532 12.9564 6.80255 12.9641C6.76978 12.9718 6.68168 12.9902 6.60677 13.005C6.53187 13.0197 6.44377 13.0384 6.411 13.0464C6.25425 13.085 6.18969 13.0858 6.18969 13.0494C6.18969 13.0306 6.18275 12.998 6.17429 12.9771C6.16582 12.9561 6.1496 12.8942 6.13824 12.8394C6.10555 12.682 6.0635 12.4973 6.01081 12.2794C5.98153 12.1583 5.986 12.1346 6.03827 12.1346C6.0787 12.1346 6.15564 12.0639 6.15564 12.0268C6.15564 11.9124 5.90284 11.8746 5.39809 11.9135Z" fill="#0F243F"/>
</svg>
